<mxfile host="app.diagrams.net" modified="2023-06-12T07:02:08.071Z" agent="Mozilla/5.0 (Windows NT 10.0; Win64; x64) AppleWebKit/537.36 (KHTML, like Gecko) Chrome/114.0.0.0 Safari/537.36 Edg/114.0.1823.43" etag="zdJA8M5d8Ce_2jB4tZ9y" version="21.3.8" type="github">
  <diagram name="第 1 页" id="9hrh288_XQ31AXjvuD0S">
    <mxGraphModel dx="1386" dy="796" grid="0" gridSize="10" guides="1" tooltips="1" connect="1" arrows="1" fold="1" page="1" pageScale="1" pageWidth="4681" pageHeight="3300" math="0" shadow="0">
      <root>
        <mxCell id="0" />
        <mxCell id="1" parent="0" />
        <mxCell id="zU91GxcmcaWpKpa5Nw65-1" value="" style="shape=image;verticalLabelPosition=bottom;labelBackgroundColor=default;verticalAlign=top;aspect=fixed;imageAspect=0;image=data:image/png,iVBORw0KGgoAAAANSUhEUgAAAyAAAAF9CAYAAAD8/wxoAAAgAElEQVR4nOydd3wc1bn3v+fMzO6qWM1VtmXJsmVb7gYbY2KwTScQAqGHHtLrTXJvynvDzZvkvjfJDSGNBBJIICH0GjrGNAMGY9x770XNtvruzsw57x8zu1rJkrW210KG+X0+6qMzZ86c8vyeKrTWmgABAgQIECBAgAABAgQ4FqTJKuTx7UWAAAECBAgQIECAAAECtCEgIAECBAgQIECAAAECBOgxBAQkQIAAAQIECBAgQIAAPYaAgAQIECBAgAABAgQIEKDHEBCQAAECBAgQIECAAAEC9BgCAhIgQIAAAQIECBAgQIAeQ0BAAgQIECBAgAABAgQI0GMICEiAAAECBAgQIECAAAF6DAEBCRAgQIAAAQIECBAgQI/BTLdiYZcQgFaoeBPx5gbsaBRUDIFqd5FEtPs3wzRpOLCfpqZmykaNorX+IPUNDViWiZCSwgEDULaD6zi4jtvuf/Uxd/r4IOhVgAABPpYQ3V/S4wi2vgCp6I1z9EOASHNdBMsnAAgQklB2DkYkB2lGEGYEz3Zx7PYLoZU++nmmwY03Em+oxW06gBtrwdAKQ+j2JEGLQya9BrRWIAVWKIxr2zi2jdIaywphZeeglYt2bJTtkroceiUByeDmpgkWf29FuksunXeYTlsn8lwQZPbMV91fEuBDQCbf84k83wNkHoGLRuaRDgHRvZSsBWdAZpHO+lKAI0EZIUI5+URyCzGyizwicoybdfcEJHUipnIKO0a88QDxhhqINmIKG6lsQKN1+yNJd2IB8QiI16AQArRHWrTWGIaJCIdAKbSjQLW3gPQ2ZPrQVBld/MGSzSSE7l7Y0qS3gWeyrd4IQfratu5wIo/DxwGZes+IzO2lAjgG9Vr7tjLYrwDpI1jymYdMh4Ac/24cFTIrGwXoTgbR/mclNEpKkGGkGcLIKSBSNNgjIULgUZkj3yTTICCprAMQAm07xPbvIV5fhaViCO0gtEtC2E006dMLNGB04FqpN9Va+4Mg0GiklEhDorVGu4cK0L1xcagM9kqLYOPttUj3NafzAjPZVm9EphfqiToOH3H06tecSTYToMehk58CZAodlcGdoXcOuc4YARFecx97iJTPXUMjJCAEUnhyvINA5haQ1W8YIpwLWBwNATEP37NOWtMubrSeWGMdhooicfCIR9eadglourZiiJTn97RWCuWeWPMjk6biE+m5P45Ix2rxYbTV26DJ3Lo4kcfho45eLZv36s4F6BaB2TPjEGnspr1x1DXpWW8CpA/PV6nrQU1494iEhcOHgcJpOkCrMMkeMAJMK2GfOKLDumsC0ikUOtZCtH4fwmnExAFc38596JRt54QlBEfqDiTaN9LWWi+chCKTK7Y3rv4AHkQa7iZpvr+0FusJPBdEOmOVdmMZaidAgAAnDETGNpAACZyoQyoI+OjxwOHng0AIgRAajWgLmwAsrbwwjKz9hPL6I6RvBTkCHAEB0SAUsZYD2M0HiWgH4Vs19GFvmvp0mdGHZlTYzxB6pdsAOrNO+EFIYFpId8jTmjMn6GHRNXQXGpeOcWMd/vqRG4cAnUFDGgujqznUSVsfeWQ61UNvg/pIP92HgUx6B/c0MjYXAnkG6H48k3F0ooPjntagQdoOsf1VmOFcZJaZRovt0TUB6WhP0QLtxIg31mGqOEKo1H50Fave7kE+ysjkgj08oetw18NeeoT2sO6aCgC6e+EnbS2N7mwDbJ/SQCN6J+NOE50Rh/a/Eh2+do70BNMAHw+I9MzgH4v50tN5w3paaEuHagY4MqQzor108WRsMoiMPuGJOkfT7rdWPiVIjJr3n4YAZcfQru3tyUc4qIe3gCSYhf81HmtFtTYS9juitRd83RZE3iYodOzHR910lkkNbfsX3fU13iIKElf2KLqIszo6qteZ62KHVk7wddPZutfJzT9Ve9u59UMmNxYvS94JPhwBMoVgInxMELzozKP9GZPYow+VYTI19pl7h5mUdDJFbT8W0leKjJ+U7wV+ekBNvLWVrNzCI272CFywBFqpdmQjqavvEET+cURmCZboVDTt6lq/B938PUBm0Pl4Kg1SCl8xm/r2Drc9fQzfjTQxTMvzJRUCgfRHyEtVAWBIw/u7zz6EVmg3jmvbfEy2+wDdQJ/AVsETG4cZdw0anVGLrUg0HODY4QspuovYvNTfZ1SeySxryBgy1a2PzezsxMAh0CjlEm9tISvjFpBOOoDWgetcD0D7Quzho2sS1xxO/x4c1JmFoOMCEEJgGBLDMFDKT0WtFK7rIsThFsvHq0aLEIIWF+bNe5UdO3ZgmgYgQHmqjFAo7GtXBLbjJIfZiceZMXUyp0wej23HP9RnCNBL0FWGkgA9gA7jnqznleI+fOQZOTuHzrSzzMcYSYf+xPc9dd/eKaL3zl71YqQ4LHQksfooM0N1T0B0e02uEKJt8ibvmY4bkHFUHfw4I10S4qU7lXzcBNrMI3Wud+Iapdu0e0JIDNPENA0aGhrYvXs3i95fhNZw0slTGDJkKIWFBSjl4jgOWh1BZPpHeGd0XM3a9ZtYu3YNoVAIrQWmFcIwLDZu2ITj2FRWVqK0i+u6aMCxY5QNLUbIib7r5xEMkPCzeECHcQ2EmkzieE5Z4e9yOhn7kbjbR3ih9DJ4W58ngUh/D0wuwxSLh4FXB+wolKFdIIgByRQ8j5mETKF8fbJO+SsfsxpkGdKka33CkmR9zImKvPPVC7048jHovhBh25VE66uJ7l5HRCqEdpPHQvcHQWAyORJopD+uHkQn09sb9c6u6UhCMjf2H4+DQCC0RmqBFn7lVa1BK4QUhKwQSElza5yt27bzwZKlbN64CVcpRowcQU5ONlu3bQU0xYMGMmH8OEaPriA3JxvQxKJxtFLeIZ5YeimHtRC6nYCtxUcry40WFi3RVpR2EMLACuXSEnV46PGneOiRf3H1VVdw7pxPMHhQIVJKbNtGaAfLgEjITC/4OAXCtIg5DtqO+xFTBlqLEzmuv1fieCo5lVAoARErgtQCsCFZVyp4kT0GaeAKjRO3Ea6L0AItDNyOZ0zwSnolvJPEq9mmgexQGFfFQEqgbW/1JIlAmZk2Mka2M43uZb8jJSBtscki+eG4JvHsfhSVjobDenx00l76BARi9fuI7l5LSHoC2cdFJO0OiTIomRuNQ6dzatguHEpAEtccSkIyR0AyWe29tyE5vlp7lWITm7EUGKaBYYVwlcvyFetYvWYdS5auIGRKxo2rZMy4SipHjyIcCgEaRym279zJmnVrWb5sFa2tLVSMGsWkieOorBxDdlY2rh0Hx0G7tn8oeEi4MLT54H7ECIivQTUtCzOSzeZtu7n9d39hzbqNxLRkfOUYWuobKCzI5ktfuIHK0SOwYzFcOwbaQaC7TdAA3usLWSbPzH2Df734JvnZWQjtkfvAfSfzOJ6j6UpojcUZOnAQt/7HV3DsVrR2euDOARIQQtLQ3MwvfvtnYi02YSmQSBQSt8N6zOgpEbzejEH4grKQULe/nq9/6TqmTBiJ4zqAmTzf21y6e995LzJY2lb0xoJyGcXhx0r7zKmjHNkZ2hSknREQg3h2/6MiIEcWAyLwqpQrnSIIfNRfYvcQonOnnaNFZyOq220OXf1fwrzaFtCrM9qzjyZSx1Qj0FJiWRZGKERLczNbt+3ijfkLWLthG1LYjK0cyy03fZay4SWETRNXuZ6rVazFC5EyBOUlQygfPowLzjuXvXv3svD9Zbz40jwefuRpxowewWnTpzG0eCCFBfko18Vx4ijX7cSM+dF6d8KQRHLyqK9v4tGHH+Tuvz3EoOJB/PyXP+Wuex/GcVz+7Ztf4Lbf/4kbbvkGl15yPjdddzUD+ubhRJ3ub9DuZoKdO7ZzycXnMXPGdNx4DC1ksGMdBxzPMVWGwYGGFv70l/txlYMWqXvaR2t99FYIQ9LY3IxA8Z8/+g6GVv4pY7TPTSfaRNdMzAlPnAlWbKbgxdpFuO/hp9hbW8dUcxSO297NLT2vlp5HRld673u8DwFt8nt3w3HYsU9qxY93EDr4Pc2wzel4TYYePJvSsmKl3R/RJSvtjk4kfKUTZWP0x9CU2tUYdSRvmjZahxBYVgTTMqlvbGD9tk0sfO99tm/dStyRjBxZxuduuprBxQPIy/UsGFor4nY8JbDPa0dr7REKx9MYFA/oz+WXXkBzyxyqqmtYtWIlzzzzHE48SnFxMSefNIURI8rIzc0DKYnFYp7LF115QHf2dL1/RxVC0BKN89ATD/Hci/PYunUHn73mCq6+6jL6FfXFdW1wbU4+aQJ3/v6XPPf8y9z79wd5a/7bfO2L13P+WbNQ7pGREMMwKCoooCgvh3hckBjVbmu5pPtMR3h9Om119lMbeud77rpXIq2rOmst8ZaUNEBDWJJcF0FC5h5Cio5RIMjJyqIwPx+cGFIotO7aQpuJkydw3s4cErQiEskiL5KFoTVSSHRSWuha7jg2ZG6tpp7tybP7aNpPU/N/4sJXRmt1mNPuWJ//2GPxjiILFkiR2Yl6vI6Snpxe6dgZ0rX4JcXipCdQW/BzahOdCdTe7z0ScqIf0en0//BDmjAmp8bK4P9GIKSBZYVwlSZuu6xZtYY169axdt0alHYZP24sl1x6KSNGDCcrKwyO44X6O7YXFpIoJNiBfSZKFYqEmVc5OHGXsCkpGzqEsqGDOf+8s9m5czcbNm7ixZdfoaW1hbLh5VSOG0tl5RjycnKRKFzX8YRu3RYbIjqNC+n9m6kQgsbGRl55/Q3KK0byo1v/D5UVFRgGSA3DBw/CQCFQZIdMrr7yMk459RTuuesvrFq+knPnnI6UMplpLF1opXFdhdKKtgOr+/FKa0R1ypdjWHCiw7Ha1b07X9XHFkR4eKTtoXvMSLShtPISB2hACAylkcpGaoUX+5He6XOi73+9Ap0MtFIuKBuSBKR9gpmkq0+PdDBAukjufI6NE4sj6APaAJwUieFoFAY9hTbJRhoGGBaOq9FKdeFW290M/CjOUE/yMAyBFBptx7waAUiUaCuinJDgj34EUmWqo1cHHREBSd5SHPKbo4aQEimll65UiG7SlnaPD2vJpCPup18hu71xTCkX11bJY9ebToc+aXvvHe/v8kReZGkwto7xAG2ZcjosDAFagpQGUgiEYdLY2MzGtetYtWotGzZswrIsRpQP5/LPXEJJ6WByIhFMw0I5LtqxQXnBsMlYm2TcjyD1S5t+NqGB8LqkAde1EYAUkuHDSyktG86sOXPYs2sXq9es4c035/P8c88zfPhwJk0cz4jyMvr27Ytr2ziO4wnfohPLSG87KzqBUorCokJ+e9tP2bptDw89+DC4CqUUQkj2H2gAofje9/4TtEKZFiVlpXzpCzdRmB1CCnHE5APooDJT/h6TxtzqMP90JwtYd/lDh7b8bFyHR0pkl59J6NCGZBftHPkEEBrQbmd/SY5ZuvU2Oq0r0OEBPANhN+1pf9y1PxJ+vsfEWhZaoVX66q8TePfrVRDaUxKglb8u/BQ0AmQnazJT29EJsK2dOPC1JEopDjbUM2xIXzqGAB+f9ZKZt5jIxCYti737almzfj3r1q+ntrYGKRNyo+jwcfz75e1LvWOmajThcIRBgwYwbuwYJk0Yh2lKHEclQybaapX522s60qv/fJ1loNQahNQgFEea7fYIXbDafAOPNYuMRmCGLJpaWli/aTMbN25k375qpDAypLvvYR1MGhNQi/SmvNDei87JyWFoyVAqRpQzvGQIoHEPI4AFETkJ0pGYpxqhJdIwMCwLbRgcqK9n9549LPpgKbv37EWiKC8t4+orL2PQgAH0LeiDpxFycFQcx7ETxkx/zreRjbRmmE+oD7lWK5QLoAlJSdmwEkaWD6e5qZHq6lqWrVrNK6+9ztx5mry8XE6dPo3hZeUUFBZgSo0Tj6JTrCIZroR53GBIQf+iIt58axmPPv4Sn73ik5imiatg8JBcNArcOKaQbN2zl2WrVnPOzBkUFvcnZkc56hmuvSQKicMiHS7QyVbLIY5S6efwSGOPaEdnO7d1KIWQmcg65Pnw+yykrf3kfPLUHCD9zT7BSDq5p08Yustnkg758A5I5ZEVDVrIpGb2+KTWCHBk6NoxNEAvh7/8lGj7SAgN6ST2+LAhJRhGiDffXshTzzzL8NJSJkyopHjgTJRWWFYIIWRbyvvDPlP7fe9Y0Nusfc3NLezYtZO58+bx9tsLuP6aKyjMz/NityUdYuiOFonxE8nUzkfT5pHHgBwjEizWClls2LyVu/96L5HsCGPHjuOkyZNTDpajnxwCkRTIemxipCEApuOmoUlsDILW1lZ27drJgrfnM6FyDBd/+mIsy8J1O9NaeghICOBnOrIsCykkrdE4y1euYPnKVWzYvAUzZDJx/HguufB8RpaVkh0Jo10HpTTKjqOEQkidIgj6FbtTPXgyAa3RuElh17ZdIpEQpWUllJWXEYvZ7Nq9m1WrVzL35VdojUYpKy1lwvhxTBxXSVZWNtIwiMdjuK5zQqSWFVr5QfcO2QVF/Md3vkVedtizEiNRWiGFwjAtXn9nAb/7090orXCUQ6aKC3TqwKZpIwhHNJDdTwiZoMQ+YQxZJkppL8WwEJimgWEaOLaNTiFHms6sIJ4GU7azhHTtsKUPQ7Z0sqaGTv1l27fgu4FqpPQ0W7YTBwSRSBilPOtV5o7yAAEC9BROpHWrlCIUirBuw0aee/5FrrrySqZNmYTABhRaawxpJLfjniQFmRDnMwoNkyaOZc6Zs3n44Sf4xz8f5CtfuIWQaaXpvHqEN0t8HMUg9DgBAY1pmuytqubOv9zD7NmzOffsMwlbFlJ0bso/0vaFL8z0ZAHOdC1w3SoBfSuJwlt0QkoO7N/Pgw88yIMPPMjnbr6JrumHf49EW13dI72ufqjoVkHdiawopUQaJlYoi5bmZpauXM+KlctYtWI92RGD8ePHc8NVV1FeMYKwKRDKxnZc7Fg0pVFv/miVILAJSqzbW0Ay8oxeugCPuyZMnKBdB1wHS0J52VBGlpfgXHA+u3bvZsWKlbzy8jyeevx5KiqGM2nSZCorK8jL64Njx3FdF6WOMFvUhwAtBNp3S5ISn3XjFzkTGEKQCDg+3swqQT402nPP0iQ3Is89VHRwo1OJh0Aahu/mKJIHUaqRwPNa8a7PzooQi8fZtXsPWVnZ9O/fF7SgqamB6poqBg0a6FeH9/9fSCJZYey4916lNEjNcJdwV1WduFEZ0sCKhIm1RtG6M6upJByyEJYBSatqwvVKgJS48Ti2bSOlpLGhHiElefn5xKIxtm3dQWFRIbm52T4v1MmCVEdbFTdAgAABOoOUBo5SzH3tNc4+axYzpk0mHmv19hrftVO7XnxYmwdpz+1DvYaA6DaKkR2yuPrqK/jNb/7Auo1bmTRhDK7r9ipFZc8SEO0dmkqaPPvCS5wy7WQ+85mLiTY24tox3AzNF5Fiaug5C0h69+r2EQVtTkTaO9T7FhVy3XWf5fbbf8uqtRsYP3YMbvxQdxSdJu/v7Qb01FAp4ZsHPAeMlH4nPKGkiWmGkKZFQ0MD27dv5635C9m+axfhkMHIiuF87as3M3BAf7LCYVxXoZWDHXeTi7WtwHmq80tX45hBfYfvk5nqcpgQdJM+1q7ys2lJykqGMqKslE+edx61dftZumQZL730Ek889RTFg4cwe9ZMhpeX0SevD7gOrm3jOm4KIz00NYEWHev5HF/dUVvrAjceY+XajeSErWT1ZL9XhEyLrdv3AiY6QdKOqlspfgb+fNKJOaXbrvCpJ45ShLIiKMdFKU1zq01zU4uXoUtKcnKy6JObg/DNYXX1MVpa45imScg0iNtxDNMEBLYdxzQNCvJy0K7Ns08/y8zZZ/DH+59kwuiRTJ5QSU1tFVbI4o4/3MEffnsbBX3yvCBsKbBtxd1/vo9Zn5jB2MoxHGhsprEl6r1T7SVRyO+TS26WSTiSjWFI0A6YBtu27eCRx5/lluuvpN/A/mDbJKwndqwVVwmeev51lqzaSE5uH8+VTLTNv4MN9Vx96bmMqxyJlJL3Fi3locee5xf/77+IWAY/+X938MWbr+K006ZiuzG0UF6GsURqdg2JSp5SKNASoWWSxAlpePED2hcaEm8+IC8BAgTwkTibTdNg8/ZdNLa0cvLJk4lFW3yFEX58HbS5iaZbIDsz6K1eJ67r0ic3i+mnnsIHSxYzYXyFf+gd+/me+ryKo89416MERACGabBrXzVVNTVccP45xJubkhrCtP0QuzmkEoGT6RVYyYywlagF0h26u0ak+J4LP6VrPBajqKiQGafNYNHiJYwfW+mL6IrUcPQ2Qbrb3qZz0YcH3/dDJK1ZKklJlJ+oIBQKoYHWaJzVa9fw/qLF7Nq1l3hMMe2kyZw153RKSgYSjpg4joPQCtuOt7sFqS4s7Qrs9DQ6ZJHwJ1OSLiR8d1UiYFszoH8RF154LmefPYt9VTWsWruep/71HFG7lZKSEiZPGs/EsWPJyclFAPFYDKW9msXttUMdZ2QPGJS1J4BW1+3nD3fciRuLo3VboUuhwTQk9c2NKJlwYDqWPrX5q3o/dr4KpTT41e13MKC4mBuuvQqtNf/3f35NS3095aVDqdp/gFWrV3PH7/6HcaNHsmHTFv7j1l8zceIkqqv2sr+6hqmnnMLqtWtpaW7hlOnTWfDOAs458zRuvvEalq1ax976RmR2Ltt27WXxkqVc8Mnz2bJlFzlFg5ChbOIuOLZLTp8+vDl/Pu+8v5yLPnUxDc2t3PSl71FWVkLfgjyEgK3bdqKE4vZf/Iy33lvI1s0bMKTGDIXZsm0n9z/6LHv21DB54hhisWaUqykvLWHOzBkIJO8uWsWyNRuYftJkXOXNQSkg7sDzc19n0vgxjB49GgM4++zzWb1hD3ff+yhf/uKN2C7kFQ7AiOQiTBMtXFytids2AOFQGCfqemoDbaMRGNLEMsM0trTiKIUUkB3SSc7ip5ZLUR31xmM9QIAAPYXEsSyE4ODBg2RlZdO3MB/bdkArZIqUJ9p93xvR871yHZfS0hKWfLAQ5doIaWWs7eTufAyP1fMuWEKwv66OkGkyaEB/lNPefSA9+fnwV6mkBrn7azNmj9LdkxmdZOaHuSaRfrLD/zmOQ0XFSJau+JfnUvERPp+F75KktQsk3HQE0gqhMGhubmbJyqWsX7eRDes3kZWdRWXlGGbOmM6woSWEIxFPO4KL47rexnSYseptAXipbkddBTkrpYjH40gpGTp0CCVDh3L2mbPZtnMPa9Zv4K13FvLSC3MpG17GqIqRjK2spKAgH6FdlGOjXNcL9k25VwLHVwntker83Agzpp3Ej3/0fbLDZjKWIAHLNFmxcjXPvzwPS6bJ7tNAIq6hfXsatIsQBqeeOp1f/ur3DBwwiPPPOYe6g01843PXceq0SSxesZqvf2sZYCKMMLYNtoKpU8azYrmmuaGRaVNPZt++agQmM045hTWr1hCNxjl4sIHKyjHUNbawaeMWciyDkyeOo2+/Yua+Mp+mhhi3/+5PbNy4ibFjKrjp5pt45Y35XP3Za3n3/UXs3LaFFldxyy03MKlyBFIqnn3pVe594DEcFH+4514mTZjEebNOY+36jVRUjOcvd32K3Xt2snvXFj4xYzoLFizkgYefZ/bMUwmFLM/1zXXQWnmZ4RKjoR1QLqYZJhLOZfu2raxes5byslL2VVfz4tzX2VlVy7uLlrKveg+Oa6MF5BUUML5yNEiTtxcs5K677+f6a67gk+fNwnVcNIIPFi/lsUefIisnm6KiXD5//VX0ycn2LGDJGfKR3doCBAhw1NCEQqFkxivPBVUlXWTboztH9J5GT0altEGjMS3Lj+HrXXIOfBgERHuZnLIiEUzTwnaix8HH2xM/02039aqjma4iqbXr5r+FVxfi8FcJ3/KR4pbjFwQJRyI4rsK2Hb/+7EdTV5hwPTNME8MwkabF/gN1bF69geXLl7Nly1by8gspHTaMK6+8nJLBAz23GD8YzVVxNJ42N+EN0hG9jXR0ho49TE2fl9p/5TggwBCS8rISSoeXclZ8NrVVNaxatYrFHyzhtVdfp7i4mAnjxzJ8eCmDBg5CuTaOE4dOYwSOE7TGjttMP3kilbeNZlC/vkjlKyFSLVJSU/CJaYwbO4a+hXlelfgMz/RUu4o0BEJqzjvvLIr6DQBh8PRzL9G6v4axFSNAS7KzssnNNlm/diNhK0Jzq83kygree3chGoO8giL+4/s/YsL4CQzoP5AXXnyFwsIihg4uoWpfHUpJ1qzZyLOvvMk5p04jJzefDxYtZtnSxfzXrT9k8JBibr7lK3ztq2cyd+4rVNfUYYVMXnrpZc6cNRPbXsLGTVuQysY0NNt37EG5Xi3qr958LQV5+WzftpX9tTX0HWDy7AvPMWf2LPbshtdff4NTT53BqVMnc7Chmap92xheXoqtNFroZI0UoSXShLPOmY2QglWr1+DGY1RXVSFCIQoL89iwZSdVtbU0x5rZuXcfJpJde6pY8P4H/O62X7Br917++dDTHGxsZfe+Wi8LHZLVa9Zzx5138s1vfYWR5WW4TpysSASlUiwfvtU3QIAAAbrD4U+EhNDf1fl2pLn0jvX86XlSpFNcm4+/yHPkN+hZAiK8iaDx3GgkXpBnd+kbU5Helb5onka7slPptKu7dh0XkAxePRx0St+6RcItzfukpOegrYVAae0H67a/oSRzmuLOkU7jHbTp7dybSAoah1qnPHcyIQwsy0QB9Q2N7NixkQ+WLmHP3n0IrRk7poJrrryCIUOH0ic3G5SnyXeVnazvkKz+nkgfetgMZf4zadHJ6+24YXjt6cRz+eisJkv3aHOGao+Om2V7zYlHOztc4wcjJwLYBZosQ1I2dDAjSofQ2trK3r372LhpE2+8/gavzVMUFBQwZcokRlaUU1RUiGmaOLaNcrvy6Oy4WR8Daf17svwAACAASURBVNGa7JBFTt8stNPqW/TaRyYJDRFLMHhAkefTq49n8JxEaYNXX36NDVt3UT6qEmmGuPPuv3Pr//k+RYOKse0oZeUj+NIXbmHL5i00NzWjkOT1yae5NY4rJMJyqG+OYVgWZjiE1or8ggKqqqupKC8j2hJFu5qTxo+ltq6GbVu3oFyH+gMHibXGycnOIZzdh9Ihg6jZt4fBAwbw3z/5OTdffwUXnn8Bf/r707z9zgI2bxmIZVqsXrsBgYllWOTl5fLEE48yZdpURowZyT1330M4K5fH9mzle9/5Bps3b+LVl59n1hmns2tvNW++9Q5NMbCycnCUQEgvoF7ZLgpBuE82q9dvZOfWjVx9+aVcd+3VuCiscJjHn3uVQa/N5+abricnOwupYMnSlaxYvYGQYTBx7Bh+/T8/5Te//SPSdTAA13V48ol/UTpsGOXDh+HEHQr69MVQsZRCYgECpAftJ6mwLAulwHEdBNJTQvl7pvDcEvy4I293kb7WIal88M9TSNnhtKe8VIBlhdDKwVWeAsQQEtMyicXitHed1X7GOP8c82+shdee9yWhRPnwJ/uJoIDLHLoiGl0TEJ2iEDFMC4TEsWNJRbOUBtKwsO14ly7CGjAsC4HESXH/9uZNz8WodO938+GhhwiI9t2P8LLbeN79yaWYKJDSpontenGks2w6uyb5ylNcW7qiAjqZAx8EbspVbXaOjkFOCXehwyPdadCh2JifLUhIiTQNhGkgtIvucG5rcTw12Ym4hMNe0YlwnHIk+ESgLeuTt3ANw0BaFq6raI3GWLVsGatXr2P79u2Ew2HGjR/PKdOnM6K0hEgo5LN6hXIdhPaCrL2wiQ4HiWq7h+hAQtp+FO2+pB4Quu2Uav+/h2weHQ+VdDYXLzC3I3SKJ6tIHKIkiHtXERrt3ZckGrSD67q4LpgmlJaWUFpWyqzZc9i7Zy/r12/g3XcX8q/nnmfYsGGMHzeWyZMmkJfXBwE4joOTdI9s60PqE3f/nIcetp4RR4G2UdrxfHiFH3/Q7ho/G5kQR+AS1tYfb/l4AfZC+RXpXU1q3YvEd1IASlBePpK1m3fz8MOP84Mf/JDLL/8M++sbeeiJp1FaYQqIZOdw7rlnUzlmFMIwePypuTz25DOMHDWacCjCyVMmkZ2bi0JRX19PczTGN37+Y1YvX8qBA/Vc8ulLCM97hdNPm8qGNSupKK8kP7cPu3ftJScvl8EDB9KvX1+uvPxysvr0JSe3D5ddegluPErYsrjh+huZNLkS0zR59vl5/O1vfwchKBkyhKuvv56FS5fz5AMPc83Vl3PlZZfxz/sf5uf/cztf/9oX+OIXbkGjGDZkCCMrxnD7nX9l775aBg8qpu7gQXbt2cO4USNBClatWcPnr72Ci885g1hLI9FYCxpwXJulHyzktFMn84/7/8HEiZM4c+bpKNcl27dq98nJwgxnoRQoJZDaQNutbNiyG4MYf73rb2zaupsxlRP51heuSrpIepZebyYkEom0va4EYU+viGTm0XMCQ+J2PSki+sN9QkDjbe2GNFm7cTuRnBxKigeiHBdhGJhGGJRCCBfXdy+043GS0ysBIbBCXjpp13U9Iqy1l03RtECbrFq/kb4F2QwcUozQktp91azfsIFTpk7xkz5oFBpDmkgByo2jNJghy6tpJkUiuaJncT4khX4Pzys0hhTk5+f7ZEnT833orFeHIt3pmOqmfGRT+HDKPk8mNQyLnbtraW5pZOSIUm/iCaiurWPPvhrGVo72zi3tlZYwDC+LoasVpmmxcctOGhqbmTp5PEq5aOUiUCjX9tOwH1GH04RIrmcpPVc1nUx4o9GpJ+2HbG3uAQLSNsGFSIioHdyjdKpgkPk3IvzAZUVKzUfRuS5C+ZqOUCgLtCJuN/v9MjBNE8sK0dra0sWdMvUyOy4MLwuQ8g9qpPDSxIqEaN8z0J36Wqb8XXfSG78OQZvA6n82JKYVwjIt9tfVsWHzNpYvX87adZvoW5TLmFFjOfPMORQPGkQoZKG1Qrs2ynWS7SQtKQkT4xGPv0+Ek4UXEoU+/L9KP2dSu0WaqMqc+rsjq/55REgVRDoz0rT9qcNPbdYbrYV3wKJAC4YMHcqw0lLOPGsO1XU1LF2yjIXvLeKZZ+ZSWjaYSVOmMLqinIGDBqGUwrGjKMcmdX6nN+sOXc/tNYa63e9S6DxJOukXpet4RdrQbV9Fh/FLva/Sisoxo9ixt5ZVazZQPGgQQil+87s7+ObXb8EULs3NLfz+nj9y07VXMnZ0OSjF3r372L2nmpEjRxKxTEaUD0fhIhBEo1E2b9+JHW+lfMQIsvsW86s/3IkTa6G0tJQxFeWUl5Qwb97rvPXu++yu3kvxwHwKivqydvVqbv3Z/zJq+Eju+P1dnHzSBCwzzMrV64nGoiBg5ZoNKGlRX9/MgkUrePDJZ1i5eh03X3cFFWMmsnzVOiZMPpm6A01844f/zanTJnDphWeSn5NFdk42e/bspr6+mZLiwTQ1NbF1+3YqK8oRSrBjxy72Ve1BCM/aqhCEQ2G2bN3K0sVL+OEPv019QyO/+93vyQ5FaG2NIqTANE2U66CU479FiVYCrSQxx+WUyRP4wfe+zdLlq/nerT/j3NMnM27sKJTrdqkQChAgFRqDUChMKDeXeW88zpqNW7jnzl+h4zbVNbXs3L0T13HYsX0LCxd8wGevuYyTpk/xMsEJcGwHQwpEdjb33HE3Q4cWc/7FnwInTrSllXjc5u57/sHFl17CPx56nJMnj6VPXj52LEpRXgG33X4Xjz1yL8KQoLzEHo2tMf5819+48vKLGFZaxvotO6hvbEa7Ctf16hoNHFDEkAEFR3FOZRYCsCyTtn22s3M7c5JYujVyj4WEZAapng4ahIGrJLf99o8MHjKQH/3wux7ZMQy2r1zNPx94lF/f9kuyw2G0hrXrN3HgQD1SShzXxrRCPPjYs1TX7Offv/llXCeO69gYOAzom8vgIcUcP/fnpHREUmV6GPnhw0KPWEBSh6JrHJ9FKYQkFo/R0hJFixChcBjHdr1Ul0IgDRNTCmLxGEJDTm6ErHAW8+a+AUIx58wZuNrFsrLYvGknL7z8KjffeBlZYSv5ZB3ro6X66mcCSY246Lh19fTybHvW9E24ntlESK84oGl5KXPrm5pZvXYdb85/l9raGkIhk/FjR/Odb36JwqICIuEszzfcVSg75ps4OtPUpDe7Ou2WEGgktus1b0kDtPILr0kc5WJrTdgwvGcwJeFwCKFBuQ6xWOy4vYFEH8KRMNKQaKWIRqPtGVda6NBDoVAqjvLrbgzu14+hF5zHeWefTd3BRpYsX8a8197m6Weeo1//YmafcSpjR1dQmJ8NQDwe91IZJ7QpOpECMfPrVx9xu0c5F/Dev+u6yWBo05Bc9ZmLee2N+RTm5XPhZZ/i4b/dx+DiQZx/wfneQRKKILTGDIcQoQhIw1urwp/voSxMITGFQXXNbn7+279Q19DEeWfO4fkXX+XVefP4w//+hOnTT+GfTzzL2wvf53e/+C8c2yEac7jyM5dy4QXnMaJkEE0NB2i94++sWrmKA9X7QAo2rN+IqRR1+/axe/cuZn1iBvX76wibJgvfedcjbwj65GaTU9iXyvFj2bJ1O0OLB1BYNJKsrAjhHIG2wshIFkY4jLYiIAV5BfmeNUx6DoZCSIRp8cjjT1NeNozpJ0/GCoVorG9k7ssvM3LkGExTEApJtPDGUAnQhgBpIA1J2JBkR7IwQmGGlZbSr7CQhoZGpDBQx+LSFyCj0Bqk7GC57DZ2sWcgEBjC4M033uGdpeuoPdDAopXr+dFPfkPxgH60Nh7grfeWMOOUaQwbXMg3vvVVYrEot93+F6KupiUaZdb0Keyq2k99YxNPPjWPkqHFLN9aS9iAa6+8hIK8fBwlePL51wln92Hz5h00NzXx6YsvYuOWHZRXTqCpOYqQBsqJ079fX+a9+Drb9uylaOBQDjZF+d6PfsaYyokMHdgfAaxatxHbjvGnX9+KKT/cOKd07/xhvu+EJUG5ru9u3lNok7XCkQjzFyxm546dfPe732TF6vU8+cxczHCY7Tt3sWTdDn7+23uIWAYRQxIKWzTHlVc7Co1pGGzbtYfWaIy33n0f1/HdtZTDhDHDKB48CHlcY958+RSdNgk8Nhz5c3wIhQh7FoYhWbtmDXNfeQdHGSxftY7BA/vTv38/hCGpqa1h27YdTJkyBcs0uOn6KymrGMCCBe8xpnIUkewsYnYM08rhr/c9gmWZRCLZmKZGK0+7kUoLMk0+OoPS/otLyOQ9BAFYIcvT6qj0BAYhDKxwFghBQ1Mj61YtZ+mSZezZXYVWBlNPmcKFF5xL6dD+mIb0qrxrryJ5212FZxTK4CISvjuHMMI88M8HcJXiy1+4HjvqFTeSQjD3lVd5452F/OzWH9CnTy5V++t55clncewYg4cUc/rMT3gWWcfx3Hgy2EHDMFBa88LLc6mp3c/gwcV84rTTvM1YO0ehRet4vfez7TjgOF69mYJczjtzDueeOYtde/exdu065s19lacee4LSYUOYPHkikyZNIicnG1NKHMfGcRIWqeOlv0rVSh0ehpRpz8tUJNx9pJSeO6CUbNq8mYH9ivjWl2/k93f9lSXLlrJj+1a+8+1vMqBfP+xYM1mhEKFwCOE6mFqjlfdetNBIJNKJgdZYlsnECeMpGzyQrHCYz994LS8+/xwbBw1g+PAy8vLyiWRl09waZ+TIcuLxOOUVo/j6yNG8Nf9tVixZSFnJEPKywnz+usuoHF8JUjP3pdf469/uZ/Sock46dSqvvL6ALWtK+Pev3YhlWN6DSRARixUbNtOvqIBrPn0OdizO2wsWMqR4MFmRKHY0irbjKMdBxeKEw5JZ00+mrq6WtevWMaa8HCMc4qFHn+Gd95fx6/+5FUNpVNzhys9cQjzu8Lf7HiLW2oJlgtIOtnJxNMQdja1djHCIc8+cySuvz6ehsYkVK1cRa25mePnwI4oBDHD8IQTEojGyc7IRQnjZ9gSeFfpD7pvGI0ejRlVwz/2PcsacM/n6Vz7PL//3NgYP7EckO5cp40bx7a/fhFZeGuhY3OGCC85jwaKlPPjIYxQVFFBVXYurwNGChqY4mzbv4N0F7xGNRjn9tKkUFBXQ0OKwZNUGigtzmDRuFEqYLFy0lFjU5g933MOixcuYddpUrrr6Mha8+x5f/trX+Nv9j1O7bw+FBXl86eZrqKgYAVLwyotzeejx55Jxir0d4kjjsw+DI1neCVfzg/UHyc/PJ5wVIR6L9fCIeTEeDU1NPPLYk1x08SdZvWoNS5Yv5/KrrkRKk+XLlnPwwH4uPP8csixPcTlk6BDy8/JwtQLXJRwJYcdj7N/fwLe+cguO3YKUYEmN48Sx4/EuisR+fPCRJyC27TB+/ETGTzyJWEzxw5/9mosvOJszZs7ACBm8+PIrPPzo43z7u18nbJk01zcw9/mX2LhpO/0GDeLNt99ldOUoamtq2bF3L7/99c/5YNkKFi18l8/fcjMR0/QqTwuOG5MVvi+0UJ4HtMS/V6Zu167fHWMi8N1XBHHbYc2mLQwYMJDi/v1Rjo2rHC+zl/aqentWJQPDMNFoDtY3sXb5WtZv3MD6DRvo378v5aVlnDV7NkOHDsY0DC/SQTu4jo0X/+Jt0qIDmdMdTU1H8oi+O5AnZJpoIXEcT4/f1BKlsSnqWZiEwDBDmJbFwYYY1TXNWJEstu7Yw11/+Sulw8sYPHgAa9asJ7+wL5MmTEDiBScqV3nBisIjEFp7WhCtFI6bWvBPYFohDOkVrnN9Mz4p8R/h7Gz+8Ps/s2z5Ss7/5Nk89MgT7Nlbx7XXXIUTayJTLz/pVqc1aM91BqkpKe7PsOIBnHnGqezdW8PKFWv4YNESXnzhZYYMHcK4ceMYO24s/foVgXZxHQflJnxKdbJKd9JqljBOdGPV0D4ZEMmCOKmOWd7LT7hytrl2ShzXpaq2hgED+mGZEtd2wHe97G7SaOGRei0EtmPz6luL2LFzNz/58X9SWlaKaYT49Z0PcMn5pzNo8CCsSISW1mbmz3+LVWvXYcejxKLNKQ+pkYbEtaMcPHiQV994k4njx/L9f/82f3/wEc751CU07N/Pnb/9X/r2H8Df7/s7TQerGT96BH/96z/44Y9+wGOPPsbyJcsZO34CroJFi5dSd+AgCxe+T03VboSAxR8sprq6lqWrVzL1lOlIYOeuXbz22qtEzCw0Ci01hiWpqqoiJ2QgtcPWzZt5/4NlVB9oQhD2qgzHWoi3tuLEWzGkBFuxZXMNiyIhhpcMY+6L87jvvn/y7z/4LqMrynFirWzeupl9NTWA4t0FbzF16klkZ0VY8O57zH1tPnt376K2ei+/+001N15/LVdfcSmbtu3kv378E0KWxXe/81UGDByIcuPeO01uPe21glq0UVzlz9njpnlJTQfc7jZtbirp1nw6pOkOP7e5VnZ0R+7EGS3VAtGFskO0b9VfPrpba3XSou2vOSkN5i2Yz4bNWzjnzDMpH17mEW3D8CxhpI5Gz4qGAlBOnJraKgYMGsDrb7wJQrNl6zbOOnM2O7bvQhshlGEiTQOpFLnhCLFtu3nzzTf5xle/woiKUWzatImsSA7rNm6jYtQoJk2cyIYNm8jKyiErO4cBAwfy9rNzefPdDzjvjGkMGVbK6jUbWbtyA3++43/JL8rj81/8GueceyZPPvU89Y2tbNiwnrffeYdvfflz/PaOu5j/1gL2bd+OIRRLlixHI30/mF5AQAQIYSKliZQu8pApkjllmkjjeROB0sJXIj3z7Ivsb2zkwgsuYMTwMsxQBC/f3+FT6mcKlmXw0KNPsXDxCk6dOYOXX3mFM2bNoqmpkZbGRmqq9tF08CB1NXsIGwb9+w2kMK+Q++9/gPlvvcmQIUMwTMk7i5YTizn85Kf/jdAO1dVVzD5jBp/59IUfWjRbb8JHlIAkvPS1J2CZntCZyGgQCplkhw2EZWGGIwgrQsQyCYctaqMx3l+6gurGBupjNv9921+47NKL2bhxGydNPYnG1ihR2+SNd5czaOgbXPWpT+I6dvLAPC7ZJTQYSiKUt2lYVhjptAX2Jz/5h0PKMIBIZJ3Sh3XGTPRb+DERKjUWAoEhDVxD8+TLb1NzsIHZp53CKZMrGTZoANKx0UphmF79jbr9+9m8dTtLly5j5+695BcUMKJ8ODd+9loGDx5ETnbEi7XRCq1cfxEmpNP2gkdyALpcqp1F8hwyfGgNZijE/voGqmpqCYVzGD5sKIaBtwoEuEgcI8KOPXtBK6LawNUShcmv/3AfFRXD+eLnrkVpRWtrFK0VhoSdO6pobYnRt7CIvv3yidoxDjTWYxkm+/btJS+vgMHFxbh2DIBwKIvX3nyP/QcOcuZZp1NY1Ac7FgPXyypgGgY7d1Xx9Avz+cmt/8bMmaeQbYV55OkX+dRF59MnYnAUiv5DYiC8sfHGVaWMsdTCS+2Ll9q3ZMhghg0dQjR6OnV1+1m9di0LFy/jpdfm069vAdOmTmbE8OEUDxyCIQSu6/gqNO9uKmVNeCU9VPJ1etVs/RmgtVdokbYUyqnvsK02Cu1mp5SShmgjd9z7ACXDhnHW7E8wsmQwZiiM7jCnOoMGlNQ4aFqam/nE9CmMGz2aN9+Yz7JVazhj5gz+7Vtf5rlnn+M///NWpk+fxoxTZ7Bm4xYqRw9n7JhyIpFwW4+UN6rlJQOZPL6Sqqoq1oUsauveY+PqZZw9czqF+X1Yu3o5y5cvZcFb8/n+9/6d4oGD+Pkvf8Wf//QXLr7wXE6fOoW8vn2pqq7htTfe4rNXXkxrtJV1G7aChvw+BVxy0XnU1hxA2Q7ZYYOwZbJ5204Mw0rWHZKGxJIOYcPLcNbc2kJRUT8K+w4kURm3rLQ/p5w8juyscFuGPaWQSOa98hrPPfMs3/vO1znjlKk40SYMaVBVXcOWbdvQuFx80bmcNWcOjuMyacJERpSPQEpPa47W5OVmYVmSH3/vKzQ0NBGKhCnIz/OCdqVIrnWt9CGCtBKghOdGoAyNdjWJnS6xa3gf7dW2urOf/H9IbJlSSt+1tW2maJXYy0myDZkg0f7+qCW4gg5xcalz7TB7kt+H5J4rZDL+xeuHn6DFV2pprVBK+0TM71vyev+eOnGtSGZ90sq/3r+PVr6/v//wWutk+54vuvdVGBH2Ry1eeW8dSzfu4+TxYzj9tFPICodRSiTHx7v1cRahOp6nQqBsl127qxhbOZahJa3U1Ozn0xdfhMCgMRrl/YWL+cWv/0hz0wFysyIMLytl7Ybt7NtXy4IF76K1pqaujoMHm6iuqyWyM4RpSeJOjNNnTmdocSHPvPg8kUiYGSdPobWllaWL30c7AtdppraumqzcCDl9cujbtx+Tpk2hRUr++Me7+eF3v8qp06YSjyl27KlDaIkpNDv21OCoD9uClHhvAkdBfXOMmvpW4rEYHVcL9JyDt0hIKMLLXxmzFdWt8MbizSzbej9Txozk/LPmEFUSpbwzQqdBrI8WWmtcVzFmdAXXXHMpd91zHxeddx5nnHEGr77+Ki3NLYTCFhecdzZ7du3GVQ6uazN50ng2btlEJDfCV7/2BUKmRNx1L7V19Xzj61/EkIK7772PbTt2gJtIsnJcHuGEwUeOgLSFB7fVAonGomgliNmC1rhNY3Mz9Q0NCCNES6tL3Ib9+xuIhEz69u/HjJkz2VtTx3U33MCmrTt4593FrFmzjskTxvL4408jJAweOpQHHniIUyeOY1jJIGzHqwB8PBaG0H4WH2FQH4Od+1sw3FhSeE/kelZOW4C21xfl+7WrZBXtxKGTisQ1be5jAtdf7B5x8Y69qCtocAx21DXzzxde59V3FzFr2mRmTj2J/Nwctm1Yz5Ili6mtrcOJRxk/fiyzZ8+mePAQsiJZaO16mUBsL6C5Z1w7PVcrrAjrt27nvn/cT05eHxoP1DOhciRXf/YqDMOLBbFCudz7z7/z7nvvMWxYCSvXrCcrFOZgfQMLl67k0kvOBTSObWNZJkIIPvhgMa/Nexu0pKauli988RYKC/K49ae/om9BH/L7ZLN8zVY+d/01nD1rBq5ro9EYhuTv9z/C48+9wJWXXcRZs2aSGwmjlI2Ugurq/TQ3NjBkcDEqHmdYSQm1tQepq9tP3tCBHFMa3A6jA21WhYTWNAHtp8DVGizLYsiQwQwtKWH2nHPYta+KLZu2sOCtRcx//V36DxzI2PFjySssoqqmDldpL9ZEGoSsEAhPsySF9DVe3mq1LNPLKINOCoRCe+6TUhoYhiegJXolpcSQEhPQWmKFLBpjMaqaNCveXsayDTv5xEkTOXf2TFyRxhbna51d22HO7DOYdvJUXnrhRYqKCrniMxdSMrQEyzSYMGo4mzZt4rnnnmPF4oXccO21nmIDQTKY0FfXJxUS0nMpWLjoA9avXs6Xb7mBsZVjME2LNevW8uRTT/HjH32PyRPG42qX73//27zwwovYsRaKB/QlFmuif1EO1199CQjDtzL5iROE8ONwHLR2mDi6jDt/9wuK+vXz4nT8tW6YBp8670yywxbxZocJY8czdsLJ7ciZZ/1LJQBe9jAT2L+/jmknTWJAv3440WakT1pmnnYanzjjdJRWSK2QylMohMMWkUgByextGj/TkI1lSPoV5SOEwLXjXua+TveB1D0qYff1gtk1CuWnPU9qTrVAaKPd/G2znGhv3JJCN16sj9YIKXDdRB0Uvz1X41+efI+JUVGum9wvHa29dvy9Nfm91v51yiMPflyZtwd7RWUTv/N+r7Fdr1+em5PGsb3/Vz5B0Frhehck+554SI2XPEVr7zk9L1blC2veeCQEN6U0rnJRfgFKpRXa76fjOmghcBxNfUsroT6F1NsGry9ex/urNzOwMA8dj3rj2lnCkR6A1iCNCHPmzMHVJm+99wH/enkeP/nCTfTJyqL2YA1jxpQxY8Y0fvaTn/L9f/82QwcPYl9VHf/3R9/lnnsfYO2qFVz0yXNpanVYsmghFcNLOe20GeSFJDlhk/Xr11AxcgSVYwvIjizk8ksvYsemNRQPGkDfwiJ27KqiNR4nO5JFflEus0bMZNe+Ks47ZxYzZkynsbGBoqJCPnvNlYwZNRwMSf9/vcjDTzzF8Qs6TmfwfNrqKAxp8dhTz7Hg/Q+wlTiU6NGDBEQnKQguoCU02C7ZBQNojGveWrKRFWs2k59tUTKkf4+4Ldm2zfQZpxLTJhs2beHCC88jYgk+c9EFxGwX1/X3BaWxLINI2AKtsMIhzFAWpmkRsgwsK4RpGFhhExRII+S5BgovZfTHHR85ApIKKSStsRhPPfkUW7btQsksVq5eh9t8gOUfvI+QFmu27WH9+k38+c9/Addm3MTxbNq+h7Ky0qTG6NJLLuLG666ktLSUQYMGIQzPdeb2X/6C9es3MGJkqef310Gwz3Q8iGGYbNi8nZ/94jdoZSP9AFHtev10VWd9cLyDTunkwtUdAioSRCNxMAPJw1wrDdo/CA0TK7cP4ZxcFIJ9+5t46InnWbFyDblZYd575x3GVpRz9eVXMHnieCzLIzGxuI3rxkmMhhLiKGtnHA08ohNzHe6890GmjK7gxus/y9atm/nJz37O+EknIYUXJLuzai/PvfQy3/32Nzh50jh++rNfsmtPFdHWVvILC+jbr68nqPjJAKSAfv368qWvfpmioiK+/R/f55mXXuTGa6+het8BTp82nRs/dyP3/eNhHnnkSWacPInsnDCxWJSZp02jomIEC5cu49kXXuC1117lc9ddx4RJlcme9+9bSDgcxnUV4XAYx/WEuOOJrg6dBKn2Yj4cpDSoKB/G6IoRzJkziy1bt/Hwk0/w1G23k1/Uj6itcFyN0hKNl2rZE5plUnGq/TS5pmFgGF4wu5Be8KGQIpm9TspEcc427a8QAlMDSKQhkU/RdAAAIABJREFUkKEwdc0xrNwCapri/Gve2yxavIKmA3WcPGky4lAfg/bPpzXadcgOm2SHC7jhhmsIGQZIcJ0YdlRhmTB+bAXjxn4blEa7MVw31m7UvPz/bZp4Lzu3YOqUCZxy8iTfsOBix5sZU1HGj37wHbTW2PEWXOUytLgfX7rlepTr4rg2UroYQqHtJsBAINFa+sJqQvz2TEJhSxIJ5aJiLZ7WHl+gdQUDCvM9AdXR4Gi0innZ9DrYHz1lg09wlMbViqL8XM8q6sY8qwbeO9XKRdsOImE/8y1Tbda0BCnzx0Ym6tX4wjadCz4dYSAIGRZ7quu4+/6niTkOrtI4fvpUx3VQvnXYdV1PwFdussCh67pEW6MpFZRFUvOvScnW3fYSU/JdeGOslPKVMV64fJv1WSeVO+r/s3fe8VVcZ8J+zpm5Tb1LSBQDBkzvxYAxuBDcs4lTnB5n49TdZPM5m91ki9N20zZ1nWyy2ZRNYsfZOInTHBdcccFgsDEYEMX0IkAF1TvlnO+PmblNAiQhCQHz/H4g6ZYpZ86cefurled18J8FCm/9VBmGIgFpZSXjn/cZP/QQgXK9NduLiRdIIbxwVf+e8PRPCcL0PZsiNZQi8K4IgRQy4z6SvtIqMAzP4CCkJ/wZUiBNA9cPpbVdjRISKU0s20ZaDlpIb87otAdmyBFek94nnnyajZteYduufby4fQ/f+c73KC8roqPTpq62lgnjxyE0jB0zinFjR3P33f/N3DnzUMKktLKap55+lqaWNvYfOopyIRZP4Lqao8ebqasbT5sV5xvf+W/Kiwpoam6hetQ4Zs2aRlO7zeNPr6UgnmD8+EsoKizipZc38ZVvfpdZUyZx9/f/iysWX0FzezsPPbaanfUjMKXg2efXgSG7u3aHdOzwbkklMHzZwYxE8Xq8Zh9Ttpd5kA9LewYmJXxvuCGRbheOchFSkLSTGHkFxCIRTN8oBbnljAcW0zTZUV/P177xTcaMvZSHVz/OyLoRrHtxMx2tJykrL/MNA7B/335uvP4a3vb229Ba8+xz6/nW3f+Flezi/ofWAAIzapCXiPHc2he5askCrzRuyhV7/hM8O/o6ac6hAtLTkZ45nKYvKK3Iy0tw66234mqDdkvy2rEvc9utN7Jk7nSkafCHR57Eci3+7uN/g2lKorE4H7/zU0yePotNmzbR0tzC2LHj+Pm9/4fhPpZyy7d1djFz6qVcuWI5VtIC13MhDgaBtRitiEckdTWVKKcr5W0JHiym6VtjfYQE0/DCpwzDwPDzH4IHcYBpmqmqJ4FwF2zFszZ7TXcsJVm76SWONrbg2g6FEcHCKxaxbMkCKirKmD9rKru3buWB3z7As2ueYt7CBVw6biw1NZW4SmNZTkboUCBQBh6jzB4wwb9cyaA/eOPT1NDI7r2HeN/bbgVlUTeimpqaavYfPIhAYUhBw5GjmDLChPFjyU/EmDJlEgePHMeMRDlx/ARtrW1IIwKOVzJUSpO8/AK+9Z3/RgjB2g1bWTg/hm0p8hIx5s6aiXRdZs+exW/v/zVNTU3k5dcAYJgGpSXFnrVaxjl+opn2jk4/Isaz7jY2tWBZNkIYJJMWiXiEeDzvLMfjTKN16hHXvsBiRqJEYjEam1qo37mH9ete4LW9+6msqeD973sX5RWVHD3agBYSgURpgZNhkc/6pzSO66SsxUFuk8azSju+xTn4LGgc1/XKtmrQWuAqh07LoS3ZgaUcLCuJYSfJixnovFhKIPP6TPRsdfIeuJkKvMDRTrrynP9dr5yxSClI6dghAD80QEtf2E6HCWkVKPoAEiENXNfxwokMg1g85iVb2kk/iV1gxKIgTWwridTKE/S1SSr9yz+vRF4+XckuHNdFaNcP4fEaVgohicZiWI7tVf4zDSDwQvlHKDyhWWiFkJJoNI6U0NXR4R29kESiMSyryz8HScpfFkjqIq18ZIUw+epK4JnObMDleW+MM97hEokpJS0traxd+xJJle6LAxopJEi/RH+GwJ7y5WidEtKlFL6XzRPiTWkQjUb9NVL6OWKe0huEryIEsWgEw0x75KSQntAeFC4QMqXkGobElCbSkKl5lzkHAy+flN48kXhyaZAHIxB+Pwsj6zsRw/O6ytQ2JaZpIvC2k96PV5BB+ucTfD9Q5L3XjJRyL6UnkGJo0C5mJMETa9bxo5/dQ1lxMbMmXMKqq6+ivLSI++6771ypHvgXE8MwuHTiJF7aso1rr72Wk85jlJVX8+Y3vZ6f/u+9VFdWIv2oAdexyc/PZ/GShdz93f+iqLSC2bNm4bqKSDTGth27mTRpIiuuWo5WipLCKK0dbXzvBz8iLy/BjauuZvurW3jw4Ye5+9tfY+nSy/nez35NY8MJfvjtL6C0JpFI8MmPfZTly6+gtrqE9pNeKd+WpkYa4xJTSNraWyEwEJ7DAdQCMKGzs403v/EWblh1FZ2WnXNIQ2kgxF8+hFc9TwhsR/HTX/6ap55/geqyUhbMX8DKFVfScOQgGza+iBAMamWszAiWt976BuLxPEoqqygrr+THv/oTH3jHW1m+Yrln8BWSL3zx3zh45Dgol1XXrmDlNVczbuJk7r33HqrKyuiyLBJ5eXzsbz/MX+09gLA70Mrx/T2DjPa9x/rMuZDngiFTQLK7RYrUIyjzEwM/QAKlFNFYDDMSo6OxnWMNRxhRU0l+fgwtpLfwo4nFDGKxCEIa3HnnJ/jiV7/NL+//A29/65uxuix27nqNL/zznRTk5xGNRvnZPfewvb7eq5HvOilL4mDiODYTLxnFxz94O1J1eQ8U8KxavjCUeRypEZWeNygQErLGWWR0gw9e1oFCoFNbkTJCUkvqt7/CsY4mls+dx1XLFjFl4qVI4aKUy4grl+AuXkDTiSa2bt/G6iee48G/PEJBQTHLFs9l8tSpFBcXI4T2hC3l+gtyIHSebgbkHmQf0BCLREAITjQ2EiueycmDR9i79yDXFyY4oLx8h0Q8jp206ersxIhU09jYgus4FBbkM3HsSNZt2MzSJQuJRqIkkxYnT57kC1+6mymXTeF9t7+Lo80nARM0WK5Dc0cboriQxsbjlJYVU1iUj9aaaNRkw8ZNfOYL36bDdrj5xmt5883XUVNWgmN3YZoRSgrzcTFoaWpl3KSJbNteT3lJIeUlpZ5ld8DoyWsXWIr9F4XANKPISIS2tg42b9rCs89v4MjRQygjwezpk3jdDauoLC8hHoui/WZbqWRxIb3cDtF9l174SHDxRUqoDt50M5SSIBQwwLfhIoWgobmJz33lGxxuaWbMmNFcveRyVl6xgHt+fp/f28dTeLKDuTK3kz0eQbx/cPzSMDBMiZO0QAhcpensSuK6imgkRjweRWrHG0DDwHIUScvyuuhKiZW0vK64wutDEIsZRE0TQwgaG1t4bu06Fi+aT2lhwsstMiO8smUHRE2mTByHsjqRQmDIKLF43OswZUiam0/y8x/fx/XXX0ttXQ3KtryCCI6LYyWxHZe//OERFl0+n9KKYlpbW3G1iRGNIUQE2+kEDPLjMaRwMSIGT6zdyLHDB3jrG25ECEFTSxsPrn6Iq5dfQUFhMSiJY9s4Vqe//hgZ97GvjARFCIRXHYzA6yCy7+DccNBT3d2Oqxgzso6/u+NdICXC8BQIT4A2kL43xxOq04J7MJ9MM5JxbdMeELQn/MuUZ0EgA0ts5nGJQKnxjzkwnuCdq6eQQpBLEqieQmfcBzlrmPZdLUJ4Xp7g5AWBE02nvpLpocq6D7KCyHPvDu0rl4HSp1MvewnR3laFCNRDzwgQiUQoidnMv2w0N99wA9Mvm0BRYR77DxxG+jla59Zwq3j4kUd5bc8BJk+fhSklhw/s4zf3/45Xt7zK0oXv8ARoX+B3HZfrr7uOf//OT1g4o4hDB/azdedu8vMSHDl2HGEI8gvyQGnqqou44brXMe2yy9i17yBLly7mN799gLkzpjJqRA2xvAIMKelyXcorKnA1jKgdzevK6vjTQw/T0HCUeTNmUFNZxpv+6iYmTxoPkSilf3yIX9//ALFYDGUPdVWnNJ59S5KIR8mLSgoiihgqxwEytIKqZ3TzjQpCYAtFXVGEW65cwLXXrKC2qpx4LErTsQOpioVnEBbOGtd1GT1qJI0tbax9cQuv1u9kzNhxRKRn2EG5CKVQ2sGQEItFcWyLyxcv4rXXDvD9732XS8eP4fprl9F0soPq6hHcddcX+ad/+CTVFSV0tDb6MtsgzgSdu/mBVUIGYh04awUkJaIGiW5ZZ+wvev4iqzNezRWCByMbx3vQAFphmgbrXlhLWSLCyJoSXNfCiMRT1n6tXbSSOI7LxAnjuHzeTJ5+9gWamho50XScovx8xoyuIy9hYkajlJeX0NjciBJ4ORqDec+mnmiaiIRERGAoELjg2xdTn8v5GkoPSLqAFjYGkgUzJ/KG61cwfdJkYia4KunHpSuvipWQlJcVs/zKZaxYvpxDBw5Rv3MXa55+hgcffJjauhomXXYZs2fPpKi4CEMKLCuJ6yc9a/+Mgof7ABw5StmUlRWxcuk87vnFfbQ0HmHzq/VcNmk8s6dN4aUXN2InFRMmjKe6upxvf/u7zJw+kUdWP0UkEiURifCpj32Qb/3nD/jaV9sZXVfDntdeY/Hll1NeWsLBA/t44He/4cV1G5g3ZxaG0HTZih///B4ajh7iV7/9C0uXLKCkpAjXdZFCsv/AQW5atZwbr38d1bUjwLVxrS6Q3jiOHTOat95yLV/76jdZteoq1jz9FDdffz2FhYUkO0/2cyjOtFyko1KlNDCjUZCC1tY2Nm9cz5YtW9i3dz/RaJyZc2axcuVyRo0eiTRMHNdBuDZOMukLNJxidcoW9wWkrG1Bt/rMxFmzp68F+okGqb2SyTGpmDC6ihtWXcXCBfMpLcwnz4DAKxGEKgmRHgeRseZ0k+MC673w8sb+9bOf5Y1v/CsuX7SAA4cOcdfnvkp+Io+i4mIaTpwgFtXc9ZlPUVpYyPqXXuEb//ljJk+ZxJ59+7CTFmPHjWPXzp0YkQjjxo1l/YaX+cDtb+H1N19H6/4j/OrXf2TqlFlUV1ahtIU0Y2zeuod7f/sHvvUfX6C2vAjHddi//wCvbtuBozWmaXCy+SRf/s6PeXr9Jl5/3VV0dnQgtKKivJzLF8wjEkmw78AhfvI3n+EfPvVh1q5dx8ZXdnD4+DES8QQTxo9l34FDTBg3js/c+WEcpfjjnx4kPyZ5IOIN+v4jJ/jZL3/HoSPHqK6txXEUtZUVzJ42mUQ0hjQjWJaFo4Kyw1EQEltpotEIOJ1e6J5WvpEk4/rn3OSnqiSotSI/EWXCmGps5freZp0OScqYJ5letLQA76avbY4GnPZTnWqhzNACMraZ9bYbrF0BXg+W0z3wM9/J9OnQ7fdTvRJspfuWun8zV9HLTdj3PAYCcIXNkrmzuGLBHIoKCj2vn2v5zxudtdVBF1VzFVQB7W0ncewkH/3wHRw5fhzDFNz+7rdx5yf/garqGqZNmUjbyUZc2/GUdsPk4b/8hWsWzaSkpIz777uPJUvmUjeihJtXLiYRj1NRWZY6tcOHG7jr05/kO9//H5a/7vXYruL73/o3CoqK+cpXv4mpYcmcafzgBz/kHz/9Dzz55GM888xzLL9yKYWxKC++uIHX9hzgT3/8E5s2jEAaBms3vMyuPft45tlnmTd7ZqrPxVCiM6auJ/y6oB2EshFZi+sQW8pTCr13XHFT8oYbriUai3lh5q6DcLt7ZcQgTsBIJMJjTzzN5s07mL94AWNGj6a6ppof/fxX3HvPvby47gU/txbWPvMco6qvRymXB3//APf88ne89W1v4bqVV/KNb38f7XTxwffdxo9+9FP+42tf5cpli7li6eWpvmODSaoKJWSY3vquNmQNtf94PuXjvQ+bPysFJHNZ6/M80EMz0YXwciceXb2aX977C97/rrdTVBBHOQ6G4VdhUhYSBa4iEY/z1OOP8dhDD/GdL93Fhpc38eyaNZxoOcnTzz1HYV4EaRps274NpIGSGnmqPMoBJN2UzQ+V0Cr99+nOf0D2LkArpHC47polGEKAm8R1An9KeiYI5c12u7MTISXV1eXUVJexeMFcGlta2PTKFrZt38Yjqx9l5Kg6pky5jEkTJ1JVUYVE4iobx7G98AwBMmth7A++8Okm+cDtb2b92vEcPXqMObNns3TJQooKEqxaeTUKA6Ec/uUzf8fa554nGo3y2X/6f3R1dqJdm6mTxvGvn7mTjZs241oW8+bOY/acWVwydhTr1r1ENBrlS5//JwoLClBKUZIfYdXKq5Bo3vPON7N48cJUmFHSSrLy6is8q6wwSHa2IVEpbxxoXLeL973v3Vw6/ik6uzp43/vezbTp071wv4GcbdorPQx4oUC+8NjY3ET9S5t4edPL7Nq5m/KKCiZNmsCK5cuoGzGCSDSKRuC4Nq6yfUHOzw7oYQHK9jCcyuqdYZo4nbKUNv96eUtASWEhH3nf7cQSCaTWuEkLHY1kKRm9RvgVShAorYnGolx66aXc9dl/5+tf/3eKSkppam3lzk98lHFjR/PIU0/zPz/6CcKIYJpRWto6SErJyuuu4f7f/p7W1nauv/46fvLTn5CXl8fKldew9uXNnGht59C+/WzY+ArNTW28uHEzHR2t3Peb36AdC02ErvYuvv4f36E4L8LUqZN57eAJ6nfv4w2vv4GjDcfo6nL50pfuor21g63bX2Py5Ekc2L+fX/7qt4y+ZDzPPPssCxcvYvGVKygvK+XDH13Ig48+zm8e+DPV1TUsv2IhDSdO8uTja9BasG/vXg4dPMBHP/jXrF37AkePt3CssY0jx1p4fsMWyvYdo6K8lLqRIxHRGLsOHOQ/v/s/TJw0jve8/U2YhqR+xy5++rN7icYTtLW38dEP3c4lo+uwbavbw6l3pcs1Qvj9lpQFrldsIzB85Rb9yFwx0nlDg03avZetYg22rbv7/dSd3jxr0+uAdhX5eXEALKvLzzU0Bi3EuC9orUnkxXnPO97OA3/+I8+ufYEr507n0nF1zJ8/jauuvprioiidbZrakbXEYjEOHTzArh3b+NhH3s8lY8aw5dVt7Nq9G9t2GFVb5z1FnSD3SXLg4FF++vNfceDgQT70wXeRn5fHixs28NSaZ6jfXs/dX/8KhmnwlS99mV/87OfcdOMNLF+6gHgiyqEDhzGxGfuB92IaXiitqzTzZs9i9qxpKbVvMKs4nX4A/dmQuYaKzMI0MuP/IbrembZo34AQj8UAjfJ7VGU68Lzj912Xg4RtWyxZtIAlixcRjUbRGtyuDv714+/hktF1VFRVoZRCCsH2W67CjMX54X//kIaGBj79yQ8zbsKlGNgo2yLZ2YZwOnjv2/6Kzdvq+c0Df6Tp5Eluvm4lUWOwGxHm/hscPMdU37c/MCFYg+8R6xdemVST1atXc8+9v+Kvb38vSxfMRrmOZ8hyHUzhUlQQQ6CJGAa76nfww+/+kPe84y1cvXwRSy+fx+Ztu3jh5W28/NJmojEDKQ0ajjUzum4Eqd4U535tHkS8h6pX6cazggntxZKTsp0EIQTCC7fwTM1oX1gwDEllRRnXXLOcruTlNDU3U79jJxs3vsxzzzxPUUEhM6bPZPz4cVRVVSAlXlWWwIPW72MP4uE9S/uSy+cCAldLXO3iWDYTLx3nWWw7W6kuK+T1N63yBHOtkNqrO68dRV1NOaNrr/FGQytc16GqvIIbb3gd3gPcC+E4ePAAyc5OJo4fy6yZ03EcF9tyUMpOx8VLgVI2GtsL+UjdQb63UDvE4ybXXXe1b9VVXrUeZZEbQtTvkRESDJNINIrSmuPHjrFv3z7Wr9/AicZGEok448dfylVXXU1VZTn5iXhGWIPth9MEcSMCGVT2SY08g/qQFXjlUBXetc2LRNCWFwblKXMSnWPp7S3BvENropEoH/jQHVwyYRzxggL+8OBfKCjKY2RdFRFTkIjFsG2XPQeO4FYr4nn5jB5Zy+9+/yCuNujotPm7//cppk+fipRR/vinhxgzspbykhK21u/k1W3baTx50gvpjLhs2n2Yv//Qe5kwdiRaK5TronHIzy9k6459XLlkGZZr88rRzYwePZr6rVuZN2curY3H2frqVhYvXsSokbUUl5SyuX4X7e1tSCmwLYWU8OqOHWzbvpNILMI999xH7chxJCJRpIjyl0efpri4jPlz5/Ljex6gsKiMhYtmMXXqTIoK89m2fSfb61/jEx//CAf37uar3/42O/c2QCyKNqJorWg52c5VK5YzZ84c/uM73+W7P7mHz37mToJis32dEZ4VT/mCveutRcFa04NHIrP4x9AJeemDOGcJ2gNIplCklEYOvcH+lCgU+XlRrnvdVay4agklxcWgOvn4R99PIi+Ba3dSUVbMf37zixQUFiG05u/+9kPk5xWAm2Tm5EuZMeUyP0IiIw5fSLQwWP/iRmqrS/nAe99CZXU5USPCvoNH+fNDj/Lut91KXVkBrnK5828/zEsvvYxItpGfV4jdmaS2qoRR112DwPCS9r0wBAQKKTyDp3c/X9ACQ79Jhwt6BM9L772hrRolDcPzCPqGE4HmioXz0DjevPELCsyaNgGNpLKsjPy8GAWJGJbdiaNNllw+m2knT6LtLhzb4rKJ4/jYRz+EbSmvEIAegjyQYcyA5oAMx1vKVS6TJk3ic5/9F+pqR3hVhDSgXWyriyuXXs6sWVMwDAPHtSkpKeKf/+XvGTN6FNrpImYYTJl4CXd//XNUV1Z4FUwEvPkNbbhWF7KH6lcXHhpNYIH0n0QiM0ckgyA0IvW/8PtAaIRro12LmCEYUVVOTVUlSxYt4siRoxw8cICNG1/iqaeepqKigkmXTWTKlMsoLS0hEjVwbScVy9/XY08FR2hSnbu1FghhgPDyhMArJYqrUK5fiUkrvyypb61ybZSyUX4YiRBek8GgdCZKgZTEY1GWLV1ESVGB31ld+E2HAvErOAdPwcmtRSREkKBt4+D3SdGB2qHOSgHRWiAMiWlGcF3FyY4utqzfyKtbtnDo4AHi0ShTp0/l2muWUzuilmgs6o2BVijH9ioGIXwTWUr19M7hHNwHwdVV/n9Ca79RHb7A2r+HlgCEIbFsm9/ffz8trZ3MmDubJ595jl/95g987l//icKiIpRjM2HCRK5YegUP/uURJowdy4nGJoqLi7CSDol4FDPSzrGmJiKJPKL5+WigoqKCHTvrefutb2T8hOm8tr+BW9/8BkqK8/jFbx+iqqqCmqoSHMdOydimGWV0bS3/+4v7iObnMXXyFB544AEOHTjOM2te4POf/QxHDx/kgd8/wMwZMygoKMQVcQpKK5k2eSLtbe0kEnFKqio51NDEymuv5dC+/SgdY0dzK3v2HeTn9z/InBlTMISg+WQb+QWl5MXj5EckwjBQrk1zcyNdyQ7yi/L45J138ujjz7Bj925cJRCOYvbM2WhcookoS5ct5b77H6C9rYvivJgXctAH+TxV7lXrlFVW4HrNQcCXULKvcYZJ5Ixr80BG/vZPvRqe9Ki49RB9di7wvGGKiuICFHm4SqNdl4J4DO06aKUxkJQWF3tru4BEIoFSvgfOdQEv8VqJzLkj0Foye85U5s2fibaSKNfLbxw5opw73nMbrmNjJdvRwIiqUkasXO6VZXYcIkJ4vZzwEoyDMtDCz6d0NSnXQ7qPCxfKlLkgScWX+PFelusghfJzxIL2B16xj6ryAq/psN2FxEA5igVz5gBg2Z0gBMJ1KYhGIWZ48sxFfu0HOQldpH4MVdXwTPd3EANcV1OFlALXsdKPCH+BLS6IUVRYDa6D0pqi4gKKios8y6PWgEM8IhhVXoBrd2DglWEszTeRBQW+UDx8GZgHbOA/SD+Y9Oketjq9uKYfZIGY7d20OC5auwghqKutYVTdCObPn8uxYyeor9/Jzl27eHj1ai65ZDQTJlzK5ImXUlVVDUKiHBvH8ZJtvVzNdJUdMmLD/bfIdD8KIb1kZBm8H4iwmXZ776GkAp9vxowC8AxbwXdEykMTKCFlRfl86I7bAYVSrl+xQ6CzKn3hjalIj2ZqnPxmYvhHEYhTGY+sHuhu6ffG339XSpBe6b+TrW28uuUlXn11G3v37qGouJDJUy5jxfIljKwdQcQ0vURm5eJa3j0TzKOURUr7L/qv58p5qREfZKVE6gw12G9Wh/DLvPq1JAXK94UEarHoYRiD8XMhVabaqwpVWV7J42seYvtrB7j55hu57S23YbkGDz7ytDeuhsH8hYsZP2YUNeUlCGnwg1/cz/PPrWXUyJHkxaNMmTyZaCSK0oLjJ45TUFzI37/v/STMCI8/9QJ7D+zjZ/few4wpk4hEowihcRzLV5i9MCNXOURMzZXLlnCiLcn//uIeLh17CV/98hd54Pd/5HNf/BJ33HE7d3zwg7Q0niBoMJeIxXn0iWdpbDxBa1s7EydPpLyiikOHGnh+7TquWXk9SeXw6BOrqSpOUFxUgGV761pxQZwRlXlIFUEaBntKIuwzwHY95aqytNIbV6WQKLQUJJXXoFMaUV54cSM1lRUU5yeQyvbvgNMvSpmRPoFQn7onhPAreGUGWvWfXjcD02e7p/OT1Njoc2Ng6AmhBEK4fmy73x9bBR4yCO5lldGtNXXsAn+97skHob3tOgrXSfrhxL4BTSW9OSAA6RmUlF8SXeDVhPBNIWQ+SzKflj0uOyG9IrOASSrcZ9DDbhRpb2b6ynlrUWYfc78suuv3UhMGgaFRO17REpHRmFfjegV4Bol0vqP0imvghVAORy7oPiCpuakV2cpmejHSfgOnoIRhYA0Hf45r7/vatVIiigCv4dTQnMYwIVf8PVVoi0itFt3WhqxqMDolzCrXxu/rQ2VFGSNqFrPo8vmcbG1j0+ZX2LptG6sfe4LS0jLmzZ/HuHFjqa0q9zp2u066M2pwgDLYXbD8vt1vAAAgAElEQVSvzCPpHjN+2sfCaRe4ntzFgas4NwQkU7A9/U56ftCf6dGVPRs1Ei298CozYnDieCP1O3axdu1ajhxpoLi4gAkTJ7Bq1VVUVVYQjUS8MC/HRrsurkjfA6c5UtLzQmd9ZiiFNdHtF0iNV6+f+MG5ZJgvlNejZPk1V7Nz/zF279nN1EkT+dWvf88Df/gzb7jpOqSGppMn+c3v/8hdn/4EI69YgtYOr+3bz+GjxxlVV0dBfoIZ06b6Bg2v6tWBY8eIRSM8vvoJnnthEwjJ9atWccmoUdz/l6cwowbKK6HkCTiGRAk42HCM+37zB/70+Bquu24lb7ztzRw9cZzFSxdja8m//Ns3mDb5Mt79lptoa29DIHAsi/p9B7n5hlU8/JeHsSyFZSseefQxPvLBOzjZYWE7FgsWzCcaj7Nt1y4/t0ZQv2s3cVMCLsKQbN2xB0spT/FyNa7reMenNdJX5iWCRH4BTzzzPI+ufpqvfP6f8IsC02OCUJ/w15cBdF0Mg9SGYYsYJl6PXLLDcQLvWKax6zScQREQGfJBYOnO3LzoYRrrrN8yjVmnNxuF9I6g98zQp830dOV6Nn6kH9si56PdNaWhOY9MA+rwNJ8MuQISxIh71aeG56AMR4QAIUVGjH1gqR9uY9i/40kL7y6W5VXEKinKY8WyZaxYcSXHjjezfXs9T61Zzx//9AjFRaXMmzOFRQvnUVJUjATsZBKl/FKoMtimGGwj/PBApBXCaCyGMEyaT7azafMW1r6wkX17XiOeKGbB3CnccstNVFeVE4mYKNtGKYVje8ntAtlviWxgbNLDC601yvKaeRooSooLecutN/P5z3+JVdddxyWTJvDtL3+dOdMuY96cWVhOF6YZRwBmXj5GosDzDkgvA0IYJpFEPrLd2+bceXMZMXoCu/fup6aqkj379tLY3ERxWQlKZkg6QtB68iSPPfU8tSNHUVVZijANHvjjn8F1vf1FE8TicRLxCC9t2oJylN9l3iDZ3sGTTz3H/kNHWbJkMa/W7yZPSKQRZe0LzxCLRpk7Zxa79+wh6BAeNUyWXbGcFcuWopSFjEQoe+ppHnvsIYRSuErhKJ3qTC+FgUQRi8fYtXs/X/jSN/nr976buXNmYyU7MWW44p+PBGaci45wsg4ffBnasqyMiIOQXiHwQ8W9tJXBG7e+3zBD7wERAonAsi1/ICTZbsvzk8H1BvrdZ4XfAAvpJ9BdmCtk4DVQWqHsLrAl5UX5LF0wjysuX8Cx4yfYtHUnm17awONPPE1VRSkzpk5j1qyZVFWW4zpJz82pA0tZ38dpuIQbdCfbF62F17QsYkYQhklrWyvr177Aq1u2sr1+F0VFhcyaNYvrX7eCMaNHIREo5eC4LnYymVEZPNv638cjGcY2ln6SUWfQ84QqotEYe/btZ+wll3DVimXcddfnmTV7Dmufe55P/8PfkJ8wcbXCiMcRhoGV7MKxHbTj4DWelmA6uEkLAEOalJSW0dJqo5XCcrr4zV8eYeG86eTFDRw7iRmEk7guhQWFfOJv38+uvYfZsmUD//iR9zBiVC3KsZHKRSSKsNqa0UaED97xXuykxe8efBzDMPj8P3+SpsYW1r+4nqOHDtDV2syx4438479+jnGjR1FVXoRyLITwmpUm8vJwteLxJx/j6MHXvCRwU7Jt+w5syyIRj+NYLom8BFr6Q2WYCNel4dgxPvdvX2XFlVfytje9EWmCdi208tb5C2qeXCTIzCUhlP5ChhqtiUajtLa10dHZScyMDHp47/lK5u1pGgZNTU1+8IkedqvvkCggmdNEa00kYtDV2UVX0vJK1aUaqw1xbQgBudGgufvX9G6eZwfjnOVhZc0RX7QTkqamZtAuQoKyz1EZv7OmdyOVjuX1QuKUUihto21BaUkRy5csYOnCubQ0t7Bp02Z27tzBU08/SUVFBbNmTGfs2DHU1dURiUgcV6HcILRuuD9Jc0PbgvGS6b+116fDiEbQwJGGY7y2Zy+bXtnMwQMHKC+vYNTIWu64/d3U1Y0gFot6scyOhRU0CZRGD/vqG8Nf8dCpe/vMVX27q1OpJudak+zq5N5f/4HNW7fx2bv+mVWrVvL7R/6J+x99hn/5+PsZO2YUZlTQ2tzB5u0vcfDQIbSTxEm2p2PThUQoE2130dLSzMubNmEIk9f2HsR2LNY88wzPrXmOH//XVzB19jEHYZ+WZeG4Di3NLby0cROHDx/B0TZCucRi+Rw4dJiRI0fiujZKORhSsf/AHuq3v0IsFmNEbS2lpRXc8tlP84v/+x3PPPci8+fPZfu2Vwhc9o5tsemVLTQ2NXHtiiUsWzTP25ZpUhCDhx9+nG1bt2OYij/96b/Z8uouTra08dX/+CrvuO1WVj/+NPU7d1FTUcKXvvRlEnlR3vSGm6itrvRDp4bbPRfSG8JQtfOf1Cp32tBaGG73qOu6jBo5Ejtp8dqevUyfOpVksgvI7WjDRa+Y+Klyfv6HYOOGF5kyeZJXeMbvtzYQdA+x7/s2+qCAaKTfERjdl+x972EeRGxqpaiuqiAWi3DoSANjRtZ6XSV7apM82OJNSu8RPcfvBUeQI+h7IqHO+dzghRdoJEJE2LN3H5MmjsMwFE7QRHyQ9tl/Bi4zJq2E+EJ4EP7tOqBcDCTlpSVcvWI5Vy5bQlNTIzt27uLlDS+x4cWNlJWXM278OMZfOp6S0jLisWhGFTRPIUk3Ix3IkewpDjh47Uz7yR0/QRBPJhAYEQPHdjje2MjBg4fYvXcfhw4dxrJtpk6bzutWrqS8rIy8eAyhvUR/5fpNHjOS74PitWd7vYaXp8irggX+qGtFNGKAFLhKodAI7ac1d5OmsgsE6NS4GyjtkmxvZdq0CcybO5tHH3mYbdu28dfvfCMVldX8+fe/44v/tptly5ZQUVnDU0+uYcKYGqaMqyMvnvC2qUXKslBUOIWOrnaeffY5DGFwsq2dG1ZdRWF+jL/94DsZP2ak12VckHqYBv9LIGZKIobgxXXrKCoqwsa7voZhkuw4SU1VMUI7oJMUxlzGjq5h3tzriMdilBSX+AuH4JrLZ2KoJLvqtzBz8qVIKYhIiJmC9evXs2TONHSyneefXZMKy1KOw+JFC9iwfh033LCKW99wC2++1Ut21K5LRVkJt9y0imuvvtIr5KEUQggqysrorfGhJ8euRhOROhWCOqDVq3pjYBp+C+2QogRgSGKx2DC756FnOWEgTYL9ZTgcQxrPCu5VfTTRRESQ7eKH3qYFonN1iKdEKUVRURFLFi9izVPPMHrUGIqKCnAdq1tCt5BnZ1g73xH+GhmNxXnppU20Njdyy003gG9s9yPU+7bNnD8yZ4gKetqovguk/fCAeDvrr69CoykvKWb2rBmsfuIJ3v2224hGYzi2g5eoK7qfbe42BvD+0DoQCjMFxhx6sBbkNjg7ZWfIfh1Uxn6kwDRjbKvfxc6du3jjrbegXIu0Nf9iuNmyHzBpfdBLPnf8ZkWVFeVUVJSzcP58Thxv5NDhw+zcuYuNmzahpaCubiTzZs9kRFU1kWgUtIvjOkBmKeUz3UGyh8/0Vog/892Zq7pIw4vTt22X5qYmXtm8mR27d2FbFqXFxYwfO475s+dSXVVBJBpDoVHK61Ei/e7Pp/aUXdhlFIJcMyDXrXgGPOXDr5eFUi7vePubWNV4NY8//jgjqkpZedUdjB49EmEIFsy4lFdf3cozzzzPkiVL+NgH/9ovaBFUDsrpgCFA4Ga8H1xxFwwD106mche7iVWuRUVJPl/797uoKK/AME1PsZIC0zB46xtuRikQVpIImvfc9mYKC/IpLSlBKRdldRJ0xB1dU8HVS+eBKRk3+hLsznYWzZvJ9KkTGFFTgxBekYegOZhXgUqg/ARgaUBxYSKVfI4GlCJWkKCkMJH2P2nQStPbrr89zlcBhvRzCFNr9sBwsSsXvcKfi17vgoyCH8OEob6G5/Oc0Tq4F4fRBewFjpNk2RWL6eho47vf+y8WLlzE9OlTyItHsj4nxMWda+Yql7bWdp5/4SH27NnLqpUrKS8tTpV0H0iJ0Xuq9b84QB8UEN+KqDTC7H9ir1dUwmXp4svZuXMnd9/9PV5/002MGj0K0zD9ngoZ3pCMOt2ponbnZehR35FCYFkWL6xfxwN/eIjFi+czalQtVrIjW6C5qEmHormumxJOKqsqqKyqYMbM6TQ3t7Bpyxa2ba/nu+vWU1xYyJw5s5k6ZTJ1dbWeXcBxcF2v14gOqvwMML0JmdN4TRwjpoHW0NTcQn39TjZv3sLBAwepqKhgwqXjmDplKjXV1V4iueOitINyk+lyuQN+9Ocb3gLVlUymrPC9JwiaCmKwFBXlpZSWFXHJmHcSMQyU9pQBlKCkKJ8lixeyYN5cL8vPtVKKhQjUGJEhNAcOvSCZMvisELiuV8423ZgyE68vTdQQjKyt9qu/2Z5KrCXCVVSWFoPWvtdLUjeiCgG4juWfGQT+narKCqpryrx+Ba4G16G8KI+y4jy08s7BCMog+feV8POq/NZqCA1uptcJrx2Odz49XZHTjfpp3tHQ4QTCxUVSWGI4ITwrdFdXJ+DNgaw5HXJeYWuw1PkVxq21xjAlr1t1LXn5eTz55JOsfvxxhGmgA2PO+XM6g4N/n+K6VFdVctPNNzNq5Chcx8XIte0P1A4FuP3wfkAfPSApq0c/d5b6klLEDIN3ve2t3P9/v+U/v/cDCgtLUx2Zs60L2SFZImMzZ8P5ME+llLScbCIWNbjpxlXMWzAXx00CwzX86lyhUz9SAUZ+2JEASooKuHLpYhYvXkRbeyebXtnMplc2s3r1kxQVlTJ37gzmzJpJdWUJpoyRTHZl1ZAfgiNHCEEkFkMLydFjJ9i3bx9rnnqWxuMnKCsr4rJJl3HLTTdQWlJCIhbDtV2UdlG2hQ68YSK3O8LF4B07FcIvrS3OwiKWVkKU9mIehRQ4fsioQHhLodZo5frdolW2cCw0SrveZzLeEML0q9r5L2jPOywCl8Ep8bwKrsrwbvl9DdAa5XejT28006CTfW4ahXCD5p4GGuV15g0UiqDJn18OOOOUMPBd7jrbI5iZT9MtVEeoU2bbnf76pI9HSAHDu/XSBUnKJJhlOR9uKa0hZ+J8v15BafSrr17B5ZcvpL0rieUoXCfdTuFiRmkFQpCXSFCcl0fENFCuZy4ajvQrBKs/y05KMNLef1opEtEI73zX2zh+vJETjc10JpOeJpVFWojqVzTFeYxpmsRiMWpqyinKS+D6lWSE39X7ohmIXuHniOjuSdxaK7RyERqK8mMsW3I5Vy5dzNFjjezatZs1a15g9WPPUFpcyIzpl7F40XzKKyoxBNjJThw3Lex51cey93DqRa+7IOkp0L59WxpEIhEUgvb2DtZueIF1617m4IH9FBZXsGLZfMaPG0dNdRWGBOUqtFLYVtLfvM5QYHRqSohgT+dznMCA4HkfstUPz9twpqERkGoSGVhedOBtSzXjpMefucuj9hWVrO0HD0vfopKd6XH6ENdA6cg4m25nmA4rDeI5eyhuIARg+J/x95nq1ROcc0CmJ9rIOeGcfYtuI5JzbD1/L7XnnrpaBlcy6/hChh6JECZaB7l0ols48vkW2nNRoUFIEy1NL9BUB+vj8L9mmeuDY1tEIwaxaAFS+mGowQeH/6kMImljrHY9T4jQyve2D4oL5KzomwIiemri1jukb9lL9YbDRWuvJGh5aQFlJYX+PrrttNufF4vcnQ7VdHGsLiBDuLxIxqCvaBEkVwcEYS9+syqt0E4XCkFVeSHVFXNZvGgBxxubeGVzPfX12/jaN79HcVExc2bPYNrkCYwcOdKzdrsOSdsmt83VKS0vIr0WKgApMQyJMAyENGhsbGLTpi28unUbu1/bT2VFKTOnTuFNt1xHbd0IfwMarRwcN6Orb2aSUO756+ANkZGQnRH6M8QMBx0oMxwK8Dukn16Q1aiUUpda08/onQi+m4nw183TfE6QczxnHrRMpUqLnBmZlZBm+PvqftxS9LS/HFXGX6uzdy7hFP1iso/8dO+f5hy7xVd5Y+NFgl0YZdvPR7QGV0E0mgDhiQ4SjczxFvecpB4qjj0zlPPYW/dkXh6u8NaFIHzzfMgH9JQPRVYeg1ZoZYUzqwckkqBnSip8KWe6nevnc99CsFJnMnA3jfA1Ne2HXvU/TjgkpPcINNp10H4ycElhghVXLuCKxfNo7+xi8+bNbH11K888/TSFRUVMnz6dKZMvo7ZuBFFD4jiWn3PS08LtZxBoQIJhSoQRwdGaw0eOsGvXbta+sI6GhuOMqKlj0sSJ3HLjjZSVFJKIx3Bd1y/K4Hs0TjvpA+HW6LWAfPHghxDhglLdxfvTDVWPOr7uVcWkoUb24ph092dPN0W6h2/555tZISfT4zdIq3HuQ3IYjvnFhtYQj8c4cLiBz37hC0Qivteqh+ICoofwYN1j8Y6QLC/lICPwbAdKGLy8bR8fuP22jGMIufAI/MrDlz6V4Q2y3c9mup5ySETWj5CQs6AvN57Gyzd3UVYXAihMmCxbvIDFixZy7NgJDhw4wIYXN7Bu3TqKiwqZMH4c06dPo6KinPz8fBwnieumY++FkEhTEo1ESFoWxxqb2Lx5My+/soWTLS0UFBQyc8YMJkyYRHVVFdGICa6DVgrHcXI8Kj1YkU+hkaQNBP7fvRyBCxuBaZiY8QTSNoKXevvVLDxHyvnwsO7B2tzDcXeLyjqb7Xej/4KVyDlWLSPEtUlGzeyQIUYpl+LiIj71iY/Q0XoS0xBIKRFCdlNAsiu7eXQvex2SZmjHRiG5+eYII+uqSNoW54OgGtJ3dIbXfzD34TV81l5OYB+fKX2qgiWEAcJA4/Y5bjDL1ZORy5GKFtbBPs6wHd/KOzC1yPtfPmxwGciDuhgX/lRmRJ+/53kuXBw7CQgqy4upLC9mzqzpnDh+jN2797J7125+/rN7KCoqYuLECUycNJ4RtSMwoxGEMLBsm2PHG9n0yivU19dz5MgRKivKmD5tKuPHj6e2thbTMHGVi3JcXNtNh+n0MK+DlwbDA3khIwDbcVj95NMcP3YE23E4G0vH8Ot/cCp6F+7Su6ps/aX/CkiuR0cKSUuHxcmWFq/2rwqz0M8FQgguGTUCSZWfD2ekCxVk0rO7LWSY4N2ZEqVstLb9S2Oc24MKGXjO0llwhk2nfvNqUvXPwym06uVTVYBOttG651Wk3Y40FF6J3FRWQoqetih7ODYvoTcz/TL7t54Itj0QPdMHs3lgyIWAX/LTV3gNI4IQEqUU7R2d1NfX89quXby2dy/RvHxmzb8cAbzw/BpOnDhOVU0NY8eNZf68eZSVFBI1PPOAUm4qRCsoGxyUls61/gZKUeqIMu6ZMx997pYuBtJnaRgGm7ftYN2Gl4gYQRhRL21CfRqs4biKDMwxnZ0C0j9yj1ygcRTU1taycvkVuMq6WCbzsMIvGp39xO+hs33PT9Xhn2NwseBdLYkWGoGbEWaZ8ZnhuKSFnEO6yyXe/5ION0Kiciz5lXWp3LDe0nsFBEC7dB7eg910iIjpoIRfHYjsfMRuFV/oWQHJ2jTpUxoyeohVDQnJIisSyk8oBoSUSL8pV2tnkvWv1POVb36f4sIC3nvbTcyYdhllZeVETNMrjaqcrFCFICcs6K8QzP9c8ThM3Tw7pGli+D1VgmuXdrue5ou6By9rTohbzhvDjL4myw80AzcmqZpgWuPado/J7yGDT6BqBK1h0ia8XOWip1UrvGY9c67GRfq6Y889h4LH3bBiWB7UMGZA18mcPC8ALXBFBBUpJL/uUmSsEETfPGl9U1ekQaysEtXZgnbaAIXqRXpZb53x3X0pg0w4l0N6S0bmssbzYjiugwAK8hLU1o0ikV/CzNkzuOaqKzGU7TWKsy2EVgRdoYOwF50VbqWzd5FBT/dOqJT0HtdxcBwvoT9V9UmTrYj0SCgwDUdSxVx6eQOEusrAkl1+4LQa/KAfy4XBuQqpzSyo0f1mOvP6GDLcGczLp7VAY+BgEi8oRUZi9Cefoc99QGS0gEheMdbJdl/16F1JxN44WvrfMCwkZGgR2f+hlcZyldd523FB2ZmfTHW9zoydTJVPPc2k7/GuOcWtdP7kKAwhIvAsea2Y0j31eixzlaaH0BJ6+UpI/+mN4NOXEQ9DSQabnq5GeE8Mf87Xa3S+HvfQ0/8svN7hCoGI52MWlYI06Y9ZtG8KiAKtJJGSCmy7FbuzBQPVPdmlp7Pu1bENRGZH77kY5LXw+TvYeBWrpMALSRQgpUBoT+nW/jIQNMQLrE4ajQwUkNPMwx5LUwd51LkRQsOzosI5RflaX2qoNCgtuoWN5uK15cgp6dHjgtGbsh+D/Si4cPAj5U7LuZjl4dXrPeEqdP4Tzvfzn4GMlAgCsIJGsK4W6EiCvLIqjHg+fS5/5dPHjBH/mRwvIFE9huSxQ3S1HSOuXT/HI+i22L/pezEoBCEXGgIlBLYQKAHC8IXN3Pwi3+qeOcWVVmde6E/l7Tj1W6c91osNnRverL2rcKbF2Sst2Js99HZMh9/iJvv50BhsBm6kQsXvXBCOeEjIuWdAVz8p0ELiIlBaI6OF5JePwSwoxmtKmxFR0Ied9jkEK9iJjOZRVF6DFYlitbWgVBdC2UiUX5Irk3BJOleEIz/YeDeEQgFerodKVXbLjpjOZagV7tw+IRcFOaerRbrS2Jki2HsVvtPrazj8xv3CXxuG35iHhISEDAUDVndOaNASF4mMJDAieeSXViNixWgiCBlkgfe97m/fFZAUBma8GCOaT7SwAmW143S0YHe1o5XqtvaLsAzfOUGHQdC9p58CuhQSV5gkHRcXAxUrANfKsrNn5mekGhYOuYAUpq979LJBU280xPM47C23WuH5RBhuGBISEnJqBsYD4oWYm5EoZiyPSKIEmSgAEQHMDOWjfzvrcwiWF9wuAOkJt8LESMQw4/lE8kuIOZZXbjTrAaHDciTnilAB6SN9Hy/DNCjsECgZBTOfvMoxXn7HacKngHPQ2DmcC2kGSAEZqH2dE87j+RAqICEhISFDgEAaJkJGwDCBCFnPjrN4vPXPAyKkp1OkjkGAiCIiUYxIT3pXGIsbcj7QTw+BkJixIlzllaWTsWKElGfe0rmqwBjSOwbMRTBcL/IwFeJ7dVjn4NiH6XCFhIRcZAy54TLz38DRDwVEZP3o/rYIre4hFx1KC7SrkNJAC6P3DXnCW2VYIgB6dQl73+EopBcMV10tJCQkZLDpdR3yYfJMyTzUfhxS3xSQ3jwcwgdIyMWIThei0/TC+xEyrOn9MhZe6QGl/0UUQ0JCQi5wLqznzfCswxgSEhISEhISEhISckFyFlWwLgAuLGWyZ0JrYu/o5VzoNpy5/T5CQkJCQkJCQkJOy8WlgISSYsgAkKuEiNP8FRIScgEQ3tZ9IzR8nd8M1/l+scyr3Aa6w/aCnB0XjwLS4/W7CGZzGFDdS3pX4aHbJ7Je0Hjtf4LV40xjf2EuKiG5DOd7cBjOwWF4SCF9JLyGIYPBxTCvguqLIiND4vRWz/OWi0MBCWTB00uPFyjDWfgZTqS6c/R/C9pLPxcirLAbksnFsM6EhISEhJwVGkB64upFIEAMfwWkj4bkoHeYyH3vopUBwjoDA01PU0kgUNpAGhGkb7kY+k7nISHnNxfBMzckJCSkZ/xAjKw23sp/6wIUJ4anApIb1iJE1pNJ+96M3Ati2YrOzi7Q4LguQghcpdBaoZRAOdlXdrg+7IbrcYUE1yb7CkUiEU60WEgjgeWYNDR2YlkOSutT6s8X4FoSEjIwhAtgSEhIDgPfBm+4oZESDEMiDYlAYJoGluUgDYPCwhhRM1uAzTK4n4eDM/wUkFM1YskZXAUoV9Pe3klH0sWyBMmuJJ1dnbhKkUxaIDRaB1uTaN8mLXzNZbg+57QerkcW0hMR06Th+Eki0QRJS7F773Fs1x2grWsGaqYO7Kw6D1e7kGFPOKtCQkJOxYW7PqRNm9ITUhEIhPCUENMwSDTHyYubRKMGBQUxooZESs+obnB+js3wUkB6VD6yh7W9S9Pa1kVn0qG5qYmkZeEqidISrUALgUYDJkJIv2lkju4cyvchA4gEXA1CChTgaIHrt9EOZl1PU6530zBIbB9unI/LXchwJ5xVISEhFzMugAoM0RrhOmht09zWhRAKQwgKCgswDUFhQR4FBXGK8gyiMsNcqU8RfJ+7wJ5jWXj4KCD+wGj/F50RedVlubS2JGlrt2hp7+JkRwdCSlylkMJEYAIiXTRAe80Z0h3rRdpXlUGoh4QMCDrnDz8LPUgk04Dup2TlefDCPJ6QkJCQkJALnSD5XPuROgJAerKAFCYumta2JEJAY3M7hhmhOM+kuCBKSUkReQkDKTyzpejWpyxH6s1JbxhqhocCkjEGmbbe9k6HxuZWjjY0YiVdtDZwhYEwImgpPFcVgOttIB1xL1JKSEod7Hm3ISGDQ+6U09m/9jZm0/taOFNDQkJCQkIudHoUHVIvCtDCM2pqQJs4lsvxzk6amhSxo60UlxRSUpygrCROVPawwWHEuVNAMmSqzM4JAmhPKo43NHOssZkuy0FrgZQRNIb3NZVbokx3Tw4+VS5JSMiAI7IyNbTW3j/SCrUO5qOGWDSKaZr+hE8ry8E9IIUArbBsm6Tl+nsIlZCQkJCQkJCLEpEj92pScoY0YiAFXQ50NJzkcEMzxYURRtWWUVaUwEhZ63soi3MOewacQw+Id8YKkRLSOi3NiRMnOXqsic7OJIgIyARaaJSvnqQStLNCqjwBsHuZslBoCxl8ghCrlBLih2DlNjLVQMSU7Kjfypqnn8Z2HITMKIggBEJ4pRIiUrFs2QpGjZ+E4wzHHJCQkJCQkJCQgeP0MmsQyi1SFnvvBeV/VQtAmmjh0tDaSdOO/ZQWJRhVW0FxQR6m8IyZaamjxwZ5Q8Y5VNU9y7AAACAASURBVEBEVrhVw4l2Dhw8RntnF4gIQsbQWvh6hh8L54fC91gkKuNieJ/pXdpvqKKEZNI/Q0D3WRR48zSggkVDCKSUvPTyyzz+2KPc8levx7Udb7/+/NVKY0YMHvjVL6msrOaSCZNxhOp5zoeEhISEhIRcNAhOnVOqUwkkEtOIonE40dJOS3s7VWUlXFJXQzziKSByGEi/50YBEenQlPYulyNHW2g43kLSdkDGEMJAI3yhLPN7p6op5AdgdWsdKbp95lTvhoRAP+fEqRaDnl7TGqVc4nkJaqqrcWzb/6yfvI4kahrE4wkkXjjW8C4aHRISEhISEjIw9Fcy1akQLaEFGgMtQBoCV7kcbmihvcOltqqUqvI8IuLcB3YPrQKSqnQFSkNjcxf79jfQZTkoJREyghYyXQlLpHt2ZG+jp1pi2QJat++dYqhDsS4kk4G6IYOQrAyfnFcgC40U0NZ6kg0vrseyujI+IwFBNBKls72DiGF6C8ppCimEhISEhISEhHj4EUNC4In4BlIqtNC0tzvs3tNAW2sRo+vKSETPrRIyNAqIAKXSv3c5vtfjWCtdXTZCGCBl6gOndC+dNg4lt9jYmQc2FOlCcul/RKTIUbC7e+mEX5NXuQ7VVZXceMP12LblOT5SVdwkUTNC/ZZXcGwHdKCOn2tbRUjIUBGuzCEhIRcrZ5BzdS9XyFQhWIHG66yOAEc5HG5opq09yeiR5VSUxLxyvZkRR0O0BA++AhKckPR+bUu67N57mMbmdoSIoaVJOmI+40f3jPJe7CSbM41hKNKFZKJzfvYFESR3BdpEzkaFvwwYUiCFYPeOHXz/+9/DSlrpuS4lWgkiZoTdu3agUUgpkUKidJiIHnIxECofISEhFyu9XP9O21hMd9+KznhdGGgkLW0W23YeYvwl1dSU5WFkpTv0/lDOhiHxgASi08lOh517jtLc0oGUUTzXkNe5PNPO2yfdIyRkgBjMaSeEQLkWHe1dTJ1yGR/56EeYNGkSSisMwwu9UkqhtcaUBq9uXsjYcWNobWtBGjGklKFoFhISEhISEtInuheIFQjDxHJddu5pwHEqqavOx0y1rxgaIXxwFZCMc2hus9i1r4HWtiTSiAMCLUXYaC3kokAIwRNPPMGff/8AUUOSyIuz+tFHUI6DYUa9nBGh0U4XQmtMQ/PY6kdIqhhvfOs7WbJkKY7rnuvTCAkJCQkJCbkAMKSB5Tjs2tdA0iph3MgSTDl08vigKiCBxba51WbX3mN0dDlebw/hWXxDd3vIxYIQgunTZ1BeVopEsfHF9dSMqGHEiFosy+Lu797N0qVLuXLZMhzHxsDFVYKkjlE3agyu44Z6ekhISEhISMiAoDVIaQCKg0casSyHCWPLiRlySET0QVVAlIKmliSv7Wug01Zof3dai4wwq1AJCTnfEN3/0tmvpBtmeh+wXYeyygpqR9bRcqKBu7/1dT72iTuZM28hbW2t5MXjHDqwn43rX8R1HWzHRgnJoqXLqays9BUQSUjIhU2oZYeEhIT0TFDhamC2pvFK/YNE6whHT7QjpcmEsaVEhmApHhQFJGi+1trmsO/ACdo7bEQk5ud5ZJbM7V4+NyRkeNPTXZndb6ZbkWiN12QQQEjWrHmWE8cbicXixGIxOjs74f+zd95xchx1ov9WdU/YnLSrnHNYJStjWQ4423BwYLANZzgTbIJ53DP3DAcc997du8cdx8EdRziDjQM2Nja2nBM4ybIsK1iSZeWslbTSZm2Yme6uen90T9ggaVda7c5K9dVntLvTM93VXdVdv1/9kpJ4jsZxFI7rkfAUwha4rh8X0p2sbgbDuYEZ6QaDwdAlvfh4TCsyfgIdISVHjzURDtuMHV7gB6afRRG99xWQoP5BPK45cLCGpuNtCBlGKREUCjTKh+H8QwhJNJzDvr17ePrppxkzYRL33nsvGs2kSZMQeCxavJhP3/QZYomEn5ZB2njKV0pkKl7KYDAYDAaDofdRQrD/YDWRkGR4RR5n0++idxWQpPLhaPbsq6a+oQUhw35xQa18ocqkuDKcZ/gGTsGe3bv56b//iGHDh3PHHXfwwH338k//9I+MHjWCI9VVrFmzkoTj4LquXxdHSBoamhg7cQqXXHLpKergGAznCL6psP0bfZydpXt0vB+zqW0Gg8HQc4Ql0djs3n8E2x7K4LLctBLSyyJIryogGvC0b/morWtGC1/5UGgQHZUPE4RuONc4USUR37z55htvEA5HuP0rX2NQxRC+esffcNnm99myeRMjR4wkHk+we/du32dLCLQQOI5i8vSZWJaFdl1zx5wWgeCqdf/IiDpwwzN0g/aVsFJp2bU/h/j573WQBr8/BX5jwR94GAXRYOgOwrJwHY+9B44RDQ+hqCACgOxKbD+D4oW9poAka31U1zRSXVOPFiE0IqV8IEQX1g+JeZAbBg6ZpUK7QuPfCRqZTGUXyLxSKD7xib/kUzfcQCQSobWlDSktps+cy/SZc1CeF1g40hXVFX7CBikEnueZu+Q0EGjCkRBSyKQkm6oI22d0t3KtAZCdLpYUAoHGdR0SCQfQ6JQxpL+ESiPMGvqATg8OM+4GJhkdOSC6UCDtMG3xBPuqapgycShhS3Zpg06eWccazN2hVxQQHbhetcQcjhxtwPUkQlpBW3TWGc4NhrNKxmBP6txKQzTH96d0XQ8tBApB3HEzPp5WWlI/hG9VNPQcv/ijy5tvvsXR6qNoNJZlgdbGIpG1CPwk7em7wvP8GWT8hPFUVs7E81yywx3LWPEHFqrD36daUMoCRCBc6S6qWxsGDOlFrwHUi0IgZIiG421U1zQxfHAxyQIavcWZKyDCv60VcOhoPcdbHbDCQS6g5IpjVwygjjAYzhANKKVIZZuAU8ZDGfHmzBBCEIvFePaZZ5gzZw5SSlzdUQgxZA8CgUApjdDp0Edp27S1xXj6icepnDmr34vXSiGxbAvwTFzWgMK/931hUKMUZH9tV42UEim6KapluT513hJM5q7n9HdLeoQQErTkYFUN+bk5lAWuWO0+cwb7PzMFRIBCoxA0tCSobWhByzAoC0jaPpLo1Hc67cRgGBCIwAc9+WcPhQ+dvieEEMY22Ae4nkdZWQU33PDpVBhIv8WCDED6XL7WArRqd58JYdHc3Mjd/7UdrYNk7v3UfwJobm6mubkJpeJdPAOMQjIQEEKSn19Efl5x1vaYrygJGhrqaGltQ4hTLZ4Yd/ZsRWvIycmluLg0492BMQkJbJxEgiOH6ynOHYxlCboS7U+HXnDBEiQczaHDDcTigLTSMSm64ypvZsMzhYCB0REGw5mReaeaMd9XCPyVTqUIVqyNFQTovWpWvYrqpPUIofE85c8l/SZf+UlUXCfB3Xf/EqX9CMf2t7EZW1mNDnzYJWjPRTke37rr+1lqxRIIaXHkcBV3/+oXFJcW+9kROYlTu1Y9XxQz9AmWsKirreO2r3ydocNHoDw1MBbCRBCHaoWpq2/haG0LQyvye23p9IwVEE9DbX0rDfWtCBnGU7qbfmLGwcRw/pEqkJ7tD55zBo1GobTvcuFjLj6c2gWw/2g/L+hkO7XoZ2FR4XpxtE5w+213EIlEu/iMmdOyDz8RjtZ+3J0AnLbj3P2zH/uCoExHHGVL72kAKWlsaGD4kMF86fbbaG2LoVJmXN/FvdM9bBSQrEOgiYbD3P3zX3K8sZnho0J4XiIYc9ndX/44FHjat4QcOtpASWk+YTsty8hUFHrP93/GCkgi4XHsWF2gT6hkofgz3a3BYDD0Ah3dEjL/Ns+prKOLYFuRJSvUQvgWNCkl0ZwIUlgmmcGAIKmAAEg/lWgojBBWP7fr1Gg0dihEKBwm5PkxhCpQQESnIHptFJAsRGhNJBIhFA371qsB1EXppgrfFbbF4VhNC8MG5/WvBSTpSl1b20RrWxxh2eB5CG1lp2XfYDCcpySVDvNgMpw5WoPnKZDKKCADhowU50L47pj4cXgii58LSQuH0L7KoVIm9KSi3mEAmvGYlfg6o+9CqgboQ0MLgfYsjhypp6w4h2i0c8r0nnLaCogQ0BKLU11Th9ICrcwEbzAYspFAATFen9mPEJ0tHiK91tufXRjUBw38ok+UytnMgdmKEDIIANFBbZkBhGj/6wnvAfN8yzp0EPucTMU7oMZdBhqQ0qalLUF9U4yh0dwz3udpKyAeUN8Ypy2u0MJOpd0VQqSCG9v5J3Z6Wps7xTDA0QKEbxY3ZCuZK4Xpp7/psSzmJCb0/uw3ERQ+THq5iGQd3fQn+rxNhu4iuvgrUGwzvWL6qwsz4pGTddW0yGxQWqbqymajM8ekIcvQfglx4ccj+ln+/EUxoTovtmRTfGg6NiqYRQUgLWrqjlNWnEMkdGaN7bkCEszjjqM4VtOExkaIILuE8MPPO13ATrrGAIj+NxgM5wjtK2dnJHjtrwYZBiiZwcq+MJh8Q9OvSboM3UAHLlc+ApAZW9Lv9j2Z1r3MKLX0z+S/oMXtFnczPmn837OTDMupjz5BjvMs9SRK3R6+7N50PMbx5jiRkiARx2k2ucf6sg6uW3NLnJbWOCqlqne3BUb5MBgMBoPBYOiSTOU2/WaHn4aBQkqpTOqJ/diW08F3bNIpBcT1PGpqj6MyHUB6ogYE9EwBScc/0djUhqd0yiRIxyJtHb7ou2YZ5cNgMBgMBoOh2/R4oddg6EWSoRXJlxQ0NjXRGnPS1p3T2G3PPQY1KE/T0hJHa4lGBnnaT3FjnDA9XEejo8FgMBgMhj4nmd7SkGUYxWMgk4w1GrgqpG73klKS8DwamlpQ+vRrKvZcAZHQ2BIjlvDAslF0KhuF6PA6MbqLl8FgMBgMhj5F08+FHg2Gc49Mxx9xwtiPbKe9nK4EeFJQf7wZx1PtP9IDehaEHqhv9Y0ttMVdhLTbxzydQAXqOi7KKBwGg8FgMPQ7qbTCfsVwgT7RxH1KupvgtnPJSYPhHOUcG+o6CKtoaY3hKQX26dUE6ZkFRIDjaFra4njts1oaDAaDwWDoK7SfiSsaiWDbwVpikCVGIJBCIoTAktLPsJT0lcgQFIQAS1qBsuFvEFIgLQtLSixpEY1EkUIG3wcpJLZlpTPSEGSUEsJ/v0vPhvQr+c+QhWiwLL/POyqSUgii0SgyQzENii+c4h+n9UoeUwqJFIJIJOz/LSVSSiLhCJFwuMvTSJWAMMPsLCLxPE1raxzU6e6hhyRcj1jcA+lX5ey9qo4D1zvOcH6TjA1M5m839BPJQE2d7oyOE1rvH1Oc5qtdo8+0ER32E+SYb7eCnXyvq4Xt/nKB7e7xMtoW3Gyil5qbSuzS4dX+0F2Nov6fq6QUWELwyssvcaz6CGHbRgoIh0JEo2GikTBauTQ2NCCQfimCpGu01kgElpAk4jEkvtAmkoUktEIrhZSC5cuf5NChKizpW0b27dnNqpUrfcVGSF9AlBYaTUtLi6/0WJJoNEo0EiEa8dsSzYkSsk+79FgvI9BCozIUIt2PXhmdjqyT6YL7tk2WJdm/bx+r31lFKGRjCUEkFCYnEsVzXV5+8SWU8siNRomEQn4btSYcsgmHw4RDoeBlB68QkXCYSCRMJOx/PmRb2LavwNq2RSTqKxKpVyRMJBxBolGeh1IeLc3NPPfMs8RaW/FcB0sI3ln5Fn/60yvYdijlOphMrezEE6AFUghyItH2+w+HkdIUTDkzJEkFpL6h+XT1j57XAUkkPBKuC4TSWa9O+1mcXQ90g6Fn6OB/kSHCdRAw26Vnz1g56lKoOflxDJ3pOvFeRk5/jV8r8iTXWmTmR+zwfZ1aSTtZH4gu/1LaVwKElNi2766qNbiOQ7oYVXCczDZnVpvo8WNRp1YJlco4htBorRFSIqXAc/2zFEIQCtkgNJ7rob2Op9r5vLu65lr7gYmWZYEGz3P9DIkqKdj55yUtC8vyq517Svnm+06c5KTTC/UnbF+P6LQ//02h8a9ZcAiR2SfJFvbjbZm0OAg0q9/6MzWH93PjZz+Ppz02vbeRqqpDSEty5Eg1TsLjLz72MYqLi9BKY1kST2uU5xKPJfjPn/yET37qBsaMGwdCICzJ3l27efap5Xz6xk/xzFNPkJ8T5tmnn+Liiy9l7ZqVuLEWLr/8w7TG/FT8liV4/c+v88orf+Kf/t8/c6TqIOvXrsVLF+BBaI9xEyYxfsIk3C77/WySLN+X7L90fKoKHtfJrX0tiSilkUKCAKU9kjaFlM5NHzVKg5SS401N/ORHP+Rv/ue3GDlqJO+tX4dCc/RYNQ/few9bNn2UydOmE7bDzJ4zj9z8PFa99Rp19Y0gLASaUDiM53koFah4nsayLebPn099Qz0WgjFjx7J35w62btuK8m12/olqj5AtmDNvPg31dSx//A9c85GP8+zTT1A+qJi3317Fddddz4rXXqJ8+Chy8nKQrRrH85DAm6+/ygdbtvG1r32DmpojvLt6NV7SZQeFZQlmzppNxeChJ3j+9BFdPHuyd6bvOMdpQKKxaI15OC5YoZ7vtccKSFs8gesp0vVwko/mnl46o3AYBiCdsrmlR79C+0kZdFpckSLzcx0FylPfAyYoNE2XLumBR4kUglAkhOd5uK6DVoCQCKWRGqQWeKKjU0HmTvweDI7UblPyl1S68Y7fzXj2tduqNUJIBB5bt24jFmsjmpPLpEkTUW7gEpOcdDP3knJt7VI67oL0ap4QvlX6vrvvZvSYMVxx5ZUkEgnQGktavPTicyRch6uv+giWlLTFWtm8aTvSgiGDh1I+aCiu66asJ1r7aUZEZqbDTlKaACmIJ+Joz+OFZ5/j4ksvpaAgH9uyUVr5K5/hEMeqD3Ng/35ClmDipElE8wtxXO+E55N5TZPr1aADHf/MxUVfCWv/nkDgeS4hG2w7hOtqlAoWDTQIFALVvme6rNtwdvDdqgR/fOwPbN6wnlisjddee40P3t/IwsUXsmLFCnKiOVy07GLmzpnNjBmz2bBhI4/+/ve0HG+kqaGOS66+nt27d9LU2MA7K1+jLd5CXl4BITvEbV/7CqNHj8C24INN71GYF2H3zm1EIxajRg7mN798m9HjJ7B2zSqUUuTmFzN48CCeff4pFi1aTPPxRlavWskjDz3EDTffTDjsFyv7/f13M3/hhUyddhduLNZHV6vdhQtEe40OnuP+AoNsN4r67IkrAO0vPihAaIUdslBK46nk80gl11HOfoVsAU7CYdasmXzxi1/gvfVrOFR1gGee/COf/MxnGDdqON/+7reRlqS5pZXf/PYe/tddf8+YsWP4z5/8PxYsWsaMWRfgui779u2lqKiIwsIiPOWB9K0roZDNi889S140zOTbv8Ybf36RPfv2s+yyK3AdDwF4boI/PvYHpAUXX3wJoZDN0cP7yI1YbN70HqNHj6SgIIeqqgOMHj+eDWtXI7RHcWkFBfk5vPTCM3z48iuorTnEu++s4sknHucjH/0EoVAITymeefIxErFWPvrxG/ASqsPSwlm6tB36Tme4iCWfHNk9059g8AmbhCNwXI9oyOrxXnusgLS2teEqjbSS5upgEjD6hOF8JjB8qBMKRicypZsbpzv44m/765deVxdIAW+98SqTpoynomIInitQKlAZ2ukNJ3rMB5OA9oX4pPDf/php/yWtk7WNMvfpr+wnlQdLCKSERx97lPc3bmDq1CnU1NZSdbCSiy/+cNC+DEeLDIOyTj1STy1kt2+hQGvN+xs3Av5qN1ojJdi2YN/u3XjKJTcnwrbt23nk9w9RVlJMOBJm/4Eq/vIvP8W0adP8lcvkCqxSiCCOgIyJM3VMAZYdYvXKlbyzciUH9u3h0IG9lJQWc/Mtt2Ip3xWi9thRfvGf/86oUSOoqT7CHx9t4s7v/jPR3FzfWtMF6a7LcB9LTTnJGlS9i5QWBw/sYcWbr3DlVVcyZMg4PFeidCIYG/2LVgorFGbJkiVs2bSB226/DcuS/P33v8+nx47i3TUhZs6ezdVXX09bLEHCc5k2YxoTJozml//1X8Q9hyOHD1B/rAo3EUeSwIs1UdN0jJ3btxINC0aMGUM05LHpvZXs3bGRsqIII0aNYcO61Sg3TmFeDq+88Axr3nmHz956Ox9sbqWspIClFy7mrm9+jbHjJjJ8+FA+8fFPkJuXh1KKla8+G8QP9P81TJK+z/rn4EJYSClQKsGzzz3FmDHDqaycSSSci1YCoaX/6qNWCimwpM0111xPIuHwwvNPE4u1sGfbNiIhf4lNSouW1mbaWo5nWHIFCxcu4OLLrqK5pZVv3vE1rrvueq69+hoSjuOfbmAllUjQCkv4boTTpk3h2muvpK0tgRQCz42zevUbaOWxeuWbRMOaNaveZM+OTZSXFaDdGG+96eAoRTzexlN//D0fbFzP1//mOzQ1NDB8SAXz5s7gG3fcyuzZC5gxdRKf+uTHsC0bT7tse38tWrt9cj3PXYLFGCFxXA9PuWisHo/SHikgSkNLa4LTyd5rMJzLaHzztW3bRCI2nvInWtnuEx0n3m7cR9kzV/czXaf0FppAERC8u/ptXn75KeZfMJ9Fiz7EkKEjiNl+EGPSl8afKvUJzCmCcNh/JDqOSygUQgiB4ziE7BBaChzHDXyOFUoppGWhPH8yC4fDeK6D8lws28a2LFasWMG7777LXXd9m6FDh9DWFqO5uRkpLLSUOE6CcDiMbVu4yrc8hMNh4vE4EoGUFo7r+CulunPobjgcRmlFIuEQDttIKXAdhbBEIKwrQiEbpT208nz3JymJxVu57567mTJtCrfc8nlcx6Wmto5QOIxtCxxHobUiEgnjxDVSCkLhCEppEokEoXAIz1NpFws0JWVlSDtEfX09+cdqGTNuPJYUuAqUUhTkF/L1O/6G4cMG09RQz53f+hbvb36fxYuXpIQUv6szXBVTCp6vgEQiFp5SqJTlqHcEs8y92LbE9VrZsHE1+w/sYtLE2SxZsowRI4YhLekHaUur2/ap3sayLA4fPsL6detorK/lnrt/hfIc8nOjbN26laamJhACx3VTJ2bZkkcf/T01NYf57ve+h8Kioa6W1tYmDh7cx1XXXEtbawutzce57MOXM2zECA4f3MuPfvjPHKs+QjSSz4cvu4KHH36QQ4er+NVXfsuaNWs4UFXF1GnT+Lu7vknlrEru/c2vmV45izFjx/He2jU8+MADhCMRtNbs2bWLkaMn9sMV6xoBRG0LpPQtpsGbostnw1lqQWBV00gOV+1lzerXWP32m3xo8UVUVs4lGg77ltzALfBsWkGSu37xhRdoqK1h7gVz0UpTNqicSy+7mmg06Ubqx/ok3CgFBYX+dwV42n82eE6CSDQX8K2inucRDoVT7k5SgvJclPIQAsLhEJa0gpgigRfkrRUI5i2Yj+sm+NUvf0ltTTWDBg3moosu4de/vpvS4hJu//JtvPTyi2itGT9hPD/4u7uYOWMGP/nxv7FwwXxmzprHg/fdw/2//TXSstHaY8vmjUyZMR0zuZ4ZyYW2RCKB456eK1v3FRABCUcTS3gI2XsPfoPhnCBwt6mvr+OtlSt81ymhkBkuPKejgPhCjnlQZpqqk4iMl9bgOTE8x2HlW2+yaeMGKitnMWHCeDzPX8HXSvuTOF243QiBEILf3nMvjuvS0tpCc3MLt9xyC6NHj6KhoZEHf3c/dbU1FBUV81d/9Vm2bt3C6lWr+Ood/4Pamhr+7Uc/5NYvfInKykoe/t2DaCFY9dZKJk+cTHnFYFraYlhCUlxUQkvzcR577DGOHDlCW1sbH/vYXzB33jwe/t39xB2H+rpGjh49yhVXXsGypRchpUQHSggEq4mWxc6dO3j88YdBQPPx49zyuc8zbtw4301IaKLRCE/88QlefvlFKoYM5sDuncyYVcmePbupOnSQW790K/F4DMdRFBUVobVi7do1rFixgmPHjjFk8GC++MUvsWv3Hl54/gUGDapgz769WJbFrbfeSmlpCZ6nQCtisRjDhg2lZvgIKmfN9IXgRCJlgpKWTXFpGbG4i7Bs7HAkZbERmb3axdQiLYtjx45w/wP34bnxwDVM9IpE1mk2k4JE4jj5uVGceIy1a1fywQebmDJlMjNmTANPI7D69a60bZtBgwZx82c/S3X1YWJtbYwaNQrXU0RCYV567lm2bt7MsaNHGTp8OIuWLOHA3p1YQvAf//Yjliy7lAP79tFYV0t11QFWvPY68XgbCddl5KhRbNiwnuefepolSy6htSXO4SM1LF/+LAlXUFExnPqGVvbur8IOhyksLuXOu77Lq6++wvYdu/npT7/LG6++ghBQNqiUSDSK5ynCkVx/sTwVH3eihYCzj5QWDQ21PHT/vShPpU1rfaxVCpF8Hmlam+rIi4Q4cnAPy/94kHVr3qWoqAytvD5xxU0eoay8jBWvvUhtzQHGjJ1MS3Mz99z7KyzLwrYk8XicnNxcmo63UF9fx6DyQYFSXMV//PQntLa0sHv7Fl5SDh9seR9PeRyqOsw111zN1VdfjVKur8gLkEKzfesWXnv1VZQClCYRa6bmcDVOIs7Gje/z7DPPcsXlV/LqaxYHDxzi2WefIxLNobW1jfr6Bg4drqa0tIKCwiK+/JWv8PKLzxGPeXz1G/+LN15/jVA4SllZBXYohNIu0ZwClGfk195CKY2TcE9LI+iZBSTQYH3DdzABZJlJ1WDoWzRCKEKhEAUFJRw9WsvyJx9HKze5uVOM1On4nJ7vd1jnJQ+dcndKZuIRFoRsiQhJmpsbee21P7F92we0xVwypJ7OMo8QoD2ktFi35h3KBpXzP771tzz15OM8fP+vuet7P+A/fvojJk4Yz5e/8AUeefQRfvyjf+H2227jN+tXU1Nbw+FDVWxY+zYb589jzLixrF71Op/81Gd49c8xygaVoR0XEgplgbAEzccbWbpkEePGjuOBB+/jdw/cy4wZ0zm8bwfVtXX8j//5HXZu38FDDz1EeWkZWz745IoBPAAAIABJREFUgJraWoQErT3ycvO4aOkyHrzvbmbNmc21113PKy+9xL/83//LD//1XwlJiS0lO3fs4JEHH+Abd95JSUkx//yP/4BE0NTQSElJMeWlpXgegIXnaZRSKA9u/PRNSAH/8L272Pz+RkDw7JO/587v/APXf/Ravvudu3ji8T9w+1e/TltrDOUqZlXOonJ6JePGTWDatGnk5OTgel5gqhdopfC0S0FRAU+/8hJtbXHGT5jQDeFKYFuStrZWdmzfhefFENpLjYveuDlSiizgeAkggZAaOyyJRiyajzewZcsH5OdGU1afvnKL6YjreRQVFjJ23Dg81+Hd1W9TX1/PwkUfIhLxsw4tu3gZkyZP5oF77+H227/MwYMHmFk5m8WLFvGzn/0YWwoWL15ES1MDWzZvYPbsWZQNGsTW7dtRWuM6Hn/9hVvZ+N4mLr30Gq7/6PVUHT7A6NFj+Om//4TNH2zm2NFqpk2dRlFhEaPHjKeh8QmuvfZ6ampqaG1pobC4iMsuu5Tc3DyUFrz0zGN+PEAWIIQgHo+xa+d2lNLBGNQZ7pd9gQ4sCgopNZYFKJdISNPa1sye3dvIzy+hpKQ8ULj7okmahQsWsH3zBupqjuEpBykVY0aUkVtQTCSSw4GDB5k5ew7r1r5H9dFqJk2eSDzuMXjwUK67/hMcb6pn155tXHPtVSxcuATPU3z3O3dx7Ngx3xodxHABeApqaus5eOAwXhCM78TbiLXG0AosK8w37/xbfv/QQ1x++VX8xcc/zq7d+xk2fDg/+bcfcaz6MJs3bWLWnHnk5OQzbOQYjrcmWPbhKzh2tJ5EPM6oMaO54qprCIXCaO2wdvW7xOMuZhH9TAj6MPBhjMfiIAp6/CzukQKSSCRwPRcpBWkHYTIjbQ2G8wyB63iUlgzixhtvob6+3g9yTAbvpj4XuBC1853P3No1Wus+Wf3KdgQirTjoICQ8UO6U8hAIVr69gmM1x5ACyisGM2P6TEaPGsXTTz+HUt2IVdOKvNwoCxbMZ9iwYYwaNYxNa1bQ2FjPzh3byM8N89yzT7N/3z527NhB2aByho8YzZbN71N9tJorrr6e3Xv2sGvXbuoaE4yfNI1ErBWn7Tghy0LZfrCp0g5DBpexYvsW1q17l507NnP08F5c108duWTRYkYNH05BNJff/Oq/qdp/gPkXzON4cyNCaLR2yc0roL7uGHv27ODLt91OTiSPxYuX8oeHHqKupg4hBLZls3HDRhJKM3/+PJTnMWv2HADCto0Tb8N1HHJyLdzgwobDNmPGjOLNN1fQ1tpCS3MDDXW1FJeUUFY+mDmzZ1FcXMTSpYvZuW0b8biLFCIQyn2f9gvmzUcpFQTSBoZ67duvouEwO7Zv5b577+Gvv/gVKsorSDiJk/e9lGitKS8fwmc+/9doPIToeH+dAR1yQ0gp2LN3G8uXP4GrHAoKS6msXMj8+fMoLsxn+7Zd9OeSgBQC5bmsX7+enTt2sPX9jbS1xXju+ReYPGk8La0tFJeUUlRUTCQ3l8KiIgbF2ti4aSPFRUVoIBQKs37dehKxVhob69m+YztDmlspLhlESFogbVasWMFjjzzE0kuu5PUVr1NSWMDs2fOYMWMab/7pGY4cq+GGGz+LZQmeWb6cd1a8TfmgoTQ2NJEXsaivreV3D/6OSCSK6yl2797NmPFTAm/I/n2mKeVRUlLGjZ/7UuDR0T/tSS7muq7D8uWPU1W1n9zcHKZOn80F8xfT1prgvfUb2tXeOKvtEQLXddFK4zgJDh7Yx/DhQ9m7axcKibRDHG9pxYkn2L1nH3PnzsVxEqA8cvPyyc3NpeV4I9FIhLFjx1BYWIjraiK2pLS0tN16tdZ+KYf58xby6ZtuJhZ3EAiceIw9OzYjLRul4flnn+PPL7/A1ddcywvPv0DF0BHMvWAeI0aM4OnlT9BYW8eMypnEHYdHHn2Ut1a8SXFpBZ4HUUuzbctWfnv//X4QuhNn06b3mTRtJv15D58r6ECmOd2sdj1SQDxP+enMhNUuGZDpRsP5jFJ+YaQJE6YBgdLQ6a5Q6ZDZZM7yIPUinDhEXWcU+zqfSQaaJ4WXIKTD3yY0Asmbq94lml/EBXPmsmDeAirKK2hqqk+lnu1OsvKkj7PruGgliCcclBJoJSgvH8y4cWMZNXIUH//YxykqLmLewkWsXfMuAMuWXcKLL73I2yvfpHLGdEaMGMGkyZPZtWc3nvawI1Hf/UAoXn3lBZYvf4rPfe7z1Bw7yN4921KrsK7jIi0Lx3MJ5+QQjkZ5593VHK0+grAESjmUlZQzdNgwEgkXpTShkI3ruTiO57trEUwOvoaGUr51IxaLkZMTYcjgodTU1LN9+w4uXDaCRMJDCEFtTTU/+tcfMnPWTGZUzuCdFa8Qi8fxtMJzHRCCUDhMW1sMKS0sywqsHL47jRDguW46LD8jaD0UCnGk+jA//vGPueb667nyqiuJuW4HBVt0slD58TaanJxcRowYgafdYNGrd1yBtWqvyNghi8bWNnLzypg+YzrzF1xIRcVgwiGLtuZGtPbdDqx+CoUUQhDNySE3N4+83FyWLPkQGzduIhwOMWfOHJ5+6ilGjByJG8QmOYkYFRVDmDhxEg888BtmVs6ioKCAocOG4sTbiIQjlA8qZ9SoUTie4mDVQYoKi/jzS8/wl5/8JAsWf4iXXnyB9Wuquezy61i4eDHfuP+XTJ0xi6kzppNwYiy9aBlz5y1g/Phx5Obk8NLzT5OTm8vYsWOIRKIoLSgoyAvc7XQ6iUOfodu5fGmtCYUjDBsxCqQd5KEKru9ZTzeV2Sx/7DleAqwCxkyYyYUfWszYcRPIyy9h69YtaCHRfZhlzc/2oKitqQYrxKQJkzm4dyfSsgmFw0hRx9AhQ6ivb0CgcRIOeQUllJaUEbIl69avo6CgmOHDR6KUh+e5RMJRSkpK/NoyGdkIBQJpyWANO3CFE/78ads2th3i2aef5JZbPs/sOXN45A9/YNPmbVxyyaUsu3gZf/O1z3PhxdcyZvRolKe4/PLLuWTZMsaNn0RuNIc/v/I8+YUFjBs7Fsu2UV6CosJCfOuT7J0FjPMZ4S8QKU+l/u7JQO2xC5anFMj+Mj4bDNmHEH7qRJUIBK8T+oXodj/9VdzOW9u9Z5QPIFgpzBAekvj+036WpYUXLmPEsGEMHzoMicD1wHVFSvbozlFisRiJRAIpLdCK1tZmcqJ5XDB/ATU1TeTlllJ99DANjUeZGnepnD2b++67h6lTpzF27FgsKXjmj4/y7b/7Pk48zg2fvol///GPuP/++1i4eClVVQcI25rGxmby8wrJLyikrr6OeDyB1n6djOdfeI7R46ewdu06CosKWbBoIbbtB6PLQEGyLBvX8fjzay/z8MO/5xOf+CR/ePQRJk6ZxuDBvmAZi8WYOXMWlh1i+fKnsKTgjVdf5eJLL2bYsGFcccXVPPjg78jJy8cKRVj9zmpGjRzOocOHWbR4CUILjlYfwnEcpJDUHDvEs888w9wLLmDlW6u47iMf89uVSM4JwazQRbpjKSUtzS38+Ef/iuu4zJw5i00bN5FXXER5RUVGn3bh2pQROOCnKFUo1fOUjyfsddFek3ATmorBo/jcF77C0KFDsYTtu+koh3YrBv2FEDQ2NrF8+XIuueRiWhuPUVpSyrYtW3iotYWcnBzGjBnD/v0HUkK3lDYzKmdy372/ZPKkqezdu49IJIwAhg4bRigcxnFdP5hUWEyeMoWxEys5cOAQ06Y3Ultbx5VXX0txUREH9kNbzE+2IIXEcz0c1+XQoSqWL3+S8vJBlJcWUVRUzNKly4hEoygNTz3+Oz+OIBRCxOJ9ftk0pJT84ELiKt8C4VtIU2/3Eel7RosQ133kLymvKCc3GsV1Fa4ncJUfy0Uq495ZRoNt2cTbmjmwbyeXXvkRxk+YRCLWxvDhI5GWzb59+ykdVEFRSS35+UVs27aN4SNHM3nyFHbt3M79v72X2776dQqLfYWjLRYn4ToUF5cEllKF0jJ1TgcPHOD99zf59eWEoK25haM11UhLMmH8eCpnz+doTR2NjQ0cOXyEz3/hNiLRKJZt09bm+K5bloXyFLYdpupgFc+/8DLFhUUU5kcZNXosF160DMuyENplxauvIaVFOBQiFndMjOUZIoBEwjnl57rC+sHf/+AH3T1Kc0ucI7VNWFY4FQGfjgMxGM5nAqWCQCBGdPHPn3L8hWmRNnskV/K7fJl/yX/JayUQqboUAv/Zo5Ri1KgxFBUUoj0dZIa0SMRjvLdhHQsWLcELPi2g3TPLfy+9IjZ23HhKygbhKY+c3EKmV87igjlzqatvYOPG9bS2tTJr9gUUFhZRUlqCVh6zZs5m6rRKSsvKyMvN4bLLLkdpSUlJKXPnzmPbtm3s3L6dtrZWLly6lIkTp9DQeJydO3YxYtQY5sxbwJQpM1i98i1GjR5LY1MzjuNw0803UV4+CKUUlmWnXkJYRKJRKisrqTp4iF3bd5KXX8CXbruNaDSKq2Dc+AlMnTqdCRMnsubd1ViWzYc//GFGjRnDsOEjqZw1m4LCQtatW8/+vfsZPGQoFy1dxujRY9m6ZRutrTFmX7CAceMnkkgkeH/zVuYvWMiWLVtYuuxiPnzZ5bieypjATzwPSCk43nycQ1VVVAyu4NChw+zesxc7ZDNq1KgMDVF0uTLuOnHWvfsOC5csResgLXCQOCCZnvd0Xu3HQPoMopEcCgoL0MmaDEEqY9eJs3btOuYvXILsJxOIEIKmxkYsKVm69CI2rHuHnNxcPv7Jm7j3nrtZtuwSLpi/kKpDVby3di1XXXMtDU1N/PLnv+DiSy+jbFAFGzZuQnsOiXgr0UgYKQTNzU0cb2xk3959jJ80hUs/fAVvvv4GP/u3fyCRgM987kvU1Tfws5/8lGs/8hccqT7Cnj17qJw5jzfeeJNYrI1rr72ehrpa3nr9z1Qd3E9tTQ3r1q5m9aq3Wbd2DfV1dZRVDGPwkKHJk+mjq5bMf+eXu9Oew7vvrGTBkqX+Oxnx8MnaZn3xAhG4kgqKi4qRQuKHyfhW25pj1Rw6uI/58xbgJNxTXq8ztSpZtmTN6ndYvWolCMnYceMZPXY8tmUzd95Chg4byfTpMzh48DBCSGbMnMkjjzzCvPkLaWxo4If/5/t89OM3sOziy3j6ySd5488v8spLL6GtKNdcex22bfP2W28RiUSYO28ha9e+y44dO2iNOezdt4+DBw6wb98+tn6wkbnzFjFvwSJmzZzF7x68n3v++98pKC7nUzd+lsNHDvOv//yP3PRXX2Df/ioSjmLC5Em8/uprNDU1cuVVV3P40CHefXsFe/fs5OiRataufofV77zN2ndXceTwYYaNGktZWflZX+QTQDhks3bNGoYPH0l5xWBU0guig/unPzAGljwtlCInLBlcXtTz72p1kqufuUXCkWONbNpxmFAkN3DBCuqJDqzrZTD0Lie8AbrO2tTpU1pn6iGGLkhN2kkrCO2vVzKzlVZpAUIKyfGmGn5779187Rt/i6tEO8EzyCflP8UCV4hwyMJVCtfTWEL4K/xBgSzbtoLvChzHQ2k/jWQkHEIpj4TjYdsWti1x4i6u8qWaUMgO/PY1QoLr+mXIbTsctMf/nFKaf/mnv2dG5Sw+fsPNuK5fVNHJiJEQIpkJyz8Jv75HKHVdEokEoAnZId9i7bp+FXZLpM4VDY7jW99C4VBKddYaXNc/BykkGuW7qoRCvPnm6/z4h//Cr+65h8GDB+M4CRKOF4hz3bPUSSmwbZFWNoSFp3TgP9xZiUn7vWvamhv5zS/+gzvu/Ds/57zsvTS8AlIuxRrQQvjnJXT6WiuFJT1iLU3896/u5vY77kTaPS6j1WuELYuammM89vADHDlcxc1/9dcMHzmaJ558kuuuvYaS0lJ27tzFm6+9yq1f+hJvvPEG27dt4+abbyInJ4cj1dXUHD2KlL4FSAdmQh0o9Xv27Gf122+Rk5fDFZdfSdyJs3rNBtavX8e1V1/FJz91A7V1NfyfH/xvplZW8uUv346nPFzH5Vj1EZobarFsKxgj/ri1bImrNIXFZQwaVM7JRI/ex0+ao7CwAJVo5ec//SG33/kdhLTbmUhFu3F1loO/tfDjo3TymP6zQAMh22Lrlo2sXv0mX/7y12luiaUL2LXbR/r+E2cQjysA13H5wx8e5dKLl5Kbm8tLL71EddU+LCn9bHf448Wykilzw4TCYZZedBEvv/gCF198EXMumE9bW4LDhw4Sj7cihaR88FAKA9enutpabEtSVFJGQ10d4WiEwqJikkoiGmprq7GkzVsrVvD8k39gwpQpXHv9x9i6Ywfvv/8BB/ft4sKlF/H5W7/Ipo0b+fnPf8FHPvZxLrroQr9dnuLQwSraWhqxLMvPhAgp1y7XU5SVD6G4pOSsV0MXWpOXG+FXv/wFCxYsZur0mTjKAzRC+VI0wdkPFAVEJLMxCoF2HcryJLNmjPY3ni0XLNELD3uD4dyjY+aUDJNGh491eW8mXVYEPbp5z0faRwvQrngfdHh2C/8BqQJ7VDIDC6KjG1f6S3HHA+GLYX7NCz9bikaTcDoWr/KF9lg8+b7EdTWu6+Gv5PuCnZNIZ0SDtJDguGmzdXI1v6h4EAWFpcTjCRKJRMrSk1KX0j5+ACjVlflbpNsqJI6nwOs4sPx9xBNup/ec1HmmY5Vy8woZPX4inoK2tjgqEFY7jvyT4Xkunue70vl79tDIU6Z195WuTCUl2dbeUUA633IiFVyZ3r8OZENfgxVSZCiDfU/C9SguKePW278B+C4oWmtu+sxnUEoTT3iMGjOWmz8/lnjCZeHCxSxa/CGUUrTFXUpKyykpq+i03+Q9VdfYzCc/81dMmjTJt+hKybCRY1nyoSXMnDmT1liCwsJS7vre99mzew8trb6gqbWmvGIw5RUZ++4gUCXjkfpW0Oo8VnSGVdVPid73fZmO7Mh8+OuUVRb8Qn99kQVLA3bI5qabPxNk5pJ86sbP4HpeynUt010pGZ8Ysm00MHHKFCzLxvEUdijE6LHjEdK/R5TyAjc3SVn5YDR+THFR2SDQ2n+GCVBaI7SguLSCRDxOSVk5X/7mXUyfMQPQTJw6g8qZc2hsbKSyspLjx1sYN3Ey37zzW7S0tOC6KpWtdcjw4UgxIri6nceap/VZVz7OdTJUp9Oix0s4fRs4ZjAMAAR05ybslqXQ3F4npJthHATh1+ggmDFl9tCdlY/09zrVPKd9Z5xexwgyTC4ddtHOgqM1UghuvOVWbClxXBeFTlmaOx+9p+05nfYnrSoOkyZN5nt//wOiOTl40F547EbHpIOORdA33WuV31WBstPpOL3nAtV9K75u96PfEKAyGuErvf71SiYf0FqD8i1Pyo+cD74b/H0C5UkDCxYuBASuG8S9CBgydChDhw3D8zw04LguJcWllM4txVNe6ridLBudhGeRoYT2Fek7OnVcDQhJehT238NXZGT1abc00js6do9IZl70lMJLHl5IlNCdnpEaSGS4r2nX84PMpUBphXZ1qgJ6cuEl5X4kM+oakV5c0cIfW9K2WbhkCVopnFQ1dRg+YgQjRo7E8fOH4zkuw4YN83/3vFRyF601XvJYZ+ti9QhfATvXZOgzMUz0zAIi/NUwIaVfFr2/H8IGg8FwUtJCL9DZWHWS7/X2RNG19Sv9i9KQkxP1syxp1eH4wWptFyfQnXae7kp98lvSkuTm5Z7QbeZUbRBC+NXYIdV8X7DpnlaeskNk1ZyTBSbLwHSadivUnbarbhT863gWbiDcZX4vc7U42d9d1fXoyqKUVWjQqaDzrBpQnUnd8314ONqPl5TtQ7VXGlO2GyGSazv4Lms6dX2T9+vpuNtprVOKRwpBZ6uFyBivdD3Us6OXBWfdpa8fEGeQIKH7Coj2q4dKIVEqWeE5yx4sBoPBkIkQ5OTmBmZ5i55MRb09aZ1ylT2pY6T88dq3pbNVJr3tlHQIuu/Zd/0fJxIidDfl8Mzz767ykSlYW5F8UhN4T3y/ehGtNdGoX4xQZolYczoM3Jb3DlprrHBeN1Zv+2KQdX0M33IgiEQiKbei/kJAECfXlXSfzlAoku6LmV/s4xu1q7HdVQv68h7wPEUkGkVK2e992esIgW2HTuur3VdABH4+dq2Rup+e/gaDwdBD/FW0nj2vuitU9yW92Zzk6XXa50ncxHrz2D3z//d94tulwQ3e77t5KO2m47t5iKwbH4ZuIgL3H+VyauPQ2R5fJx5EAl8JcV3vjILLewtxAldj/342N8PJEEL49ZH0uSc5+zE+fVCI0M9GeI5pbwaD4ZwmkYhzAnH75GTbTNFL7Ul6dfRq9sJu7OvMkpgItBunnTtdnyMRQvpZ0UQ/VSE09BIC5SafC1lKcLu4jpMVcQNZ0ITTpr97WUqB6zgo5QXxiP3coN5Ea5TX2RWzO/TwKRoE9AzkkWgwGM4rhBB+3JohxYBKnS7SsQ2i3yxTGYHKycjggXQNDZ0RvR/n1Vv47fID5P204tnZTkP3EVk83vqL/ktkbjAYDAbDQCGZWSqZFnVAaXHnO10kbwjeT9Z6yRbZUKaKrJKqETWQtd3uKE+mGvn5yWkrIGa4GAyGbKNzlpYgFa/2C5Glt3RMvdk5Ca+ht69Ed/fWcXYRXbz6iBOlQc6SCTBLmjEA8O/55P/p0q+i05Ogb1slUla95FMpmbLaTz0tQdt0VfA51ffZ7tHTXbf97mTzy+4z7RqhUclU4oj2xSRTQfo6843sQ2fMkyI5RuEk0YTd4rQUkBMlwOoqJNCEqxsMhv7Cj3dIChzdS/lqOFt059p2NZn1owKSQXIlWmeIrJkRKac/DRv6Co1GCx0ETQd1dvrzlhft5alkojmtFRILpAWkK9Un8b/TDYH9LOWtznQlOmUzutmE7u2mOzvLrmd4MNKCGUgGKm+QLSzVVJH6bPqv7KLrwqtnFlVvXLAMBoPBYDgVOrl62X9KkOH08OvQtH8vK5XFjgZZ4S8+d1ePOFsKx8mPeaoPdGMn3b6dBmosn3ledIVRQAwGg8Fg6AlGnhhQ6KCGhQaEkMggKYXOsGdlG+3kdpGR/ID2Tjv+5mw9C4PhxBgFxGAwnH9k5fKnIWulQYLsmRoc10F5Hpbli4Eic7m6j9ufleJz1tWESMd7JEV3rVRQVyYL0YFapP2K4tp1ff0jo699Raobuzp7rQwO0I0jnGI82NJCSomnvFNXTM+6sXVqBBopFNpz+8VClc0YBcRgMJzDSARWIDz6wZBCdyMzi9ZGSekPAg8LnRlY2+994QuwWgtC4SghCf/yjz8gHEpuzYz+OLVU2Jsqgxmi3aH9VRICXCdOOBzBtm08L8uuohCp4n5FRYXs3L6Nf/j2t6BdsbfuRUScdcNItzLBKbpuqQAsWmIxPK3IjeZgC48TujgKuqeAZFt3AghJQ0MjV1x1LVqr9FwkuvjseYRRQAwGwzmMH3CamxtBBU7gQkuETgYCdlzFTn3L0C9okB3dSyTaSfhb+7pjMoJENRAKR/nqN/+W441NCHwhIlBPut2+c95bJmtvnrTQJ5GEoulnQtYhQCnF4CFD+fb3/jcJJ9FB9tbdW03vKlmQ1md8H6UyIHVjP1K0f7766wkaJUFi8ejvH2Dnzm187vOfo6JiMEorf4GoY9uFgG4UABXZWCtbCoSwyckpwHVd4Dx4DnQDo4AYDIZzFtuyqDlymP/+71/6ftJaIJCg/SJfOljBEx1X1rJULjnnESqVFSjdBZJYcxNNTc2Bq0bfNyu50Ku0xrIsikpLO7g/iXafOxkD0IvkHCGpgPgZiKQQ6QrOWSgMJpXanIICcpHtJFZfgTjdgdS3NjjRUdsR+GlppcaWIexoLjIUobC0jMJB5ShPnaCJ3VRAutfwPkOAvw4mLDxXB/FIBjAKiMFgOEdRShHNyeHmz93CsWM1+AoHiKQS0q4CQAc3DZ3eYug7lNApOUulukUitMvSCy9EKa9fO0WD75ePTnmGCZFcrRXds4BgxlX/kLRS+T89VLoMQxajlUaRdE3qhf31phmxG8v4sovjKeHbRBQaT2k8pfCURinw1IlyI+tumTeyrTt9BUQghEq5/vZ39udswSggBoPh3EULpk2dBdPwA0+D+I/O5cc6KCB92khDEi3SMk26RwRCK4SARMLr1iroWUUECqrwVzJT+kcPyqSZ8dX/ZAqB2W2UCuqVkCl8n0nCg9472+5Y87r6jNAS0EgBUinwPGwhsDKDwLpSNroVc5Kd+LGHPalJlWWcBf9Xo4AYDIZzhk6PdSFxO/rs6M4xHx3pftErQ6/T5aqq32daiq79w/uaDlmJMt7uU8wI7T4d3SxTfTUghNouCsCd5mjr65S9QncMQpepdgihkVIFmaIspAClRdDG9u3UgO6OC9aZ1cY7qyQLSGZr+07M2alBbxQQg8FwftG92Emydxo7H/ETBmRr4KZRBLIfPSAUjROQrQO/GwSpPzLeEfjV3ZWvFAqNFsr/SVIfTJpCT+/Oytb7MRnfNuA4S202CojBYDAYDAaD4SzQXelVd/FbzxnIeub5xkCta28wGAwGg8FgMBgGIEYBMRgMBoPBYDCcdVJ16XU6ksUYLQYWIuP/M8EoIAaDwWAwGAyGPiMZ4ZGt8RqGk9BLGqNRQAwGg8FgMBgMBkOfYYLQDQaDoQO9mcoxndnFYDAYDAYDGAuIwWAwGAwGg6G/0DpY9TEOWecTvWoB6WqRzyz8GQyGgYiZCg0Gg+HM0F0V3tPJ6A8FyXog6OD9ZDV0BnT9k3MZrZOFPc+sf4wLlsFgMHTAuEwZDAZDL9BV4ddAAUlXZU8qI7r9Fw1ZieD0i0RmYlywDAaDwWAwGAz9i3HBOq8wCojBYDAYDAaDwWDoM4wCYjAYDAaDwWDoM0RmObuUK5ZxuzqfMAqIwWAwGAwGg+Hso0EKgSUy7GNpAAAgAElEQVRDCE+itcD1FEoJ0BJTG/38wSggBoPBYDAYDIazjwApNMpTaAVSCoTQaO0iBGidzK5klJBzHZMFy2AwGAwGg8Fw1pFIlOfx0kvPsGfPNhobq8nPy+GJJx7DDuVy3bU3MHjwMJRS/d1Uw1nGWEAMBoPBYDAYDGcdhSYazWFQeQn79+/EdWNEckLs27sbpRRFRQVolawTYjiXMQqIwWAwGAwGg6H30brTy/FcKmfOZuy4CSil0UoRilhctHQJubk5eJ6TUaww82U4lzAKiMFgMBgMBoOh1+mkf6BxXZdINJdFCy8EbFpaYkwYP4mxY8fjOQkEKqgJYhSQcxmjgBgMBoPBYDAYzjpag9LgujBx0lSGDRuBp2zmz/sQ0XAeSimE1OnMvIZzFhOEbjAYDAaDwWA46wgESInWHsXFJSy96BJC4QiVlbOwrDCuGzP5r84TjAXEYDAYDAaDwXDWkVIQDofJycllz5697N69hyNHDvPU8sfZueMDwmGbaDQHKa3+bqrhLGMsIAaDwWAwGAyGXkdKAIFlW0TCYWrr6vhg3VpWvv4qnoaJE8fy0Y9+kh3btvDoI48TjuSyaNESKitnUlJaSiKRwHESCCFNJMg5hlFADAaDwWAwGAy9hgCktAiFLWKxGFs+2Mo777xDbU0N+fn5XLTsYqZMnUp+fh5aaypnzKW5uZm9e3ezatU7rFz5NsXFRSxatJjx48dTWJhP3HFJOE5/n5qhlxBa6RMrlJlbJFTXNLFpxxGscDT5dUy1SoPBYDAYDIbzF601QggsKQmHw3ieoupQFZs2bmDXrp20tLQwd+5cJk2azJCKCkKhEFprtFZ4nkJrjWVZCCFQSlFTU8PGjRvYsmUrABMmTmTuBfMYOnQY0pI4joPyPP/YgDBR632GUBqERgmB8BxKcyWzZozxN/bARGUUEIPBYDAYuokQApkh7GTOgMY9ZOCgtUYpfWYizIk6/FwUizLPtcP5CSEIWTbCkjQ1NrJ9xw5Wv7OaWKyNESNHMG3qFEaNHk0kHEZKgfZU1zvKwLZttNa0trawf/9+Nm/ewqEjR8jPL+CCCy5g3PixFBUWobUmkXD8BholpE8wCojBYDAYDH2IANribbS1tCKCQmldzaBmVsx+cvLziebkok8iAnWFEMKXfJQ+sawlBJqTbB+I6PaqthAgLQvLsmhrbaW6uppVq1ZRV1ePZUmmTJnC9OkzKC0tBnxlT2kFGmRwZU526YXwtwshfGUEOFZTx65du9ixYzv19fUMGlTOggULGDlyBDk5Obieh/K89HXXGhDmhuxljAJiMBgMBsNZRweLqwLXdfmvn/2MltYWwpaAQMgUWqckJnGKCViIXhSIeig8n9cEq+Nag+skyM3P5447/xbP81LuO1oHaWK7+jp+31kCpJS++0+7ztYpgVlKC6U0juv5xz0XVuaDU7UsiR0KoZXmWM0xNry3nvc3baKtrY3Zc+YwdepUho8YTjgURimF63podPvrGhQkPNG1Tm5LqnAiUCKElEgp0Vpz8MBBtm7bytYtW7Btm8mTJzN37lxKSkqwLEnCSbTr2/YY2fVM6C0FxAShGwwGg8FwUjQgicVixOJtfO3rXyccDkNKQAp+1fqUYo0wK7L9ikAQi7Xx61/9FM91A+VAp7aeDCkl+/bu5uGHH0AKjVbJ72mUTiuqGsEVV17DBRcswFUqtRA/UBEC7JBNyLaJx+NsXL+Ot1et4vDhw4wfP55LLr2UKVOnEI1G8VwXrTWumxksLtrLpaKL99ofMfPOSn1OK4VSvvvWiBEjGDVqFJdcfAnbtm1l8+YP+PnP/ouKIRUsXDCfyVOnUpCfTzwexw1iRdIM8A45RzAKiMFgMBgMp0BrgZCCcDhEXm4eVijcSWzV3VBADP2BaKdjROwwUkZPugrfEQ1IIThyqIp9O3bwqRs/TSQaTq2ya+1vF1KwfPmz7Nq5i3nzFyEBz/MYaAJv0nIQiURQnsf+A/tYv3Yt27ZuJRwOM2PGDG686Uby8/NTgeOu46QUhJTF6Sydt1IeSvmKxfQZM5g+fQbHjzexYcN6/vynV3jy8ceYOWcOi5d8iCFDhiCEwHGcYJ3AWA6zAaOAGAwGg8HQbQSepxGW6rTFCDbZSmbSAJEWkk9nP0LguA7HjlVjWxa+2UP61i8hkFLiJtp8ByLNGRyr79FKIaUkHIkggKamJt5d/S7vbXiPutpaZs2cyac+fRNDhg4lHAnjOg6O6wL+FU6N/2QAR2rLWWhr8hcBbtCGvLx8LrpoGUs+9CEOVVWxdu1afnPPbxg6ZCjTpk2jsrKS/Px8XM/D88y92t8YBcRgMBgMhm6Q6Tnux31kbOtG/Iehv9CpFX0BSK0Q9Ewx8GNA/J+emyDW1oKQvmVFa0VyMIRDIRw34ccvZMrh2UoQvxQKhRD4wvwHmzezdu1aqqqqqKioYNasWUydMo2CggIEoLQiHv//7J13YBTnnfc/zzMzu6sGqkggIQkhQIgiEKa5VxyX2MZ2HDs+24njS+6SyzntcmlXcnfJ5b1ckrskTi7NiUtckzixEzccFzqmdxAgwHQQEghUdmfmed4/Zna1EgIEptrPJ5GFZnfneabs7u/7/FoCgQ7OAemCIJU9fsYPRSmfRMJDSkFpaSllgwdz9dVXs3nzZlauXMlf/vIXKodUMmbMWIYPG0EsIwONxku4qXyT1Nv6vZC3c45jBIjBYDAYDEclTCKWBEnHWh0lh1X0yWYxXpIzTyA1AqNYao1UQWCQJMz/UIDoWzCW1prs7ByGDa/BcazAbNVdBri0LFauXY/vq5RoORcD84QQSATSliil2bF9O8uXr2DDhg2AZtiw4Vx22eUUFRXhODa+r/B9L03IhX3J027n4Fyc5aMVhPk4GpQiIzOT0aNHU1NTw76mJtauXcu8efOY8eqrjBk7llG1oygrGxx4UsLE9a68IHk2j+Q9jxEgBoPBYDD0heQSeC8Wlu7jareRH2eHVNqx6DKUTwQhJLZtE41G2bN3L6+88ioaldxZKmnasm22bN7CuPGTAsNd6zAH5NwgWdbWkhYtLc00bNjA8uXLaT3YSmFhAVdfczUV5RVkZWXhKx/C+ScbDabtqVtqTbjl7HoOUmN3zUopFehLKRlYUkJpaSlTpkxhx44dLF26hMcff4ySkoGMGDGC2toa+ufmoZXCDZPpz7fcnfMJI0AMBoPBYDgV9GkJ/bTPwnAqCStbdXZ2sHPnduxIlAc++TeUDSrBsiRKKYSQQY+L0C+wa/decvrl0di4mcysLPr1DxrmnY3iS6nywdIKOoh7HpsbN7N48WK2b99GVnY2tSNHMmLECPLy8sKEeo3ne2k7Eed9p/HgmHzwfSLRKNVDhzKsuprm5ma2bN3K4sWLmTVrFhUV5dTV1TF8+Ijwump810NphZDGI3IqMQLEYDAYDIbjouEE8wYM5xLprqu+qcDks23b5u23V/L4Y49iC0VWpo3nusTjcSxL0hnvBMBxHNACKxLFSyhcX3DZVVdy1513ppK1Tyc9j0oKgW3Z2I7Nrp27WL16FUuXLkMpnxEjRvDhD3+YAQOKcRwHz/PQWp2GEEFFV+vBgCOkjA6bO6aepYLKWmHzQ31C2qcP11hr/PA48/LzyS/Ip27sWPbs3cuypUt5ZcarzHjtNWprahk1ejSDSkvRKsh7OeL0mMSvk8YIEIPBYDAYjolO+53+A2dqSburWd6xuidwRAhMX82jnkfR+ziqe+J9r8d+ZIxab/vq04p6H/IJdLCz4zxH94jO0SCSYjKtD4jupX+5BtdzGVtXx1cq/gmUy+w3X6EgL4+6unG4XoJHHvkVRUUFTJ9+O0oJfKUBC4Ugq19e+LdI/r/HzE6G9PsveRgSGZrwlpTEYjHa2tpoaGhg1ltvsnvPHsoGDeLaa6dRVTWUWCyK7/tBQnkijkw7h8cTITIMRdR+KmM7nJFGCoEUAqU1QgYeoqR3SCCQUgQFHFLjJGMXg3MhZVBJzHUTRCNRPEV4/oJRkvfc0eaoU7df396Xyg9El5SSgSWDKL2xFM/12LJ1K3PemsVbb71FSXExF11yCTU1I8nIyMR13aDfSXhU+ojFCdPosC8YAWIwGAwGQ59IGqvJnxM3Mk46lEUkfx3n9afK7unNvksXHycyznH2dTT6srgs6MMKeZ+tfN37X9onGotQVlZKvPMwM994nXvvvZfKIZW0dXTi2A6rV64k3u4ST3iAJO55XHbFVVxx1TDaOuNAWMcgba6n0tkgBUQdG+Urdu3Zw+xZs9nU2IhlWUwYX8/N02+loKAArVXQpd31ul0D1cfJRJ0IHZ3tCHTg8UHj6SA0SWgddEq3LJSvaG9vx4lFEVqhCXqKJDo70EAsGsX3fJTSeMrHtiTStlG+y/btO/nVw7/g3vvuY/DgKsLiyWHlsmN7OEQoU/r6RkgKWKUBrfDDggRVQ6oYXj2cPXv30NDQwIzXXmPmrFmUDhrEpMmTKCstww4bM/q+ZyIrTwIjQAwGg8FgOFO8W4FwOhdWj1M+VYQCLL1LdfJ1mnchro47rZ4J0CdLTwF5vIHDtezQOI06Fm+9NpMNGxtwvaCpnZA2SEFRYQHV1UNxXY0WFr7SFBYW4rlu2CPkFEw/bV6aYNXesm0sKWnat5eGdWtp3LSZHTu3M2z4CKZPn055eTm2bSOlhfJ9EOnnsvdJ9e6X0UQjEVavXsVvfvMbsrOzKB1Yws233Ex2/3x8X+E4EdavW8vzzz9H/9xcdu3YSUlJCffcdy85/fvx5xf+yNK3l2LbFlXVVdxx+5385je/JhHv4O8/9zl+++yz7Nyxk4OtB5g/5y0SiQTTpt3IJZddiud7CMC2rbC3SjB3KUUqDwdk6AEJKnuddPK/Bl8rlEpQUFDAhRdexMRJk9i5YweLFi/k6aeeJDs7m9GjRzNiRA2FRYWgNQnXDT0zQdiZ8YIcGyNADAaDwWA4gwiCRN8+2yc6aWglG72dgjmE3auFlDiWhRQSz3N7XQmXMpivDteWpRA4kQhuIpEKo4lGHLTWJBIuQlhdHpuwO/jJNORLJkSfOgFyouMHkVoCyIxEeGdTA0889jjXTLuOJ558gsNtbUy98CKkFIwcPYrb7vgwrqdQisDg19De2YmWFrZlI4R+d26P8JaRMvAWdHR00NjYyIL582nat4+SkmJGjRnFdTdcT27/PLSQ+L4K7xuVinYSItgHHCU8Lu0GC3LnFbYFu/bs5If/+x3uf+CTjKqt5bv//V1eevEl7rz7XnwVXKP2jjYWvj2fT3/mM1x/7XX8x7/9K5MnTaK4JJ8Xfv8MX/ziV+iXk8O3v/1NKgeXc+HUiXzzP/6FouI8/vKX17nn3vsozC9gc+MG/uruu6kcWoPn+wghaW8/zMsvvURzc3NwT/mKkpJBjB5dy5w584jHEyAEntIMHz6cK6+4MkimP8nkfw34SgEKKSTl5eVUVJTT1tbG6jWrWbVyFXPnzqOsrIzx48cxePBgsrKy8JSP8vwjhbqhG0aAGAwGg8FwhpBCotE4to3neUEDOCFJ9qlI9zF4rotSwSqul/CxbQsAnQx07xZpEliXTsQJjfW0WHkBWulUaVGtgpAYGYbLbN6yleb9TUyorwelQAhsJzAPfN/n8KFD2I6NE7FxbJu2tjZmzZrFpEmTycyIgZCsXr0KKSUjR44i4YbdsQUo3yfhukScCJZlp44haGAXHKfr+qnjTFrIAlLbbNtGqa4E6dMiRtLSfESP8rK2LdnQsI7vfue/GFJZyWe/8I/MeO0lXnrxeV780/O0tR1i764dNDcdwvM0msAzcai9g9LBFdx+x4e75n6S0xNSELGDfhz79u1l4cK32bp1K77vM7S6mssuu5xBpWXIMPwp7vkI4YW5HWl5Lknx29dxw5dalsXWTevY1LCOdevW8s7WLezf30ROTja+54Xr/cFYpYMHUVdXR05GP3KyMmneu5e9OzcTP9TM8sVLUErRcfgw72x5hyuvuIcbbrye73zjK3ziwS9y4dTJbNu2g2g0Rl5ePhmxGHHXQ2uIRGKMGTOezs7OlIDOysokP38AEydOwff9YLuAvNy8oEFkMufnXQoBjQ66pwtBZkY2kyZOYXzdBPY17WXDhgZmzpxJR2cnlRUV1E+YQHHxAGKRKAnX7Vo46DGL93vYlhEgBoPBYDCcAaQQtLe18tP/e4hbpt/KsOEjWLpkPvubmnBsG9uyUn0jbNtmzJg6CgryOXiwlacee4SP/vXfEHUieK6PEgJpCXzto5XGsiyElixdvIiDzU1EHAtfS0Dhey4DikupHTUaaTnMmTuLt157la9+/Z+JZkRp3vUOv/r1rxnxn9+msGgAB1r2s2DpUlxf09HZwfqGDUyeNBHHtmlYv4aLL76Q3z7xCMVFBcybM4sbPngTL/z+GcaNH8/EC8bT3q5Rvo9wbP70u+dYv66BL335q2zbtpXGTRtxVSiKtCJq+QyvHUX//OIgqZkgidkS8Ic//IG29nbu+egDxONxBAqtRQ8hcrLFAAQgQcsjxIGCrgQUqRHSomFTI/lFJXziU39HZlY2H7zpVi64YDINDQ20NDUR7+ygM+4RUTpIyEDiZGRSWlaKbVu4rnv8/J10QsPZdmxsS3KwtZmla9ewdu1q9u7dS1XVCC677DKGVg8lEomhlUZpjZfwIEy6F8F/gmPqITpOSISQ1IU2ju0wpKqKzMxMqocOo7h4ILYlEZaFJST4HhIJvoXnJRASOjvbidiSrMwcKsorsZ0oI2pGMXBQGR2dHvv2NJNfWs6mxs3EE3E0PgoPYYGUGqGDqlht7XEWLlhAS0sL0pJ4vmLQoGLq6uqYM2cWHR2dIILttbW1lJWV4funuHKd1vjaDxxKUjBw0CAGlQ7i0ksvoaGhgcWLF/P4o4+Qn5dPXf04xtbVkZmRDVrjhTkvJ1t64L2GESAGg8FgMJwhHMemIL8f//lv/8SDX/wyvpfATcRZs2oFyxfN5faP3A/oMOzJY9++3Wxcv57VK95m3ZpLyM7KJDe3kE2NG3n15ReIZmWhfA+pXO685+N0dB6maf9unnnicSZddCmDS8uJOBaZGRk8/PP/o/6CC3A7Oti6aQMbNzbw3G+fRnkeHW0H+N53vklhQT5V1UN49pln+eCtf0Vubj8+cucdFBQUcvDgAV59+XmGVZUTi8V4e/48CgvysC2Lbe9sZnzdGNatWokQFlk5/ZCOwxuvv8qNN96E63bwl9deZdZbM7nh5lvRgOsm+O1vfs5HPvYAN996B1ZUIIVESIElBW1th9ixew+Z2VlYjoOlg4Z4HR0daSFd76bikExmISMlOLaN0kETui6xEHiOLrr4Yi6+9FIikSjxhAsIBpQMZmBpBSiNUF1hYkkTUwNKBJ6sE/HaSCmJRqN4nsuWzY0sXDifTZsaKCoqYsSI4dx8863k9i8I8xwUvuenIruS3q9T6STSBJW9aseMZ8TosWzZvJnLL72UNavXobUgFovxsx//iJtvuwMpBfHOOMlr0tHRSWdnnIuvvpJnn36S1kMtDBsxko0bGykbXMaMV/7MiuXLeOjHD/Pv3/hnnn36GT5w3fV4nmLRwgVMmRohN7cQ5Qfejg/dcUfKMyZkcN0sy6KysgKwgoagCKS08Dz31J0E6PU2C/JMgtDE2tpaampG0nqolaVLl7Jq5UreeP0vVA2pYsqUCymrGELUsXATiSC0630enWUEiMFgMBgMZwCtNRmxDP7mU5+maugwbMti1LhxRCIRHv7ZNoYMH8X06TfT3taOr30EggXz5jJ/zkx27dzBnLdeZ+PGDZRXDKW8spKOeAef+vvP0Np6iP/37/9CS8s+rrzqCubOepOSQaX8/Wc/y7e/8a9cdOFFXHrpJTz59NMUDCiiML8ApGD48OH0zyskYkke/PzneOLxx2lvb2fQoFKysnK45ZabiUSCHhHxeJy5s9+itDifubNeY8fW9VRVDqIwL4uly5aRGXXYvWMrixe9zeZNm/jEg//A9u07GFEzgpqaaj7/4KcYXD6UwRVD+MhH7gYhiMc7mTnjT/ieRgrJ7556nJb9e7FsGyk0Sxe/zYHWdn76g+8FOQbKxY7GmPaB68kvKMT3kuVzRd9KZiUJcyG0VliWheNIfJVgY2MDO7ZvZ8qkqVhORhByg0ZpRSQSCV+jkdLGVyrIr/A1EtB+V4iYlAItQhmSDK/TIiVKBCItTC7pfRE4EQfbsmhpOcDMN99k1aoV+K5LxZBy7r//E+Tl5xNxIvi+wnV9kuVvk/sJwtpOD77vk5WVxZe/+k/8/pmnePXFP5GVncuUqReilKKwaADRSIR+/Yq59trriUYjWJbk6mkfYFj1cEoGlvHgF77M3Nlv0ripgaHDaigozKOjvY2777ufmppa/vbTD7Jt2zaysvtz770f5e05synIH8DUi4pJqCCXRVoWwrJShQ8AlAoEhxASpAhD6IIckeD0nG5LP7gOgTDVZGZlc9kVl3PJJRexb9culixZzNNPPQkIxtdfwMTJk4MQMXQg1pK3wftMkBgBYjAYDAbDGcB2HF556U+sWrWET33q71i3roEf/u//0rx/P+tXLWdw5RBuv3U6EydPAQT19eO54oqrqKoexu6du7jn/gd47ne/p6W5BcuWZOdkk59fhLSiyEiMzMxM3tmylUcfeYQP33UXxUVFXHjRRTz8859TM2oUsVgGyRwAKS0WLVqEJW1ee/VlDh1uZd6cOVwz7XoaG7cihMT3fbSOBJ20Lcm4cXW80xjlB9/7PQcOHiIjM5uakaN56Cc/pX9WFp//0tf59a8fIeEJygYP5r//81tcc83VPP6b3zB23Hii0Qzeev0tnn3maYS0SLid7NmzG8sSKD/Bqy/+mRtu+iBVQ4YAij179mHtbaZ+0hR8X7N75zv8+AffZXx9PYWFxficfJUjgSYasUEoGhvXM3/+HFavXkFJcTEXX3QhUcdCSYlGocMeD0IEvSy0ENi2FYgIDVophCXQYWiZCPtkBKFYRzT/CNteJMVDUM2qva2D9evXsnTpcjZuaGDYsGFcccXVDBteTTQWxXMD70887gcGdlLbQNeYpxWB67rk5xfwyU99Jgjx0uB5HkIIHvjkJ8P7RXPzzTeTSPgIobl5+m34nuLg4XZqx4xn9Nh6QKHRJDyf6z44HYSgpaWVMWPrqau7AF/5TJgwiQsumBwWNugEJIiuVoWE10Kk1WAOClAFIXBaJ8XHaT4tPc4RgFYeibiLAAaUDOSGm27hqmkJ1q9bz4qVq/jxQw9RUVHBmDFjqKmpIRqLBuWI3d6LQLxXMQLEYDAYDIajkVqZTC/denJhP77rUTNyJG+99Rpf+9rX+X/f/i/Kygby/e99l9vvvpdbb7uNL3/pHygqKuaOD9+BEOArH6W8oOSqtIIYcqUICipJlBIoL2gKp33FvFmzaN67i4Xz5rN21WoOHmyhrf0Af/zjH4LcEssKs6wD461qaBWDSz/K7j17uP/jD5DTrz+7dm5h2/bt/Oihn9Dc3EQk4lBcVEz/fplsWLeaadfdwmuvvsKy5avwlIXjREBYdHS0s23LFgqLi8nJ6cfffeYzvPnmX+joSPClL32NZ57+DZ3xw0ipwvAZjbQA7SEERLNyGDNmPMOGD8OSsHL1erAyuGDiZBKux7aCfJyMjKDCKUEy/ona3clywZ7nsmb1cpYuW8LmxvV0dBzCtiXxjsO88uIfkSKGkA4i/VJrhbQsnIgNYQM6EQZryfA+ESLwbkjLQlp2WEWqO45jh56XKP365bK+oYEVy1dgOzY1I2u56qorKCoaQCQSwfM83IQflt4NSxSkJcx347Qa22EuiVJB+FuqiJtGaEgkusKdlPKDMDSlUAkXISVSBqWJfXRa+JzEV2G4IRa+Dz7Bvn3lA10NDIXQqfu226x6ijsIlcgJesVOKSrwiiHwfIXrJ7AsmzFjxzJq1ChaWg6wfv165s2dyyuvvMzYMaOpHTWKoqIBSGm9bzJEjAAxGAwGg6EXhA5+ugrQpucdhKE1J7AvUFQNGcJnP/tZFi9cyqy3ZjJ3/kwumDiRosICXn/tNf713/6D73znOzz15BNcdfU0Bg8up2lfEwm3naysTBJuIihBqrvarWmtAkPX97npgzfzgWuvpWnfHmbMmME999zD9FtvZfuOXazfuAWExBISpaG6eiie57Fz53beePNNxo+vZ0jVELSKU1JSzIc+dAc/+MH3GT26lmlXX8uCeXO4/bYPMW/uLO78yL1MnDKVdRs2cdU10/jVL35K46ZG2tr2c9Hl08jPy6N29ChmzX6DG2/4IIdaW+ns7KSiooJbpt+C52vcRCczXngGCKqDJeJx3tn2DhmZMZTvsW/vXloPHmRzYyNKwY4dO/CVOol088BwTYZFaQG+77Jo4VxWrVqBZQmiURtpadraW1m4cB6+n/RU6JQhG3gdRFBFTIdeh2RolVakiwMBwYp92op20liWQoaVxqLsa2ohJ6c/H/7wXdSNG08sI5NEwsV1EyQScbSWqdCvYB9J0dXTEA+N9OPw7lbYwzsu2ck8OJow1KzHVREasEPh1H22x/XWpJLnrdQ4wbUT3cfRgcOj5wzTZ3c2CM5SML4SBPeI8vCUh1aC/Lw8Lr30YiZPmsCKFSt47g/P8ewzz/C5L3yBmpqRuK5/WsPpzhWMADEYDAaD4YwQhOns2r6d1atWEotlUT++nvLKChbNn8nsOW+Tl1/IlVdcyYaNDSxYsIDy8kre2boFT0ls2yGRSBCJRIOYdwRaBSVsBQLlw4IFi2jav4emPTuZ8fILRGMx+ufmUlJahmXbqTK3Ulq8s3Ub8+bNYX/TXlauXM4fn8+hsrKS/P4x+vXrR0lJMbZjk5OTTVHRAPr168+cObN55onHeOATf8uqlasoLC6lonIIAwqKeMhzmO4AACAASURBVPnFF9m5ax/DhlajPI9nnnyCRfPmkdsvnz179+DYFtu3v8MTTzwVVGxy4+zatQvHthFC0NmZ4C+vv8nadevRvs/qVSs51NrKH577LQjJ/qbddLZ1pAzyLoP7RN0gmlgsi9unf4gxo0az4O157NjxDvF4gtJBA7nmmusAB60kqpemhclQI5BopYMwLR3miygddBv3FSrsYRIOGg6tU/twbIdINMbadet54823aNy8hbF1dVRWDsGJRFC+Cqs4BZ6W1CzOdr7AEQKit8nIbg8pSHMgdn++7rHNsiyEDI7dth08z+VEqnadbXRSlBGKEaGRSKSUCNuiszPOli2NLF68kM2bt1A9dBjTb7mNwWUV+L46/Skr5whGgBgMBoPBcJpJmk+WbbFg/gIyMjL43Bc+z0M/+h+WrVjJoKL+WJbFM888TV5eLk7E4b77PgYIdu3YwoUXXoRlWdi2TVZmZrjiLYlEIti2A4CQkpycfijt4cU7iEQyKCgsIi8vj6zsbDrb2kgk4sF8tKaqagivvPwSF0ycQHPLPmxbctFFF/JO4zoqKgbjRGx8N4Hvu2gUB1sPMePVF/n7L/wjZYMH8+STTzNwUAWTpk5h4sRJ/Ou/fIVbbrud4kGldLpxrrz2WqZdexXDqkcSjWXx6CO/JBKJMmDAABACz+0kGo0Fq/JC8qWvfIXS0lIyMmJYAh57NMKOnTv5xCf+Gl9p3HgHN9xwPaWlg/F9j5SRe0Kr3V2eilhWLnX1UxlSPYL169cyZ85bSNuhethILCsLpaxwiPQ+DkfmdKQ2dAu3SqoE3dszQ6NbIyxJ/aQL2blzF+vWreNPf34Jz3WpqxvLmDFjKS0tQ2twXS8MfTp/DPEj6INhbVkWe/fsxfNcBg4qYe3qVVRUVhKJRs8rEZJ0UgkhsaREItmzZy9Llixhw4aNRKNRhgyp4iMfuYSSkoFIKVFah++Fsz37M4MRIAaDwWAwnG6SK8G+z5rVq/nA9TeyefMW5s2azee+9BWWLZpN0YBCIpEMcrIzadiwkRkzXuWiiy9n3pz5fP4fvoJtBwLElhIpJK2tB9m2bRvN+5txvQS2bVM7qhbLgp3btzJv7lyuuupq2js66Ey43H7HHQwZUsXObTuwLYvZs2axYf06rr7mCgCyMjN59tmn6Th8gDHj6pESkMGKvhOxGD12NP3yBrJvfzNDhw1DCItrrrmGjGgMx7FoP3wYW0qitkNnR5y8/jk0rF3NC8+/xJChw/B9n4GDBnHdddehESTcOM89/SiO4+BEHGpqalLehSBMRxKYKTZae0QiMerq6gPPgErzTBxrybiXEJ1gs8T1gnCmjMw8Jky8iNrRdWzduoWEb+EkM7xVj32IILeh+7hHG18fs/GcJgibAyguGcTAQaVMnjKFd7ZsZsWKFTz99FPk5PTjggkTqR42jNzcPBKJBK7rpjxZ7zWkELz00ovE43E++tH7+P53vsnnv/RVRo4aQzyRONvT6063+yLtn0JgWRaxWIwDB1pYv3YtCxYs5kBLC8XFxVx99dUMGzYCx4nheR5K+UGjzSN2+t7GCBCDwWAwGI7BqTIJpGWxY+cuOuMuo8bWsa+piauvvZ6xY8cxf/ZrWJbDTbfcysGDB6mfOIW9+5r4w+9/R9WIWmpGjaXlYCvNLS2UjRmD63ls2bSeP/7uGQ4fbqO1eQ9KQ8J12btjF8///hne2byeX/z8/+hMaMaMHcXlV01DCotVy1cSd33aOxN87K8/SUHBABKe4gPXXc8fX3iBhg2N/N3n/gHXTeAnPHzPx3NdakaM4Lv/8z/861c/yy9//C2mXnojtaNqWbRwIY889jif+4ev8Norz/PmG69Tf8EkXv7zywwozOXDd36ExYsXsnTRApqbm/nl//0wTARPsGf3DubNmklNzWiqqobi6y6jPZ7wiSd8pLDDlG9wPdVVA0DrHib+8a5fUtSEvTJkKpsdpQSZWf0ZWVsXhk8FrxQ99hBmsZ/UInVvYiR5XEp5KF/jODYjRoygdtQoDh48yMaGDcx6YwbP//E5qquHcuHFl1JRUYll2cTjnalGe0ckY58j+kSjidkOCh/LttHaCpoNKk3EsfHDogqWAMe28BAoz0WEhQksIYnHO8+96lCpvJzgJAsEUgoi0Siu28nu3buZM2sWa1avJr9/DvWTLmRU7Sjy8nKD3i2+Jh7vTDXTDHb1/vF+gBEgBoPBYDD0jgiMDK37YuYeHyklO3fvonJIJQVFxVRUVVM4oJjvff+77N+9i9vvvIsLLpiE63tIadG0fz8//+lPue+Bv+XPr7zKymXLyMzIoG7CBBrWr+eG6Xdx111/xYGWA9hOFm1tnfzq17/i8KFDTJ06lSkXX4bGonp4Df3692fu3LnMfHMmB/bv56bpt3H77bfz2msz+NnPH2b4iFGUD6li1NixjKsfx4DigbR3dFJZOYTS0nI8z+f5PzzL/HlzGTp0DB//5GfYsWMXP/rhD1m2dAl33HUnN33wg4wdN4EfPfQQvhZ8/IFPopTC9RUjRyUoLR2M5dgoTyHQCDSjx9ShNWRnZYd9NYIKWVpLiksGkpGZg+8nKyzJsNwUECaTHzchoptQEWndwUPXRqpyFShfpUmN4DGdHKLnfdFtw8kax4EXRwBadZUU9nwfz/fJzMhgXP04xk8Yx+bGRpYvX8Fjjz1Cbm4uY8eOZdz48eTl5aOVxnUTqLAZok4WTtCBR+FsEVwZzbo1a8jpH2PT5s04kRzGjx+HJaOsXbea3Nx8ykrLOLB/L7t2bGfY6HFYIih+rJWP0gqhunJszhnC+0YKieM4SClpbW3lrZkzaWhYR8v+/YwcWcNHP3Y/5ZWV4Ad5P/G4G16jrsaVR+z4fYLQx5KV6Y9I2NPUysoNu7EiseTLeT+dLIPBYDC8fxAASqNQCFvQ0d7Kz37yUz71mS/g2A4nYxAJVFjBKlj5FELgJeKAJhaLBQ3ulApLl0p83yMSidB2uA2lFJFoBMuy0EojtERrgW3ZoHyE1HTG41iWFfQWCMfxlUKFa+2u62FpgePYCAKjyHUTOFEHO+Lgui6W1GFzQCsYPxrBjSeYM2cO5YMHM7RqKEJKtNYsXboUy7aoq6vDdV0cx2H9+vW0HT7M6DFjIDhKLCtc7wzL1ArSmlgASrldYi807JSvwsZyoiv1QXYlc3edfcmxCJ4rQUgkCj/ezk/+97v83Re/niqx3NXF/ExyHKM6LYFdyqCsb9uhwzRsbGDtmlXs29dEYVFhUL2ssirI/1EqlS8iRJAXlG6lnUlPghAaoRVf/uwnaD3cwc23fYiVK9cwtHo4N0+/k3/++hepGzeej93/SebOfpNf/OQh/uuHP+W3TzxCwo1z730f5cFPfYJPP/g5Ro+rD5ovCivt/HBkiN0ZMEuFENi2Q8RxaG09wKZNm1izZjUbN25i4MCB1I2rY/iwYWRmZSGFCK6Hr0j6zY5aBUyInlWGz0mECirDKSEQvkt+pqRudGXw4AncXsYDYjAYDAbDGSFYE5aClKEtgEgkApAKp5FSBraVCgxP1/WIRqOpyjpK6VQytIBglVgKlAYnkgGA6+qwfKkfrLGHMTmOEwmER7Ksq20TdRzQCs8NVuF9JUBKFAJpO7i+RtgOl19xFRCs0Cs3aEA3bnw9QgdGltaSRMKjeuhwtE7r9yAEnqdTxx8YWSpoYJ5mjEkdyjIdiL4gCaV7KdtTiwIhezWajkwfPwuI8PiVxvcFvu8Ti2UxftwE6urG0tJygJUrljPj1RkgBEOrhjJ+fD2DSkuJRiMkEgmSR3JWjkUH911nZxsTLpjM3Xffw4t/fpEnn3yKq665AVsqhPIh7EivkmWPUyQrgJ39pW5B8L60HQff89i5YzsLFy5ky9YtRCIOY0aP4ZJLLqGwsBBpWWit8T2PoF+9wJLW8YY4+/fbGcYIEIPBYDAYzggCjQpLc4pUKIZGhK0meilPGm5XafHmyc1BIdjwb5203br6RQR0L4fa05gXusuboNOf362bQfCY6ye9DyK1Eu35aTMJhZXXI0lbhY+l4uV10NdB9DA4e6/SenbMsm6x+ecIQgRerECoCvJy87n00iuYOvVi3tm2jXVr1/Lcc8+RnZPDkMohjB83jrzcXIQliXtu0Kn9TKEBIYNrLyPkFxYT9zRIi/b2NpTfScyJBca5BbYV6K3gjlN09dwJiiAks3fU0cZ7t3OFXlWOEODYNghoPdjKwoWL2bp1Cy0tBygZWMK0adcytKqKSDSC8jW+8lKlk1Phb+fQPXQq6Fvm1fExAsRgMBgMhjOGTGUtdNmD3ZNPe7NXjgzbSIYMia6/RDKlOaVb0p7ZO6rbaMcOZUrtL20uSUGju6kH0dvLum1IirCjDaR6ex2h+Ol9r8chFcOV+lulra2nwmOSXqYzojz6trYvZFoyiujyZ2it0UpjOw7VQ6sZWlVFe3s769atY9myZSxYMI+SkhImTZrE0Orq0EhWqLDyVso+PomE9UA7Hjv3JmgeKBHCQgsbX4GvBYlEAktq+uXm0nLgAFLC8uXLaWvdHzqkdOBlU4EYEcnjFl1etD7Mru8Hk3R3pe3aCUtbd3TGaWzcwNo1a9i4cSMFBQOora2lpqaG7JycIMTRV0G3eiDVoFSIrvd3H3PL32M65bgYAWIwGAwGwxmmhx/iBI0P0e2f3RKlz3TScWq8Yywj92LMCyGPapXpHr9PH2c7sOcEOFragAy8aL4ODODMzEwmT55MfX09Tfv3MX/+fF566UXQmrq6OsbV1zNgQDFSCjo7OuhyrJ2eoDMpBVYkK8jBIajyJaWFEJJrr7+BHz/0Y771zW/RtHcvhUUlgCYSzQirnUmkk0EsKzsIxxNHZP+fMpKr+rFYBmjN7j27WbjwbdatWUs0FqO8fDD33PtRBhQOQFoWvh+UzvXV0aRyGqdv2uc1JgndYDAYDIZeOB1J6IYzTzLMDWEhAT9+mJ/873/zqS/+E2FCTsobc6JS8JwkDKsTVpDzE+/s4J3NW1i6dAnbd+ygIDeHkWPGUl9/AbGMGMr3Sbhu6uXpUuRoFt5xPSAhUkJLcwuxWJRoLEYikeDQoVYKCwuxLZt9TU10tLczoKiQeCJBdnYO7e3t+J5Ldr8c9u/fT15uXlD0IBWIlT6J7uN1d8AdPWBLiLS8KNvGsizi8TgrV65k+dKl7Ni5g+IBRVx0yWWUl1cQjWSEw6nU7rtCKN9nKB8hhElCNxgMBoPBYDB0R/kQ9xNYwqa6ejjDR9Rw4OABli9ZyNtvL2TmzFkMGz6curo6KsrLsW0bXyk8z+sqPf0uPWpKKfLy80BrfKVwnAiFRSUopUh4irz8QvLzg5C3zGgGnq+IZmQgyED5moKConeRu3L0rBEpBJFYDN/z2Lx5M8uWLWPRwoUMKi1lQn09N0+/ldzcPHzfx/MUrhcY3VIGufXv56X3HuloJ40RIAaDwWAwGAzvMZItFzXgKgXaJys7m8uvvJoLL72M3bt3s3jxYl56Meg8PraujlG1tZSUlIAQuK6bqtaWSkE5CcNTJft4hGWWPVTK4+SH4iKohhxYtr7SYbVlge/pVMGGE0pB18kcIwtNEJ4mpcS2bYQQNDU1sWbNGhYvWoxSPqVlZdx7330MGTIEx3HwPEUi7oVzE0FBstREDacCI0AMBoPBYDAY3iuklTcOhENX1SKtfeJhueWBAwdy8003cejwYbZs2cLKFSt4e8ECioqKuGDiRKqHDqVfv354YYPIYCd+2kDpddhCQ72Hga50WkBX2PBR4Kf1gUlPhg+CnKRIFgXorZiB6rGhq0dMz6IGWoc5KFYES0oOHWpl8+ZGli5dyv7mZrKzs7ns8ssYUllJTr9+qdLRCddNc3OExxTu+2w2dnyvYQSIwWAwGAyG9xnvo8j9o9jMSim0UmRmZlI7spYxY8awa9cu1q9fx5w5c5g9ezY1I0YwfPgISksHYjs2vgcqbCLf0yOR7L5Oj629k769F6EhdPdSbkc9NhHm7aQJFg3SEtiWxPdddu3cyfLlK1i7bi2xaIwxY0Zz5ZVXMmDAAGzbDpLJPa/7TINa0akx+jCT9w1CnJqSBSckQESXTO211J7BYDAYDO9lLPv4DcUM5zBJY1JY9K2k63sf5Ss0GuUqiouLKSkpYcrkKezcuZO169bx5JNPEMtwuPTSy6iuHkFOdn98X6G1CJpgHq/Z4cmWND6eCEkm24c9W4IcDYkQgvb2Q2zevIlZs2fS2ZmgtHQw119/PZWVlUQjEXyl8H0f1/OOPnyanZtsGmqAIwSjPLkzc0ICREqJZVnnRodQg8FgMBjOEMk10FhGxjnVnM7QV7pKJmkNkcx+Z3c6feHoToJTO0Qq5An8sEeI7ThUDqmkoqKCCfX1vLPtHRo3bWHJ4uUUFhZRO3Ik5RUVZGZm4SYSQTnao7wx3tXbJSVCetlfeE4sy8K2bdo72tm6qZGGhgaa9u8jKzOTKZOnMriigtx+uanyua7ndQtLO+bYhKFl7+YY3sMIwLZPLpjqhF6l/EAxWtJEbhkMBoPhPU66paMlAotDh9pwbJuI4xzRVdxwbqLTojaEtBB+hM62g10ZDOd0iM2pXvLt2/601nhe8LyiAcWUlJQxZbJg797drF69it89+xRCOtSNH8/EiZMoLh6A1prOzjhK+QgZ5nio7oa+Pm4me/Kx9FyP4EolfSzJ6lzRSAQpbVqam5k3dz4rli/B81wmTZ3MpEkfoLBwAJZlo5RG6fQGjCI1h+O/h5PNHwMhYt7y3dGAdwwv0rE44T4gKxp2Y0ei4cU7TtdUg8FgMBjOdzQICZ7n8oPvfhcf65wIxTICqI90a7YHnpsAt50v//O/n6GO5+8BwmRyy5ZIIfA8j4aGBhYvWUrjpkZKSoqZMmUKNSNHkhGL4Xk+yvfRyutKiA+TzLUQXQKFpPdF9gji8ulmhGqBZQls28a2LdraOli1ahXLl69g+/btVJSXM2HCBEaMHJFs7UIqbz7s1/HuMGkHKZQKekIKCX6CvEzBuNFDgsdOpAG9ESAGg8FgMBwfIQStra0cPHAAKc+B7z9TkecE0alf2dk55Ob2NwLkBEk14UMgrSDfornlAOvWrmHJkiUopSivqGD0qFGUlQ0mMxbF9z1830Op0KshZZ8FiBAgpUXEcYh3drJzxw6WLVvOxk0bcJwo48aNZ/iIEUFjQ9smkYinGk+eij4m3Y/cvN+AIwTIyTYiNALEYDAYDIY+kkpGPReMf2M8nzRCSHzlH/+JhuMipcSWks54nH37mli1aiWrVq0mMzODmhHDGD9uHLm5eYiwt4gSYTnbVOibACED4aA0Ugqk1DgRB9d1OXToEKtXrWLZ0qV0dnRSXV3NmLFjGDy4HCcSxfO8IAcF6ArdkseWCyf8/jUCJIURIAaDwWAwvI8xAuTdcS6IyPcQAoElLRCaQ4cO0djYyNo1a9i1cydVVZUMGzac6mHVRGJRBALP98OO610eEEtIpG3R2XGYdevWsmLlSvbu3c2AASXUjhrFsOphZGVlIaUVVO/SqstU7WoI0jUp3ds1FidducmAESAGg8FgMLyvMQLkFCDMwvYpIr1VgxAiqDrlebQePMiKlStYt3Yt8c52KoeUM27cBZSXD8G2LDrjcaKxGEoptm3fyqaNG1i6fBlSSEbV1lI3bhz5+XnYThTP89Ght0OpVKBVGrpHnv1RLq655iePESAGg8FgMBgMhnMZKSW2bdPZ3s7OHduZO3c227btIi8vnwsvmkL10GrWrVvHgkVvE+9sp6S4mImTp1BSMpDMjIygYSKkuqdrHTQ8DBLLjyJADKcPI0AMBoPBYDAYDOcDUgiksLCkzcGDh9iytYG/vPZnGtasoGbUeC697ApqakeRmZkZhGcpnRIfUkqkCCrPaYCUCOk+RrLalemVfRo5RQLEKAiDwWAwGAwGw2lFaY3vKxIJTVZWNuPGjaW4pIBYdha3fWg6EydNJBqJkUgE4iOoZtVFSlxAL6FXAUKIVAfz9P8F4if4MW0Fzw1MR0GDwWAwGAwGwxlCo7TGdT2ECPqK+J6P63oonQy16hIbOtnEXms0OpVrIgGVlncC9BAswW8hdNq/jfg4VzACxGAwnFVMGu2p5dR+vSa/+dMxjnODwXByaAChkSiE0KA0UmtQKujdISRoP+XFCLqQa9DJylXJEKuguaAV+kM0KtVn5IjvlPSiWKZwwzmDESAGg8HwHuN0rvGZr2+DwfCuEaCFQGuVCovSOhAbiUQnhw8exLYklmUFla9QSGkhZdgvROuwGlaQj+w4UTKzshBCojCfU6cT0b3M2EljBIjBYDC8xzh1X77ma9xgMJwmRPKXSGWN27bD/MWL+e1TTxKLRlJ5I6CIRiL4vo9SfurFQkgSCZehQ6v52Mf/mszsfihlPrfOB4wAMRjOOMGHo+M4YdOmszyds4z5qji1iGAZ8fjP60MstBbg+x6u656CmRkMBkMaGrRWpBdj9XyfQaWlXHvd9UQcJ6iAJQSOLZk98y02btzA9Om3kJeXSzzho4XE83zy8vNxYjGOVdjVcG5hBIjBcBawpKBx00Z27dr5ftcfhlOMUBAEMhz7i7gvlWC0VpQPqWJgaRm+CgIbzP1qMBjePcnk8e5blfKpqKhgaFU1QgqyMzNoO3yIh3/xM5YuXcL48XXk5uWR0y+HKyZNxopk0NGZwPc1ruvj99obxHAuYgSIwXCGSH4kJhPtHnv4F5QMGkRGLJr2GdyL0XguLuiI3pKTDecEfb404pjPk0Jw4EAL8+bN5bP/+BUUFlr7WKbPl8FgOGl6NO9INqIPS11ppdFCYVkSrXzmzZnFz378IxQ+118/jXXr1tKwfi0zZ82irHwwd959D2PH1oO0cLUf7MdUujovMALEYDgL+L4iJzOD+z768UCAhJ/H54tJL05hmt/5csznE+K4J1WAOHY1KymhqWkfjz766BHNvgwGg+FUoXVYWleIoMGd0mxqWMvvnn2G+QsWMGnyZP76k59k86aNLFm2kmnXf5Brb7iJp596nG/8y9e45JLLuO22uxg4qBKldLdvpyDU1HyAnYsYAWIwnCWEsNBK4PniPC0NeGpWmc7HIz9r9OGUB6uJfdvPsZ5maUBYCGmF96dZVTQYDO+CoAZv+h/hvwKvRbK60rPPPsMLv3uWyspyvvyPX2bcBZOIZWWyZs06lAY7EqN88GC+8MV/ZOmSxfzq1w/zb9/4Z772tW9QVjEU5ftn4eAMJ4oRIAbDGefIgCuNRgTpdqdo/72ZlmFd9VNC+n6OZcb2Ic/gXc/lvcqRZ6bXs9kz3ECL40YgpFfLP9r5P+JRc6EMBsNpQGsdSg+N7dgMHVrN3ffcw+hRtWRkZLJrxzaktPDdOGNGjuRg0z7ecRMgNIPKSvn7B7/Axo1byMzun+oFYjj3MQLEYDgLBPZh4CjWKcGgCZzHosfzTpQz8AEcxvjo4+YDHPsJZl396OijCskjntgDgT6ekE1zkxzt/AtNKIqTPwIhRLj9KEMbDAbDMUl+nqi0fye/TzS+7zNx8mRam6v5wff/m8ZNm7AsB4TAsiW2ECxdthzl+9hRi4OHW3nggU9zw03T6WjvxFPKdDs/TzACxGA4Q3QZawLRrZqQSK1ia93DSyFOxiciw311Nw9TnWVPASq5mzCPWWoRSCnTNPuU0dcrdWT0nujji/s4gg4NBRG8RoS7D8Y1EsRgMPQRQVDbWwgQOuxsDkKKoCkhoLRGC0i4Cfbu3cstt97KhAkTcUNhIdGo8ONI2vCVL32e1gMtKOXj9yo+zGfUuYoRIAbDWSZY/xHhavORRqE6Qc0gdBBJ2/ODWBN89p8auu9IhcapcWecSvp2Mk/vYp+5oAaD4XSg0zysRz5mSYkQgoEDS6kYOgJXeWg0UobfllpjW5pIJILWHlqrcHFE9ChBbpLQz1WMADEYzjDJ1eNjB8CcPPrY1VUNBoPBYDin8X2FlBLbkti2hfIUSI1MigytcKykV1+kKmmdl/Vc3qcYAWIwGAwGg8FgOAN05ZR129YzZFgK0Jo/P/9HFi5chOu5+MrvVmI8muFw4OBBLNs5pSHGhjODESAGg8FgMBgMhjNAmICuBFKLwGUvwXIE4BMkDgoQFp1xFzsSI7+wiITv4Xt+KDGC/0YzImEHdDfIIUmqE+MFOS8wAsRgMBgMxyUIbzDf7AaD4V0gAKUQlo2UCtuSSCGQUhCJOMQTGq08MjMz+ODNNzF2zBgqq4bjKT+QJ7orv9GyBU40wrDhNfied1YPy3DiGAFiMBgMBoPBYDgj+Mpn8aL57N+/i507dyKlYPasmcQyV1N/wRRKivLJiMW44YYbEYguDwcEFbBEEMKlPc1NN08HJL6f9J4YzhfM1TIYDF3osP/DcX7OFRd3+nzS5yc1CK27xQufLVJzPGJ71/xEON++nNfk607sWqSFJpy6UmgGg8FwwkSjEQ4dPsjrr8+gpaWZjFgmixYuYtmyZdhCIrRA+QqlNEoF5el1Kk1EkArTCrcr1VXS5Rz6ejIcByNADIZznV4/TXWPnxPZWW+v7fpbQFhpJKg2IgiNXsCSgbtcoENDOPiRgC0llggSB4M+d6foa0CAlDLVxz3d+Lak6OqpF84l2bdC+wp9gl1xpZRYlnXqGllpkFIgw7ADnTZHKcKVvLCfhkB3nffk83peJ00QrhBOT4SvS34l29IKzkm3cUQQ5iCTrwCt9DklJA0Gw3uUXhawpJBMmTKV4uISlA6a7wphcdkll1JUVIRSCiFtEFbwCScEWgtEUnikKl+JsHcWJPNCTCr6+YMJwTIYzmHSm711GcW9GdV9+cjt/jopJdFoBBBYlhUY6zowTuPxRKquejg4Qgg6OjqwLAvLkqn9ScvC9zwOtLQipSQvL49oNEpHRyf+CR9xd2SYd9DR3kZGLKNb6sFmOwAAIABJREFUDoIQko6ODmzbQVoWEkEkamNHIvi+TyKewPP7NoPkOAdaWlBK069fP6T1LtdnQq9GvL0T27YQjhVs1CDRdLS3Y9k2Wdn9sKQIRJaUaB0Ip/aOjh76QGAJQWdH8DrbcVICS4ogBGH//iYiToT+/fsRiUTwPI/W1oPE453k5OYhrUgoEAORQhjWYDAYDKeDnt5frTUJ1yUnJ4/Jky/kjddfRCMoKRnIuHF14PtpbXplqgEq6KN8y8luTX7Nqsr5gxEgBsP5gA4+uIXspcP5STQAFIDv+7zy8ss0NzcjpAVa4/uKooIipk6dSiwW7XJtC4Hv+/zqV7+idtQoLr/sUlzXx7IsHNvmL6+9xgsvvMCNN97IlClTeeON17nq6mvIyMxCvQtPiJSS7du38+OHfsxnH3yQwsJCtNZYlsX+/c38349/xM23TGf8+Al4XoI333yLHbt2EolGqa+vp7y8As87jgjRoLRCA7Nnz+G112Zw30c/ygUTJuC+i8RGIQSWlDz86KMMGVLJVddOw1U+UgchCL/8xc+JRqOMHjuOLZsb0UoFXYC1JjMzk6uvmYYTjaSutwBs2+bhX/6SkaNquerqafjKR2lNJOLwxhuzeezRx7jzrjuZNGkyM2bMoL6+nsbGTTzxxONMvehSPnzX3SQSiWCfp7eDocFgMByBCBc9fKUYO3YsS5fMY+fOXVx59QT69euHm1AIKVA9QkWP5ZU2suP8xIRgGQznCckur5a0sKQkGolg2zZCiDBsShJxHKKRaGpbejiRZQWvQ2uElDiOQ0FhAeUV5SxfuJClS5ZQXl5OUVERlmUhpSQSjpHk4MGD+J5HLBYlEokE4wjB4cNtDB8+guuuu57Dhw8zf+484p2dR3xpSCFxwjkD3cO0wvAix7aJOJFgrgh8X3H40CESiUR4HgS2bSOl5PChQ8E2KfnlLx9m1apVDB48mGgkwttvLyARj2OH+4tEIqnxZNhl17FtnIgTNryyuO766ygtK6Ozl7kfE63RSoVzd7DD866B/c37icfjyDBczHEcIpEI7YcPc6i1lYKiAsrKyti4cQOzZs2iqqqK0tIyLNvqmqPtBHXxBexvbiIRT+A4TngeBEJKOts7GDliBNdcM41Dhw+xaNFC9u9v4oorrmDixIkcONBsvqQNBsNZRQRfZPi+orBwAHXj6ikqGsCECROD6Fl0uGh1Yp9WJvTq/MN4QAyGc5j0D1ShIR6P47pxPN+jpaWFQYMGkZmVhUASj8fZ0tiItCSlpWXYlsX+vfvo378/sYwMDhxoARQ52Tn4nk/LoRZGjx5Nv5wcls6fT9xXXHzxxfgJDyEk+5uaaG5uJicnh+KSEnzfR0qJ73ls3ryZRCJBeXl5SqAky7QWFRXx6c98hv79+6PScjCklBw8cICXXnqJm266iYyMDFQYDpTM8/CVz5atW9FKMWBAMYWFBYGBHYqBSCTC/v37aWluxvV8pG1h2zZLliyhYUMDX//6V+mX2x/X83Bdl0gkQltbG7t37cJxHAYNGoQUgsOHDmPbFruam4nH45SVDSYWiwXu/9ALkf71lxRa6SSfl8RxIuzavYfWgweJxWJUVFTgex4CEeRhOA4Jz6OxcRP9cnKwbAvLthlWPYzhQ6vZtHEjnfEEV1x+OYfb2hBS0nLgAHv37sVxHCorqwKvihUIuC1btuAlOiktLUUICWhsy0KjKcgv4P77P05ubi6+74fVY45s9mUwGAxnEiEEtmVhRyRth5uxLItoLEZDwwaqq2vIzc3H9xVemITeneBvncwzTP9M1j1+G855jAAxGM5xkh+xtm2zYvlyfv6LnzF+Qn1gRFuCj338AWKxTJ76zRPsb24GrRk4sISrr7mGn/70p1x55ZVMm3YN3//eL0kk4nzta19l3bpNPPLIozz4+c+Sk5WF9n1QoMNGTxs3NjB71iw832fzpkauv+EGLrz4ElA+8+bOZfeuXWzZuplxdWO56+67A1dqKDaa9u7lP7/1Lf7pn/+FAQMHpoRLNBIh3hlnyeIl3HLzLUQzMoh3doLWWFKSiCd47LFHaT10CNuxOXjgAPff/3GEAKV9orEYzc1NfPtb36S0vALf82natw+NZtmSxVSVDyYv7/+z997xcVznuf/3zMxW9F5JkARIAGwg2AB2iaQqJVGFKm6y3CXbsuP4JnFunMRxcm+cexPHvvbPvcqSZVtdoiSqWCIpir2CBewF7CSISgC7OzPn/P6Y2cUCBCVIZpXm0QfCYjk75ezMOW97njeT7p4eQBAMBDh65Ahvv72Ss2e72bNzJ1Pq6lh0z108/+zTHDx4kKKiEk6fOU1megaf+dznnIyRUujCoTviVipFIhHMmInDsVdIqQiFggT8TomUYRis37CexYsXU1pSzO7de5g9axa3LVzosi41zFiMPzz2e44cOUxJaQlbt2xmytR6bEsibctxEIQgalnYQNPBg6xY/haWZbF5yxauv+FGFt15F9I2WbP6bU6dbuZw00Gqqir5+P2fRGgChUJoOp2dnfzspz/izrvuZvKUKc4YI1xHxbmpvHXagwcPFwt9gmduAEfTdCzL5MSxo2zavIn9+3aRmhpg3LiJrF6znhVvr6G4uJQJNbUMGTIUvz+AbVtIV8AjmVASp0cKRB9hv75xIi8nciXDc0A8eLgKoJRyMgS2TWtrCzcvuIWc7Bz++R+/wbZtW4nGLA4dPsQ//9M/0d3Twzf/4R8YVTmSIUNKaWjYwpQpkzl7toPu7i7OnDnDzp07yczKJCs7C8uyAIGh4RCglSQ3N4dFixaRX1DA448+yqtLXqF+xiyEUBQXF/HA/Z9k757dfOc7/87sa67FZxiuOpOjgtXe2oZpmU5pmKbR2tLC9m3bOHbkCF0dnfz5z38mOzeHSZMnOaVkmsaq9WvZtWsn3/72t0lPT+PHP/4Jzz/3LDfffJOj5mRoPPnUk5QNKeIrX/8amzdtYc/O7Uhp09XTTVpGmmOACw0lwLJt0tPSuW7+dZSUlPLGG2/w1FNPs2DBjXSfbQfL5JP3f4KOs+18/atfYc6c2YyqHu2Q75V01KWEU7q2aeMmNm3amMjyCCG45pprGD92DEopWs4084ffP8qiu+9mzpw5bN24mZ/88LvMmFGPz+9D9/nYtWs3DVs28g/f/CeysjPYunEt0s2QCKElCOESsJUkKyuLhQsXkp+XzwsvLmbJK69y64JbQNkU5OfzwAOfYN/+/fzLt77FNfOu6+Vqak75XFdnO5Zp4npNCaWwRKDQW5s9ePBwkRDPUvj8PgTQ3d3NypVvs2vXLrq7uxk7diwLF95JWZmTRb/2Wovjx4+zefMWfv/4Y6SlpjF+3Djqpk0jPc2Z26PRKMpVzXKPAkpznJDkgyfmNi/MciXDc0A8eLgKEC//saUkLy+PgoICJ6IkNFrb2mlvaaNp7x7+3399B2lLutuasUyTqVPreOz3j7Fj2zbysrOJpKezY8d2GnfsYOLkSQiXP5AQ3HWNa03TePSR39B9tp0Tx0+h6X4kDvm7fEQFPp+P/MIC0J1SLSklSiriM7+uaa6Ar4N41gBXOte2bZSU2FIipcRGsXvvXoYOLSM9PR3btqmoKGfZ0mXO/nSn9GvXnr1cM7MeARQVFZOVk40QgnAoREdHB0oTyHiQX9fwBXy89vKLHNy/h7bOGNGeHqLRCAgYWlZGSjiMZggqKkZyurmZSjc1oBKpfkdjfuTICnKy0tF13SWtQ2FJCbbtEPFPnjiBlJKKigp6enoYOXIkkajN6VOn8fn9IATHT5wgKzOL9PR0AsEgIysrkbYrdnwO30SgGzrPP/0sxw/to/lMC7Z0sih+v59RlaMQQpCTnUNqSpiWljNomt4n3qdpmhcAvFhQ54pBeLj6IQT9Q+ge3gd0XScQCBCJRNixrYF169Zw6MB+8gqKmTlzBqNGVREKhbBtG9u2kTIKQFFREaWlQ5g3bz6NjdvZsX07P/jv/8uQsmHU1dUxomIUfn+QWCyGbbtZEVdZMM6583D1wHNAPHi4iqBcgp5tWfh8PmfClYpQSoiyigq++vVvYMZidPf0kJKaQldXN+FQiHXr1zN8xAgMv58NGzdiWiZjx4xB2Qqh9+477ow8/dTTdHR28fd//02eefIpVqxYAUphWTbtHe2EwmGixyIIIDs726EWiIG1SKSUZGfnMO+662g6cIBVa9Ywb/48MrKyMM0Y0rZRQscwdE6ecLriBgIhDh8+TCAYdPuOaAihkRIM0NnaSiAYpKOj3ZGy1XUqq6v56Y9/SFtbG1nZ2ZimTTQW5dUlS9i8aSP/9m//iw0bNvLscy8kCOJtra0YPh8y0kXzmRZyc/KccUi6BCEEmq6xd+9edu/Yiu68iWXD9NmzyaquBAWBYIBIpIeOjg7KyoZzYM9uBDYpKSlEo1GktAn6/ZxpPo3P58fQDY4fO0ZhfrFTDiVVwtlRSuHzGTzxx+fZvXs3f/e3f8OatWt5YfFLgOOEnmluJhQKcfToUWIxk8zMTA7ZTiarN8shkn76wjOx/kIIt6zEG8mrHgqXyzVY69XdbrB+imMkJ9cIvZezuzogcIRAfIYPUJxubmbL5s1s2LAOn4Dq0aO55ZZbyMnNRQgN07QToiLJsG0by5JomsaEmgnUTphAa2sb69ev58kn/oQvmEJlZSXTp08nJycHXdeJRCJI6VZnCeU5IVcRPAfEg4erBEo5zfV6urrdvhwapmkRM01mzZrD1oat/Oa3vyU7O5vOzk7mzZtHSUkJpSXFvPHn15n37X/FZxg8/tjvqZ04kaysbGxbuT8WMUsm5HZzcnPYs2c3zy9ezIZNGxE45GypFG+tWAEItm3dQn19HQWFRY58rDh/a0TbtlHRCD6fj7FjxiCEwLJMd+F3FKSuv+56tqxfz49//BNCoRDbtm7lU5/+DFIpunt6kNLm9jvu4Ne/+BkEfsGxo8dobWvFtm0mT5nC2pUT+O5/fpfxNRPo6uomEAhQmJPF2fZ2Xn91CRs3bqblTDOWGcXQDXY0NvLb3z5Cc8spiooKGTJ0CLZt9R90pJRMmzadGTNn4WjRC2zplGjZloUQgiFDhjBjxiwee+z3jB+/jW0NDcyefyNDy4Y6YxszGTN2HK9m5fKLn/+c9KxM9h84RGHhEMCVObYslJSJ5o8FBQWsW72Gl5YsYfeu3Vgx0xlXobN67TqUFuDAgf1MmjSZ/IKCBIckvj+FSBg/Ci2hou/FCf9S9Cqp2a5owXmN0Ytc56beuwL3hxL9XADnPeWUa+q67gRBBrkvJ0ni8NbUO+m/ulF5W8okSdmr+9nrc7nudGMYPjRNEInGWLd2Jdu2baW5uZlhw4axYMGtlI8YQTAQQLkBLKUcWXSlejP7/VXBlYKYaSOEIDUtg2vnzmfmrDkcPnyI1avX8KMf/YiCgnwmTZrEmDHjCASC7v4tJ3s90IPRf+i9B+eyw3NAPHi44uGWX9mSUZVVPPzwV/DpzqP7qU99hsycXPLy8/nc5z/Pjm3b0DSdcePGk5ubj2XZ3HDjTYwaVUlJcQm6rvPZz32e/Pw8DMOPrSSWaXLTrQuxpaM8ohTMnTefvPwCunu6ufu+j+I3fGgC7rn3PizL4vSp08ydfx1T66YglSLmGuL+QBDD8BMMhZ2mevErEE4mJCs7iwc+9alEs0CHWKghFRQUFvH1b/xPduzYgZSSB7/4ZcrLy2nvaOMLDz5Eamo6hRMK+cznH+LU6WZqJ0ziphtvorCoCE3T+NxDX2RLQwPt7R3kZOdQPbqK7MxMQuFUOtrbueGWhWi6TmpaBlIppkytp7y8nNz8fCbV1pASDrtdeSW23Wuy2KaFJgSW7ejTq3j5jVJo7t+a4eOORYto2LyZs52d3LxgAePGjsW2JHfceRcpKelkZmXx4EMPsXXbNtIy0vmXf/t3x4m0LEBxzdx5TKmrx4w5jtmsmbNJDafR2dnBgltuxedzpHg/8rGPo6Tk+MnTFJeUMrF2AoZuJM5Z03V8Pj9oBrrhR9M0NE1H0zVHylnE3air3Ry69Ihzmjo72/n1r34J4HRoFgNlmqT7c/FG2ePxDB6i32ApNCwbJtSMZ+7867BNG5R0not3Sm8IhUDx0gtP07hzJwodhESI/o1edYTQ+djHHyAntwDblu4tchVbwgo0AcKVdLdNi3179tDQ0MCBgwcRmsa48eO48847ycjIRAiBtBUxSyZlmeIzz0DPjOgdo8S2AikVum5QXj6SESNG0t7exu7dO9m6dStLly6lsrKaqqpKhg0bhk/3IaV0nB1wgnXQJ7Udf9/D5YXngHjwcIUjPm3aUpKZnU1Obg6WZYKUjB07Dls55LyCggIKC4qczyiJbUukZZGXX0hBYXEiuj+1fhpSSSxXWUSiGF4+MqHNDhAIBKmrq0/UuccbR40oL0cgqKqqQiHc+l1FOCWFnbv28tzzLxAOBgmGw6SlpvXWyQuB5i4uTlTQdt8Wif3HTIv8ggLyCwrca1BEYzFCoRRqJ01KLCpjx40DN7ovcBwb0zTRdIOpU+ucRU9JlLRREiZPrXNH0Fn4dGy6z3YRDKZSP20a0VgUJW0sy+L111/n+PFjhEJBJyqH05skjj6ykPGaY5fj7fcHqKuf5hLY3XIC22bkyEqkglgsRl5+AfPmFzlROndftm0DiiFDhyYyUAC6blBXX+9G9NxSESkZPrwcBIwYWZnInEip8AdCbG/cyUsvvUReTg4x0yYnN5e3336bVavXMGXKlEQvGZUwADwX5L1D0NnRgdndwX0f/0xc/G0ATogCEXdCLh68b/Dd4Rigep/3dJ+P/QcOsb1hC/PmX594HBySs5b0yeQRdicFadO4dQuG38/EKROxbRuRUGhyBENaWlp44oknuPXWheTmFbn76e+QXj1GsCYcXpqu65w+3czuXbvYsnkzPT3dDB1axu0LF1JYVEQ4JQVQ7togkQPypURfzkbCF3HHQwhE0tqDK/5h2055VmZmJvX106mtncTp06fYtGkTixcvJhwOM3p0NZWVVeTk5AAC03L4holDCS/4cqXAc0A8eLiCcY5JI50MBZqGUGBLlTCCLVvidnLq82lbyoTBDyAT3b2FO9HHe0SQiAopHBUp+iwCIG3lSrjGt1NY0mbOtdcyvqaGU6dOs2b1Km6/43ayc3KIRCPuPpKM+PNN/YKE8d3nmpXq8/45nc1diUcnBW8mlRg5NWF2v27mgaDBmNGj0fQAlmm6/AuHYD9p0kTGjRtHbm4epmm+J6Kxcrk5fb8DkNJGufK3tlLQ/xrdhTe5Zwq4Y9u/JAywpHRHM64Go4jFotRPn86IkRV0d3Wzfv06rrv+eoqKigiFwnzlq18lNy8fM2Y6mZtBX5WHZCicZ0Xakoz0bIYNK8c0TQbu6av6/fZwOdFf6EE3DKIxm8ZtW51nTymHB0cyb2Og706h6wLDp9He0U7LmTNucCfZARG0tbVi6Do+Q3MU9eICF1e4zxG/fmc5EOi6jqHrdHV3c/TAAdavX8/Ro0fJzcmhvq6OYcOHk5WV5RDKpe3MwUI4Zbmy79yfOMYAohv9i3d7x8lltAknixX/bmIxE13XnTLj0lLa29tpampi7dq1LF26nLKyodTX1zN0aBnBYBDTNBNzrKcfcWXAc0A8eLhKkVzmOpCh3HeSP/+q944LYv/me/22Fa7hHAwGKR0yhJLSUmonTEATgkg00pvqHnSB9SBW53fapk8H3XhYre/BzViU+dfNQ0qHh4KmoaRjeBTkFyA0zckendMEa7CXEK9rvoilNyQHDUWCCD+srAzbllRVVSY4Cunp6WRmZiRKx+LGwRVuB12xEEn/d1R8Lm6ZlYcLg/4lUriZ0jicjKdyzWBx3mlGuAEDTWhYlklnZyeWZaJpvR/QNYhEehyem7RdB+TKJ0grKZ1staah6wa6rnPq1Ek2bNjArt27iUYijB8/nmuvvZbc3FwneCUl0aijYtUbwIo7DVpizkk6CgOE1gZ5hr1zq6Y5zVctt4Q1NTWVsWPHMmbMGE6ePMGuXbtYvPgFlIJx42oYP348BQUFKKUcZ+R9jpGHCwfPAfHg4SqCSFKaihtCyZnry4U4AdD5A+yBSnvVRTTT4qVFbqrGIYrGTfRkJ0Q5RRASbFuhGbhlFyA0hzCKlH1G+EqFs4z3DqqyFbZluzwP4TpQbld3JUgmfPbuwcP7gRDKzXTFCejeWF7pECL5OxK9dIPE9xfPAvf/HCR7I85s4gQoigqLqBk/3s3A9van0DU4cfIYa1evdYjRKvG0Xmacj3/iXLjP5yMYCtHZ0UHjju2sWbuWY0eOMKK8ghtvuIFhw4bj9/uwLAvLtJLm2fMdI96ho/9x+2UM1XubbeNOjTO3OeMupZ1oWJifX0BhYRHTp8/g0KFDrF+/kV//+tcUFhYyaWItIypGkp6RTsyMJX0/vap2qo97cmWvA1czPAfEg4erCPGFrLf76+Vf0s7BeeZrebHncUHvAqJUb5Qsvvi7x7fRHSYlbimZAiU0bNcJAYW4Aof1/UI4xI9zzJ8P0CVeUvRSZ5XDD3LHVinp8Jz6bOnhyoBKlBU5ladavAIVESeQC0eB7p0yrJrQ0HWFIQChs37Neg4dPIRSNro71TgcA0lXJEZnZze+QBDDp2Mr6zI/dHFHIJ6xE4CGrmkEgkEikSgnT55g5cq32btnD0G/zsQpddx9952kZ2RgWxIpbaIxl7+nOSVRybe5EKpvllzIRElsPCMs0FCqf8miOrcuSvR3ZXrnsPj8Hg+29PmY0HDiSBIhdMorRjFyZCWdZ8/SuGMHr76yhNiLLzKyciRT6+ooLi7GZxjEoha2lE4Z3jkLgPcsXwx4DogHD1cZzo04eUjAHRoFiZpuJ7yW1BtD9WaNEsVa55SrXZ3m+blVd969crHRaxhdneTiDxvic8P5cZ7vToFu6Jw6dZxYdyeTJ09m6pQpZOfnYysbn6ah6Rq25XDneqIRjp84SSwW4/DhQ2Rk5uAP+C8j/0Akfgsh8Pt9CAEd7R289dZy9u7bx5nmZiqrqrj3vnsoHVLqZpUVZjQKQk8KYjgBMCWSSjnPsy4pNxOdoBky8Aj3L+/tX0zb/yo0TXOyMbbp8vycQjeERnKGxbQVGjahYJBJkyYxafJkjhxuYt3G9Tzy29+Sm5dHdVUV42vGk5GRjhCCWMyiN6HlPcsXC54D4sHD1QhvTnxH9Co9xeuT4rmRvqUU5zgaVz1vWHjdnD14GADJBq1Symn62X8jIdCEGDhb67735J+eYPfOraQEghiaRsS2MG0Tn6bR1dVFSjhMXLVJ8/l45dU3SE3L4HOf/zylQ8sGFNq4FBA4RrvP56cn0kNDQwONjTs4fPgI2VnZTKgZT0VFBWlp6Sic3lBSSgQamuZIeOu6gd/nc1S/NN0dEq23DAqFFYs6TQl9PnqjPPHZV3OFQkgqoVJIJbGlJBQKOvux7d7MrcI9viDaE0lktjVN4xc/+xm1E2uZPGWyK3Os4zN8jlCEcgRAHIfQKZGT0lHRKh0yhNKhpZzt6mL3rl3s2buXbdsbyM3NprpqNBUVowiF05CukqGS77FGzMOg4DkgHjx4+OBBAMohyGt933yPOxnENu+6y6t15bpaz/sSwi05uVxR7cEcdsBo84U+kasA5xfbGIijcJ4tleKWhbdhXT+XztY2Nm7YQM2kieTm53Jg7x5+9P/9kPsefpjikhKEpjuGMAKfESAvNxcpL67zcQ53TUl0TcPw+VBKcfLECXZs38aGTevRdZ3q6mruuXsGOTnZ+P1us0BX/dDZlwZuEZWh6xw9cphnn3uGlNR0NEeCxM1oCHp6uhgydBjX37SA7u4uXnj9dc6cOYMhHMK+LqC1rRlfIAWf3++oBkrJ2LFjmTF9GnYkxp/+8CQtLW0YhuG0TnUDKVLaBAJBbl24iJSUFAzDYPPmTby19HVuu30hK1etZtPGjRiGDyvWg2EE0DSDQMDP/PnzySsowLaTnB5bggapqalMnjyZ8ePH09bWwpaGLbzy6hJeffVVqqtHM2HCJPLyCvD5DSxX7rzvE+U5Jn8JPAfEg4fLgmTyX/yleFdj4UM716nE/94ZyWTRJMPQWXjcpXIA7sw5e1bnef+c7fouQMmG6KXWmUo2sD6098nFQvL9p2mJN3uL/Bwjq/eGuUTfwGAOM9BN/D5PTw1CQ/bc+vkrAf3m1j7cgTiXgHd+4F058KGlQwj6Dd549RW2NDRw1333UlhUjB2LYugaK956C38whFJgSUUwHOa+j3yUUCiIaXMBs5N9V4Z4U1dwenYYhoEmBD093Wzbto0tDQ20tpwhPy+PG66/gfKKkYRCYZRL3nYyCL3lUongiluGZBg+jjXt581XF/ONb/4r4WAQbBOFjWForFn1Fm8vf5X5N9yI32dQUzOeSHcXAZ+BkjavvPQsS19/mS9+7ZuUjxqFtG2i0SgZmZlIO0a0p5Plb7zKvHnXUTFqJJZpousCXXOUuB577A/MnH0tGenpRHsiPPmHP7Dovo/R0tqCz9C59ppr6erq4ic/+C9mzJrDrDkzkbYiLSV8juMXf5wty8m0aLpBfkER119fxIyZszh08AAbN27g0Ud/S15eIRMm1FJVVUUonOIo37mCK87zMNi0uTcr94fngHjwcNkQT0v3RuDEOYZxv0nrXVfJDyrUoKLM/dd25RLME35CnCOSnLhIKhHo3RGcw0Qf0EHsFwET535n8XKDC4F3ko5MVHgP9ljvOqAfxvvsfIjff+63m9xV2b2xnPrzy3Jy74jzndL76kcxqFviyhyHgZ5xIeIli+B0zH6XE1cKoQQ9Xd288fprnO1oJ9ITAaUhpYaUkuLiUrJy8hxRC6Gh+wwCgYBDbnbi+hfgWs7N2gjhaGsYhmPWHT7cxNo1a9i1ew+hUJCamhpuvfUWsjLfAu1fAAAgAElEQVQzXdVCG9O0nGuChGQuSa8dx8wpf4o3Tu1qa+Ptt1YQDARxunBaCCHZv7eRUDgVpI3P0CkfMYxQMEDL6dP85pc/57UlS6gYWcHuPXto6+zg5psXkJGeTk9Pt0sYF8SiETZtWMvxEydQ0gYkmhC0tLYQiXS66n6Sl158gVA4zIyZM3jo85/joS8/zIwZs2htbSE1PY38gjyqR1fT0xNB2qpfYMiVcUnqeaWU0whXCPD7g1RVj6WqeiwtZ5pp3LGT9Rs2sHTpUirKyxk3fjxlZWWJ8jHbtgfggA2EK/KhuKzwHBAPHq4ADKD+6OEvhWtcJJRTwFlsE46Fa3kMkBEZeH9XtkHuiRNcWvTJYV6KuEDybZs8YQzE1PXwHhBXhnp3CCHwB/w8+fQTHDl8kNLSQv79X7/Nw1/7GxQCny/ADTfeTPmoSmwlEr1Benp6sGyJ0MSgAinvBQLw+Qz8Pj+tLS007t/PiuVLOdPSRmVVNffddy8lJSX4fH6klI7TIYSjBIZy+CpSuS8HOr/em03aNjm5udxy8834/SG3W7mNbsCaVZlsbmhAofD5nJKl5597lmef+CMjR43k7/7+f/Lss88xa9ZsGrZt5dv//E/cuvB2pk2bjuHT6enqIhwKMWvWLKqqx7p9rhzFrqamQxw+cgQhNKLRGG8vexNds/nW//wac+ddy6xZM+nu7nYkdaVEKoVlK6zEdQ1uJJUrxhXPmGRkZDNr9hzq66dx8uQpVr29gsd+91vC4RSmz5zB6NHVZGfnEDMtTDN2UXs/fRDhOSAePHj48EElabGcN0Tc7+/BbtcfnmHo4QIgbtz4fH5QEtuy3ehtPGr9l95orqHpRUMGhnDI1s8+/RS//tXP+cpX/4q6adP55U9/xL/80zcIhcJ0tLXx21/9itTMdEwp0YQOQqe1tZUFty5k8pSpxEzrLz8VBJquEfD7iUajHD5yhDdf/zNHjx4hOzOL+mkzqBg5kvTMLEzLIZNblpXI9EBvYAZ6uRF9juGWsCrlMEH8/gBpaWmc7Whl2Ruv4zP8gETTbISw2bN7B7o/hXA4zMED+/nFz35CelqYh7/610yePJEDe3fi8/mprKxk2vTp7N+/n0d+/UvWr1vPV77yFVJSU9GAjevXcPTIUaRtAhJdE3R0toEVI+gPkJ6Rzr/+x//l6T89zokTR3joSw+7jtWFVxBRShGLxUApCosKuee+++jsbGfv3r28tfRNXn3lFUaUl1NfX8/wESPQNY1YvOO6GrTn86GF54B48HCZIITT+Mnn8yFRaAPMm6pfUVaiEeGHbV5TgyzB0nq1rhQkOpz32eZSh4yFeH/lLgNAH8xGqq9xcT68c0JHoWtOHfmH7l67EqHi84XBsWNHsW2b4uJiDE3v/X603hIi07JASnw+34AiDIreEizLcjgAuqaj6wamaZLc4DL+UU1oaD4d07QwDB1D14maMZQCv8/Xu2nSjaUUmK7qka7rKE3DMs3eW2oAZ+dK9X80TWBZik2bNnPPvR/hmrnXI3SDh77y19x8YB8HDx7kbHsr3T0mMdtCChylLSXIycmnqLDI4Vn8BdBddSmF4vSpk6xfv57tO3ZgW5KRI0fy0XnzKS0pBcCWkmgs1vvhdxpU4Tg1vc5sL78hnhXZtGkj+w4c5vZ77mfUqNFIBH5DAyxsK0JmTi6nz7Tx2quvkp+fzx13LULTNFpaW3n55SXEes5SWVXFWytWoOs6/kCA2+5chLRsdu/ezeFDB6mdNJniklL8gRDxOciWFrZtkpFbytp1aylvb8OKxXjzzaXMv/563nzzDSoqRlFUVEL/2/Y8lzqoIen7IYG0JRErSiAQZuzYGsaMqeHU6ZM07tjOn/70BOnp6VRWVVIzYQJ5OTkACefPw8DwHBAPHi4HBHR3d7BrZyPBcAgJaKpvBMdp1iTc4gDXsP6wOiBIR5f9HCQZOygMQ3dql6WjzhLvjOsYVC7BEvpEAi8mNAVSXMia+EHU+gzS2xEDD2gCmibobG/DjppomuaO/4eVgyScJmvKdSYvdWRTKAwUsZ6z/PiH32fOnDlkpoc5cvQoCknQH8BWEInGEMKgpHQIKaEg+/fuwoz2JBrv+f0+IpEICh00Hb9PIzevgLS0LI4cOcJzTz/Bx+5/gLy8PJSt0ITDa7ClzYH9+1izdhX33HcfjY0NNG7byl333EtXd4QDexuxrRj+YABlK2JuX4b0tEyKikrwB30sX/YmPd093HTrQmKRCEpKAgEdJTSkAsOZ7uiJmCgpXA/50gULhEsMU/HXopejpwQoKfEZBl96+KukpqZgCw1p2WiajxGjxlBROSYR+XbmGOdZcbgCTjpBWlYfnsk73ktxzpGmoWsCv99PR2cH23dsobFxJ01NRykuKmbe3PmUV1QQDocBhyPR68QN7nmNz4lxJyQuNiBcWWKUpLu7G8MfwPCncKCpieysbJ595mlyc7K54Yb5hFKyKUvLIxYzyc0rIBDw842//VsmTKihbMhQpBTkFQ7h7NkIuq7x1ksvMXLkSB588Es0NGylqztKSmomJ06eJjsnj60NW9i3Zw933nMPmhAUFQ/FtKG76yzLl75JS/NxfIafs2d7XA6JlpAgd65YAwwU8pxgy0BUynedNvuMj0IIjcLCIooKC5k2fRoHDx5k06ZNbN60idycTGprJzBsRDkZmVlI2+HcKJdH42VGHHgOiAcPlxgKJxpYUT2BZcuXIlxVncTklIBwmzg5ryHJAfFAMhHT0YqHMy1nyMxIJ+DzoSknhW4jHZ36ZAfElZe8JKcoBEpoF+hogyQ79m80PNBW8c5g5/t3obAti+px49A0DWlfal2vKwhxv98dgEv+BCpFKOTn1SWLsc0odVMmcvToYTZsWI9SkmWvv0JuQRFVYyeCEqSlZ3Dm1An++z++zdjxY0lLSyMaibJq1UpqJtSSlZWPqSQrl7/OnXd/jEX3fBwzGmXzhrUsuGUBK1Ysp7W5BWlZDC0r47Zbb8WMnGXLpnV8/BOfINLTxSuLn+PMmVPcePMtbNmykVi0i9WrVpKTk0v16LFEYjbFRUPJzs6lp6eTPY1baWk+ydT6egQKw6fz+pLXOHbqNLoRxIz2UFxUwA0L7nBLf+L3+oXLIL4Tzs2UJr1WTjZa2orU9AxkvDZJaEhAWirJ4O9Pzun/ut9+z3Nt8UZ7kWiEU6eaWb16FYcOHcQwDMbX1DBn9jwKCgvAlc6N985IPoM+yhvvhOQu8fTVp5BKoSGYMnkSMJF//MbXue3Oe5k9exZrVq2g+XQzLS1t2LbEMqNUjx1LcUkxJ44dQ9cE8+bOY8yYGicrpxRogmAwQGvzKXp6ejBjMUaNGsXEibX84HvfJRQK8pH77iUc8rO1YSMtrc1oaNi2pLCohHFjRjOyfASf/OQnHeU5TSMUCiGQaG5jRA0nW6wB9gAjEBeU6PvmQF9Cv08m/alwlcNQ+P1+qquqGTVyFGfONNPYuJ2ly5aili1lxPByamsnUlRcij8QJBaLYXtZEcBzQDx4uCyQts3d99xLLBbFVo4CyLmJDc8BeWf0GuOaJojFIvzukUeYVFvLpMlTsCwJcecjERN0foTqs0xfvDMUuNFnMUia6ztDO6co73wHHsQ/v4sDAk7xdyAYQNrSVfDx7r3LAUPXOXr0GH9+/Q3u/+T9PP3MsxSXFPOZT38WIXQ2r1nFhHHj+cSnP0/MjIHQ2b5lE2kpaVSUj+TA/r3cdfcimpqauPHGG3njjbcoHVpGcX4esWiUrVu38NbyN4lEOnnrraWMGTOO8aNH8cLzz/HSixtA9rBv314ONx3ktdde4aYbb6CsuJAXFr9ARnoqH/vox4lGe9ixZTMLb72V+pmziPSYgMHJk8289voSVq1ejRWL8Lvf/Y6mA3u56567WLLkJWpqJzOtfgp/fu0VXn7+T8y74TYM0bfY8GLfdU7TOwkKDMPnNL2LRtF1p6u2Y7A6pG0pe52NPspo8f3gOPeDfd6T3RWBU2YHTofylSs3s3vvLtpazlA6pIR58+czYlg5wVAIKRWxaKxP2ekFgbsW9X1LoGvwxB8fZ+Xbb1EydDg52RlI2yIvN5vKUeVOhB9JTlYmZqQbgUQpm2ikh2i0y3FAgHjjQtO00DQNw9DRhWBLw2aef+5JhpUNY0LtBLq7OsjKSGF09SinOaQNKanpWFaMHdu3cfDgQU43n8Y0LabV11NXV4dpRpGmDVIi7Qi2FXVGRvefM+aDovi5G72bA+yoipkAZOfkMHv2XOqmzeTE8aNsb2jgj4//kdz8fKqrRzNmzDhS01IdXo5pfqhnVM8B8eDhMkApkEh0vw8dJxLmRJ76Fl73mpsf9hKsgRBfHSR+n48D+/ewb89ODE0xvmYCwWAatrRA9Sd9aoMuU/qLEY9ACu2CLDTxxl8XAmoQDojQ4pk55070HJCBIBlUyul9QgCapvPLn/0Iafdw+uRJtjY0MHVKHWbMxm8YKAlC6EipMGMmmgFoGlIJpk2bzt7du9i3dz9+f4CmQ01Iqairn8baFW8gbQshbWKxLqKRTjLSw6xbt4qHv/xFsrIz0fRhBIM+lJIIt2fEz378I+qmTuZTn/4MTz75NMePH+dY0wEOHtjHn/7wGC8uXkxaVgHhcBp33nkPH//EA3Sd7SAW6ebhv/oa3/yHb2DZkkAgQHl5BbUTatnVuJ2GjWvPldK+aCObNMZCoOs6uqHR1tbK+vXrAMU111xDb/DCyaIKN6tJ7y93SlYk14n2Ur37l5H1I3srgdA0NN0JVOzZs5dt27bT2LiDzMwMamtrGD16NGlpYZQC21aYpkninrsApBnhMs4HTgI4ZV2P/PZRVr69gm9/5784duQIv/rVb2huPkNaWhrLl69wSO44YsOTp9ZTWVlJa0srjz36O4pKSxPKUkrpaLrBhrWrmT1nNkLTWbNmLY888hvu/egnyczM4LHHfo9tmZi2xvJly13FLkEsZlM2vJy8vDxy8/JYeMcdnDhxkieffJKVq1ZjWxY9UcXKlevYs+8gsViMqfUzmDF95rkX9k43luj9Nej7L+nGtaREN/wMK6tgeFk5Z892snXrVrZv287atesYVlZGZXUVI4aXo+ua2+RQnrOfDzo8B8SDh8uARB+KuMMR/9WPaT1wwc2H3AgcIDoXjfWwbOmbhEI+Dh8+xK5dO6mpnYq0BGJA4/ASjWG85JcLqP5/oeSAB8PqT/goyjUtes/DA/Q+oReXOm3bFrVT6tixdQs//9mP+Kuv/x01NTWYpgTd6UndPw6uAceO7OaRX/0Mw+dn5VvLaNy2EUNIcnIKeOm5J9nZuIXauumMGz+GDetWoNx6FSsW4fvf/U9Ot7SSm5PP8OEjKCws5FDTYerq6nnhxAn++R+/wf2f+gL33fcRNqxbwy9/vp1vfft/c+TocZ557lk+84Uvk5NTgK77ERoIZWFoNn4dAoaOhoFSmuM0WRIp44w35dzjSvXt13PB4RjdmqYRCPg4c+oMWzZtYuPGdRw+cpiJtRPRNBtdEyiZzEZx5L2dnn/xmjxxDq3M8e+Ta/6T6q0SgQknE9vR0cnmLVtY8/ZKlGEwduw4Pv3pz5Cbk4WmaVi2iWVJR9ZXqN4D9Luei6IC62aDAinpfOMf/4VhZUOJxUyuv2EBmu70C3EU2ZzvTDN0gqEwpmny0Y8/QG1tLZnZOQnfTCmJYWjMnD4dIRTRaIzW1nY++9kHGT9uHEraXDNnPqZlouuOUx33BGzbJhAMEA6HUYBlKwoKS/nM5x5yeBlK4TMMbMtCCYkSYOgBp5Kg/+AM5nF9n4+15pboWdIJfgVDYeqm1jFl8hRaW1tZt3YNzzz1NDowrraW+rqpZGXnYsZiWP2aJn6Q4TkgHjxcNvSd2XqJi33/fYCtPCASi4OmCXY07uTgwb2E/D4s22b1mpWUjxxNKBh2G1r1++wlPdVBFU0NbldcOItsMLtRSa8+9NmPZAKIK7F5MXuvOIdRiWPcceddHDx4gDvv+ShTpk4lGouiaf7e80n+tqQkHA5zzdybmTv3GkKhEC2tLTQdPsb0WddQXj4KEESjPZSWlNLT3cX6tauJRaO8uPhlFi68nSXPP4GUFtWjqvjdbx/huutvcLIxQueBBz5LQV4u4XAKy95cxosvPMNHP/pxojGLqXX1oGn87pHfcMcd9zJyVDWGrtF84igZmRnoQqFsR1TC0Aw0978459yxNaWbURBctIiwAl3otLa28dLiF9myeQMtp0/gMzRSQzpHm/bwx8d+jW4EkbZAKSdLYhhOpkTTNTTN+dFdNTJN0xxegov4d6dpGprhOIpoGrqmoWk6pqU4ePAoJ48dISMzmxsX3MTw4SMIh1OR0sa2baQtiZMz4squSkF/ZvWFfDr7OlKSUEqIO++6G9u26OqJIoBgauo5R41/TirwB4PcettClFJImfwdKpSSTJo8CQDTksydOxcUxKImSikCwTCBpPGLX5/CdpXVHL6LQkPoGuHUlKSNFD7i4xSPoJxbNfBuz+7Awb+BMNB+hFu7IBKPp3T3mJ2dyc0Lbmbu3Gs5euwYy5cu5Sfr11AytIy5c+eTX1Bw1XBEkoNS7weeA+LBw2WFm6j/8GRdLxCciV0Tgu7us6x4awWmZREK+BFCsHvXbrZuaWD69OmY/efyROvjS4M4ufOK29kgDLsLlm35wKF/Lqh/mc1fhuRRV0rhCwR47tln+OPvfsbMubdw+MgRJk2awpzZc+MbOVk212rSBRhCQymN11//M4Yu6Oru4WjTId5evpydO3YhlcQ0bcKBAEv//DrhlBSGVYzicw89TFnZULZuWsOuxm3MnXstjx5uYvOmTYkO2ZZl0dXVw8kTJzl48BA33XgTldWj+c/v/Ct1M2cz+5o5dLS38dqrr9ATNZk6dRJKmpSVDceMxZDK6ZYtpUXc1FPSRimZ6MB9IcdzIDilbQLbtDhw4CDNp06hxZ0IIBqNsH//XkxTIYSeIMYrKZFIxyWXjjEd/76ktJ2Ifd9KWrdjtpUQGrFtC9OyycsvITUlG9OWVJeUkJmRQSgYQNf7Buzj5myvml+fO+TCj1O/3UmlHG4RvGNApY9wgFKY1kAUcEAJoqZMkPtjMQtdCDRNc5wu6cr/9vm0k12Rtu0WhPZmk/pWDjjj33f8BjiFd7p+3uua3IednvTL8RgdR8gGpdA1HZ/Q8Kem0p6aSmFxMfsPHqKlYSszZ86+OFmsKxSeA+LBg4erE+5E3Xm2i5SUdCorR3Nw327S0zIoHVpCZ2cnpmm59cOyz8euVofv0p/3VTpQlwwX11qIR2lt2yY/L5+v/Y9vMmP2HFJSUtE1g0RmyhU6iEfhYzETqSSzZs9CSZuAX6e5uZnt27YzafIUyoYNcw1lhebz0dbWzoTaKbz00mJKSkqI9nSzf+8eDH+Ip59+mtvuWMS2rdvZu/8gQkAk0sULzzzFJz/9WW697Tb+6//8BzFbEgylsGH9OnbtauTs2S6uu+4mJtSMo+XMaTo6ehhfO5FINAIogsEgmhDoho7fb2C45GunzGhALvQFh5SSrOxcPvGJB9jVuI2N69exf98+enrOMmlSLXPmzEFJA00YKHd7qSS2ciRVHSdEJsbSsu2EQpaUMiEDbivplAW5F2SZJqZlkZubR/Xo8TQdPsyqt1fx+8cfJy09hZrx46muHkN2dq5DNrdMEjVMrtLVlWGn9p8fep0Pn2Hg8wdQUrqZG6f7upLSdRAUmiaIRKKAw13q6u4iMzMT3DI3XdMSssKxWIyezm4yMjKAeEbh/c9PF20uTXaIhHC4U7qGT/MhgI6WVg7tP8CmzZs53nya0tJS7r//EwwdOgTN8GHbNpp24bLmVzI8B8SDBw9XIZyUurQVWVnZ3HP3fRw/1sQPtjYwauRo7r73fjTdcPpXqPNE4Tx4uAqglGP4jqyspGRICUuXLsM0LSqrqpk8aSpBfxBd1zB0g2DQaeDWcqaZ1StX0dbegt8wkMrhD1RWj+XAocOcON2KZVpIpQiHw8ydN5e29lYWv/gCsWiEJx5/lGuuv5m6+np++IMfc/vdBVSMgpWr16LrOqdPn0IJQVX1aNauXUt7eztjx4xm+RuvM3HKRFYsf4tRo6t56qnHqZ00mYYtG2mPRCkdPgJbWgnCMkLQ0dFBa1sbPd3dzvMKJESrLyq1ptfE8/uCjBs3iYoRlezbu5dly94kFM6mdEgF0vKhcPphxO1KGc8Mxk8zUSrXp8tH0snHX/d+TuAYwVJKyoYNZ9jw4ZxpaWHv7l1s2rSRVatWM2ToEOqm1lNQXIQ/EHCaREp5xRunuq7T1NTE2yvfxtCdOdjJANloug+/L+g6ZIprrplLaUkp6xoaePyxx/jHb30LaTud231+H+FQmGAwyMaNm1i67E2+/OUvEQgG3GxZ8lGvELcs0czRKdnTdJ1YNMqRo8d5e8VbtLe2oQFjx45jwe23kZ2d7WbIJFL1Zn4+DPAcEA8ePFy1UCh0oePz+0kJh9ENga5rBAIBhGa4JR4ePFxdSJhSSiV4F88++zwtZ04zbvx4NE1jZ+NOWppb8BtBTp9uZsf2bbz84vOYZoySkmLGjR/LSy++yENf+hK/eeQRbrrpJoKBAM+/8Dx33LWIo0eP8fTTT/OFB++moKCAM1tasSzFyy+/womTp3nw4a/h8wf4yl99nYysHA4fOoxUAp/Px6ZNGykuzCMrO5czZ1q4865FZObk0RPpprC4hLKKUdRMmIhpSxp37uSVV17jttvvIJySwrGjRzjb3Y0/ECQai/HykiUcOHSErZvXIeJG5SWqklRKJsq9bFsRDKUyYeIUhpWPouvsWWKmjlQOByPO7ZAJWe+k7+scefT4ySfVf57LGU9keZRwMiWZmVnU1U9n4qTJHD92hN27d/HiSy/g8wcZOrSM2tpacnNzAYFpmo5ykiYSJVqXG/FzMAwfO3ZsZ9WK5UyeMpGSkiKkbfHk47/nE5/5HKdPnkHXBc8//RQVI4YzrKwMISRnO9s5fuwoq1etorWtncOHDzG5tobPfuGLdHd10NnR6vL3ddfOT5JfSHIQ4/yYS1LOpHozHkJznA6f4WTMTp06zaZNGzl08BDt7W1UVVUyfdoMiouL8fl9SKWwTMvlUricMk8Fy4MHDx6ubPRyguN12NJdyGMoGUMJ4U7rV8LS7MHDe4NjaDkWqrRtbr9zEVIqUlND9HRHUGo1ba0taOIsiz72cQDOdrSCgNbWMzzz5BMMHTaCguISItEITzz5JF/88ldpOnqEp59+hnvvu5eU1FS+//3v8Xd/9w18vgDpGTmMGlXNzQtuw+cPo6QiIz2TP/7+UXbv3sO4mhrC4RQOHTpMcdlIDL+Pez7yUTZu3MR//ff3sUSAytE1TJ02ByEE02dey5///CaBcCr1ddP5f9/7IcePn6CqejxFJaWkZ2UzZ951zJ41hxeee5ZVK5Y6nbcvgeizAqSyHd6H7vSZkEoRNS3CqWmEU1ORbtdrlEJqbukQknPbisaj3u5fA514v48kSM7C4UEgBFLhkM41ndKhwxk6bASmadLY2Mj6devYsGEDBQUFTJ1aR3n5SMLhMKYZw7ZlvC/iZYdyex4JFKXFhYT9PpYvXcbnP/8F8ouGkJ6awbNPPMuCW28lKzMdn67zxmuvs/j5p2g6tIMXX3yWO++4g7KyCr73vf/DirffpONsO7t3NnLowAFeeO45brljEYbf53RAj489vVmlhB8iGKDB7wWGm80SQiMYDBCJxdje2MiWLVvYs3s3xcXFTJo8iaqqKkKhsCMuICVRy3ayavFGxBf3LK9IeA6IBw8erlqIOMEPEoYCkFiUPoyTuocPGFyDSjcMdAWRiIluGMycNds1ansVfjTl1M23tbXR2LiLWxcuJNLTzd333MOOxl0EgwEe/MKD7Nu7j2AwxIMPPsjLL79EV1cX5eUj+F//+99JSUlxCOqxGJqmkZaWxi233IKmCcLhFLq7u/n0Zz6L0DS3HwVUVVVRWlpKMBQkNSXFMQyFRjRmMqWujil1UwmFQ9x51yJ0XSctPRND1/mbv/1bdF8AKSU33ngT86+7rs8zfTkgiGc5ev9Odh7EOc5HL3pP+72c/8AqSrZU2FKB0KmpmUDN+PG0tLayft06lix5GeRixo4fR119PVlZOQgcuVyVpBB4eSASP2YsyvXXXUcwEORo02HMSIRTJ09y7333MmLECJ78w6NommD2nDk0HdrPoQO7mDfvGn7xsx/x+Qe/iBXp4q67FjHnmrkseXkxq1eGmH/dfPwBv6MUNYiqqwvWu3eABJcQgoDfDyg6Ozt49dWX2bVjB0YgxJgxY5h77Vzy8nIRmoZt2a5IgXQdFjdzExei+RCuVp4D4sGDh6sQvZP1QBLvHjx8UCGEcFSJ7F556eTKE6EkwXAan/78F7Asm65IjJLSIQwZOgzLkpQOKWVI6VBM08QwDG6//XYsyyFMh0IhbNtOcBriv+PEX0dS1cbn8yf+BvD5fGRnZwMOYR5Eop7d5w8ghFPTn5OTg8KJ9NvSJhAIINFQUqEbBprPwJbSzYJcIbgCziUWiyKEIDMjgxtuuJF58+Zx5Mghtm3bxi9/+mMysvKYMGECNbUTCQVCWLaFGTMvjxOS4F9r7Nu9gz88+huCwRB7GrdycG8ju4oLSUlNZfXbS2k+fRIhdAL+ADu2b+fQwUO8/tprlFeU873v/geWqfD7NxEKhsjJySUUCpOampoUaHp37+JCUfaTnWK/z4/f76Orp5s1q1ezfsM6zpw+SemQYdxy220MLRueeJZ6O8DHz8U5H5m0v3dyaj/I8BwQDx48XF04p/ohUcwwAOKSnr1p+oGUy89peKa87ImHKxAJ5VE3anpO92qnHkQqiMUcw0cIDduW2LZD77ZsiZbkYFiWTfw5UW7k33mdRGiU31MAACAASURBVKdWfcO/A2UoEplItITUtXKfvfi/ycSz6paduKqy8UdUXd7Q/RWLZDU023YEBUpLyygtHca1117HmjVrWLN2PW+8uYzhw4czcdIkhpWVYRg+bNtySrQu4Yxm25Lc3FxuWnAnVaMq0HQfx48dZ/eeJmomTiMjM41IzCQtPYvMrEz2H9zPkaOHqRo9Gr8vwIjhFezYsolAKMDMOdfyzDPPMmvWLFyJqXc8tnDLFi/k9QoEhs9A13WUkhw4cICdu3axbes2DF1jQm0tEz7yEbKzs5G2chwP0xygsfD5z0m4ZYcfJngOiAcPHj4QcGQeeydwhUJoYFoxNJyOx+DUfSMcsnrcHupvyGlCB+WxRzxcwXDvXdH/Tae+o9/GfdWYznXCBzD633cPmIGItOLcv5QA9H7nE3es3uehLzYS9VgX6gRF0v/ffbv4uColEpmwYDDEtdfOZfqMmZw8eZK1a9bw3HPPYRgG48eNp6ZmvJN5UmCaMScz9a5XMEgSS//r0Jxmi7omyM7J5nR6JkePHkcTGidPnqLrbCdHjx6lvSMVKRR5BQWkpoR46eVXqKufyo7tDXzi/gcwDI1nnvojTYf3UFIyhMLCYrZvb0TTNZdfknRY1ecUSASd1DsZ9AO/r3AVzdy/NSHw+f0IBKebT7Nr1y5WrlxNMOCnpKSURYvuIj8/n1AwiK2cRorvr4TwSr3hLy48B8SDBw9XOeJKKPFJXIFwFqFILMIvfvEjOto78OtO3wRpSwyfjq5pxGIxnL5hIlFrrxTccMPNTJ1Sj2ld2sihBw+DhuiNjA/6A+5vNajPXchMxEAODiilJVIgyU/ZFf3ExUnjl/qgSYgbygC2lNhSYug6pSUlDLlrEWfPnqXpcBOrVq6koWELubl51EyoYfiwYY5Us8CRwT3v8QbhgNDrKMZvJ4GO0ATHjxxl5/btaLoG6M5vTeEL+PD5dYQAv2EgUKxes5ahQ8qQspDNGzcSCoVYvuxNMrLzKC0dzq9++XP++m/+njdee431G9chlULHIbsLpdASxPsLY/RrGokO9z1d3ezbt5c1a9dy+vQp0tMymDlzBtXV1aSnpWFLpzO7ldS5/P3wl67o+/0iwnNAPHjwcHUjIdmZVMvhQtc0CgoLSU1JxafrKMvCMDS6znaybPkysrOzmTZ9OlFLoaSzkFq2JBQKXrlRWA8e3jPEeV5fXgzOEfIwGEilEEoBknA4zJjRY6iuquLkyZNs37aDpW8u5Q0lGVlRwegxYxhSOgRNi8v5Oum0RAHcgF/Lu5fHKSVBQjgljM8f4PixIxQX5XPq1ClGjx1LfmEB0WiUgsICmk83E4nGGDmyiqqqarY0bEIIje3bd/D888/xhQe/TGF+MT/96Y/x6QGyc3Pdmr0LExJK5ASdLomO02EYoBQnTp5g+9bt7Nmzm2gkwugxY7lmzrXk5+cRDDrcDsvtYyKEdiU9UlcVPAfEgwcPHwjEO+cSF8NSoOs+7rrzPoRSGJqGT9M42LSX3/z2V5i2xU0Lbqa8vIKhwypJT88iFovgqDZqTnTrMl+TBw8ePAwWiRywkkjLicoXFBRQVFTErDmzOHjwAGtWr6GhoYGsrGwmTZrIqFGjSE/PIBKJOF3Kz9uKYnD8HAXk5ubS1HSE9rYWbr3tVv7tW99i5szZpKVn8Pjjv+emm29l8+YtPPPsM0ytn0E4NRXLtjFjEVatWsN1N9xITe1EbBv+6uv/g+YzJ9mzexd+nw+fz3dBuEJxx0PXdQLBIC2trTQ1NbFy5ducOdPC0CFlzJlzLcPLhhMMhRz5XFsSiznKb07J7+DHxcO58BwQDx48fGAgNM1NgTs/trQBm1AwgCYVK1Yu52c/+QGFhXlUjhxO04F9vPHqK5imxkfvf4C6ujr8hkEkGkMI3wWt9vbgwYOHSw1bSqRUGLpB5ahKqiqr6ejoYEfjDt5a/hbLli5j6JBSZsyaTUFBAYZhEI32OE0O6VdjNQj4DIPGxkaWvfln/urrf0NBQQn5hSW8vPglHnr4q/j8z/Lyy69yx+13cOzYcb7//e/zne/8O/kFeVxz/Y3csuAOMjLSicZMNF2ju6eTJUtepLOjjZsW3ITP7yNqq79InUxoGsGgH8uyOHnyJMvffJNde/eSkfn/s3fm8XEcZd7/VnX3zGhG933fPmLLTmzHcRLbuYCFXEASkhAgQDbssuzLhvtYYHdh913YZTn2AJZrCcfLFQhhcxFCIHYuJ04c37YsX7IkW7buw5Jmprur3j+6ZzSS5cR2DstOf/OxIs3R09NVXVVPPc/ze/JZ2NLCDTecR2FhEShwHDctN51JuvhgYHucMoEBEhAQcFagNUi/AoinsyOwLBPLCrNvz25+dOedbH5+A9dccw033vRWvv3tbxLLzuHzX/hXfvHzX/KVf/kiCxfN592330ZD43wcR09RAgoICAg4E9G+ElnKK5IVzWLFihVccMEFdHZ08Pzzz3PnnT8gPy+fc89dzJKlS8mOZaNQJBNJv66LOGajf3LxPVl/yXVtSkuL+fw//RO1dfXEkzbv/+sPMj4+jqPhjg9/lHg8jqPhqmvezHnLluMoqK1rpKFxDsoVuNqTgnYdh8KiYt592/swpPA8EI6LFpKU4ML0OoPpiFz8IoT+eQsElmVhmAajo6Osf/YZtm3bRvfBg7QsauFdt95KXX0dIHBdl0QijsBLqvdU4VIGx/SL8DI10muQwAAJCAg4q0hJ6hqG5PCRbr733W+xY/sOamvr+MI/fZFzFy9GqQTj4zbJpKa0tIIP/PXfsPqyVfzkJz/gEx/9GDfd9C5uuuU92I77op8XEBAQcCahtU7v6tfU1FBbW8v4+ATbtm1l8+ZNPLpmDY2N9Zx//vk0NDSQFY1gJx2v+F+KGRbeGo1Wmlh2Njk5OSilcVyX7JxcsnNzcRyXrFiMaCwbVyuEaVFTW4dWDkp5NWY8ieZJaSulQCkXJ6XgJqRve2QoHmbW1MgwEKQUmKaJZRpMTEzQunMnmzZvZM+ePVRWVbJ06TLm3fIOcnK8qve27Uw7FjMeN+DlITBAAgICzkq09nJCYllhbrvtNpYvX0EsFiORTJCIH6WpqZGCgiIGh/pxXUV9UyOf+vRn+NMfHsEKZUPmZBsQEBBwFuK4LgKvmOQFyy9g6bIl9Pb28tyz6/n9w79DKcW8efNZsmQZpaUlCCFxbM9g0Gi/fsVUtNa4OsOI0GoyVUJrVOodWvtV5ycL9M2M733Rk5LNx1Ob0mikMLAsE42m58gRNm98nra2NkxDUlFZyW23vZeS0lJMy8J1XZLJZNpzHvDqERggAQEBZyVKKYqKivnQRz7Gc88+yz/94+e9uGbtglBo1wUh+d3vHkJKA8MyKS8t4UN3fBgjlI3jqiDAN+D4+HJBQZ7QmYuYErDz2kUDCLBdr3hlaWkZ11xzLUfHjnLgwAFaW3dy1y9/TnZ2NgsWLGDhwhaisWwEwvMSv4Bk4LHmiZj2q5g8h5lek/nYCzWVANMwEUIQn5jgueeeY+fOHfT391NUWMiqSy6luamJaDSKq7zijIlEAim8rPvgHj5VTv3KnaQB8iIdICAgIOA0kZrGMpcUrquIZsXoPnSYo8MD3PT2d2Kapl+UUPoyigrTNNm6ZRNPPf444wmb/OwQjhtMSQEzo/1+ZlohLCEB4dftCybIMwXTMBHSwNVeYb/JLIbXOsILh9KQlZXNgvktzJ0zn9HRIbZv38aGDRt4/PEnaG6aw+LzzqW2tg7DMNNV2tN65j7HXk+NeMHcOp161fFvJ1/BSvj/TNPEcRw6Og6wZ88edmzfARoWL17EVVdfTX5+IUJ6BQLjtoMhvVlCpCW/Xot1yF8CGZOs1qdugpykAeJP7mlrMZAfCwgImCWI1Lw0dUxSyismWJifz6WXXEI4EktXq01twEWywri2zdpHHkGp1EgXTEcBM2OFQuzas59v//e3SbouaBHMhGcYUkp6e3spLMj3Q3ukl2x8uk9sFqGVxsVLQM/PL+SSSy7jwgtXcvDQQTY8t4Hf/va3GNJkxYoLWNiykLzcHGzHxrHtad5jMfU3PT289VhP1PHaYrJKucQKWQwND7Jn926eePwJEFBVVcXVV11FXV094XCIpO3lrmiVmUSeMl6MjPOcKQgruKuPT8a1OaY9T4yTMkC86pDGy6LBHBAQEPByoTVIaRAOZyGlhVIaYXiTidIaKSWRaBbCd9N7GvDeoKnxlFQM0yKvsIRwKHSstEpAgI+rFIVFpbzvr+5gZHTY61+G6XtAAmYrMyURCwGVlZU4rntMNfbXPGLqL0ppXNdFSoO6ugYaG5oYGR2mbdcuNm7ayHMbnqO5qZG58+ZSXV1NKBzCTtq+nK9i6prxFNaPGqQhsSwLx3G80LCd22ndtR3XUaxcuZoFCxaSl5ePUgrXdZmIxzO8HP4n+xvoQVL5y4MQAtOyTum9J2WApBtM4QkVBEZIQEDArMA3MiIRDENOSibiJSsahsnw8DB33/0bDMNAM6lxrwFDWnR1dpKTl3vavkHAmYNhmMyZM8f3uvnVkAPOOFKqTd6GxOk+m1mOmMx3ch0HR2ui0ShLli7lvCVL6O/ro7V1J3985BGUUlRXV3H++cupKC9HodMV15VSSIwX/TilvQR3T8nKwjAkR3p62Pj88xzp6cGxHZqbm7jxbbdQXl6BlCaO46YLBaakdwNeYbQ+ZWPupAwQ5SqUUhgv3ncCAgICXkU87fbx8XEvsVAaCCQahZSSZGKCgx3tdFTWYrupHTn/nUIgDZOew4c4cuggjuN4G2bBdmjAcVBKoYS/KacBEcg1n9EE69QTI3Wd/CrgKkMpsKi4mNWrV3Hxyoto3dnKpk0b+fGPf0J+QT4XXHABc+fMITsnh2QygbL1cVWsvMMLQpaFaVkMDw3R0bGbxx9/jKGhYSorKzjv3HOZM28elhny6pu4Ckc5qVObktwe8EojcB3nlN55CipYetrvQSMHBAScflK7XVr78pACNBJXQUV1PW952y1cfe31ZGXFfBd86n1gWSbbt27m8bWPYlqhF5wcAwImw8ZfWkXmgIAzl+m5dp6krhCShQtbWNiyiOGhYbZt38q6J5/i8ccep6KinOXLL6CyvJJIJEI8HgcmRbSEEITDYZK2zcGuTp5++hm6urrQWrNgwTkseesSiouKvbBZ18W17cxqIP5P5YdDZnglZ/JQHnPbBv6SkyK1/H8JF01o9QIzbeYzEnr6RtmyuxvDCmeYmUGTBQQEnF4MIRns7+a//uvLNNTX8453vQ/TjOIqf0ISwlPr0DqdqJ5yG6dHMe0VwjJME6U1QRH0gOMyWeIgICBgCpPhr4YhkWgcR9HR0cHmzZvp6DhALJbN/PnzaWlpobCwkJTy1ujoKNu2bWXv3n0cPnyY2tpaFi1eRG1tLVmRLM/bkeF1mXmjaDK8Fv9MtK9Ul35EEGwcvASEf92VAOHaFMUkixfWe0+exN5dUAckICDgNYGQIjPyKj15ae8PBCANE5VKQA/mp4DjEYToBQQch8m6Ho7rIpRGSkFDQz2NDY2MjI6wefMW9uzZzYYNG2hqaqShoYm9e/fR2tpKWVkZCxcu5NprryUW8xQLXdf1Q2NPZFDOVLXyH5n+vsD4mBUEBkhAQMDZTUo23E809YvxHvMa7yU64+9ghRnwAgRrmICAF0EihPKTz12EUMRiMVatWsmFF15Af/8Av3vwQe6661esXLmKW255O2Vl5YRCobSSlX6BJOcXNkgyapEEOSGzkkC6IyAg4CzhpU0wGtCp4lYvzwkFBAQEBPikQqg8b4ZBZWUV5553LsUlRSxbtpTa2lqEENi2jesGwg5nO4EHJCAg4KxASDGDd0MzJe7Ke+H0kldT/gpyPwICAgJeHmbO0/By8lxXYdsTKHcC102glAtCoxEz19U5kdCpGd6n1Qw1YILt91PG80pBOtzuFIMFAgMkICDgLMCrA2IahicJqFMSHTONjNOUi9Kv9Z4LAq8CAgICXkkyBYxcwEEIF/DFP44zCB93c0jrKboQgQ/7zCAwQAICAs4KhBAYpukrXZ2EGeFJYL1SpxUQEBAQMCO+ISI0L2kMFgLhKxwGnDkETqiAgICzBC/Z/CVOZQEBAQEBZwqevvrUvwPOCAIPSEBAwNlDMPcEBAQEnNVk1gE9ZswPoq/OGAIDJCAg4CzBU1iRgYpVQEBAwKxECIHOyNTw1NHFpCGhtZ8hLtBqqoUhlJ6UVU9JqqPTL0mP+8EEcEYQGCABAQFnDVr7ildBoamAgICAWUmm7MfML9AIYRDJCnkGi68bIoROS4toPXPAbTLpBBK+ZwiBARIQEHDWIMTxKg0GBAQEBJwJSEMyMT7G73//AMNDQxiGt1QVWmEYEtMwSTo2jm1jCDzrRIOjFCsuvIjGxmacwAiZ9QQGSEBAwBlMhntegDQNVFqS8Xjp6DPr0gcEBAQEzAYEtpNkV1srB7u6sEwLoTWWAQjY1bqTrKwoDY3N2LaN0hoFuLbL3PkLEIaEwACZ9QQGSEBAwGnmJL0Vvv/eq1guUFohpMS0TK+4lVJeBJZIvVScyqcEBAQEBLzCzLT1o5QiJyeHv3z/+3FdFwNJJGQyPNTPPXf/mvZ9bbzjlptZfN4yCouL0UKQSNooLYiEsnBs54U/U7xAsZGAV43AAAkICDjNnMhE4E9TWgEaKSTSkEghcV2BFDAxMYHratASBUhTYhkmWrm4bkY1dJ1xvNQDgQMkICAgYJag0VqRFbYwjCwsQ7Jndys/+dGPGOzvx5LQ1dnOo2sfo6lpDm++/nqqqmtIJhxsx/U2pYJBfdYTGCABAQGzGy28QlNCYpgmpglKOwz0D9DX109nZyc7tu9gfGyE8opqbNvhhz/8MeXllTQ1zaGwsJjS0hIi4QiuUriumlasMNgNCwgICJg1aLCkxLIM+vt7+MPvH+S+++5l3ty5fPCOD/GfX/tnDFNy0403cdcvf8kXPvdZ3nTVVVx+xRvIzsnDcZwgDfAMIDBAAl6bzFA1NZ3AHHD68BtFCImQAkNKDDOMbScZHR1hoL+PjZs2MDjYy9GjcbTSlJaVsnr1KoqLiigsLCRhJxkeGmb//nbWr1/P+HiccDhEXl4+TU2NNDc3Eo3GiEajKOVg2woQfj2rwBsSEBAQ8EpwouKEUkoGhvr54+9/x6N/+gODQwPcfPNNvOXN1yFkBMdxMc0Iqy99HXMXLOR399/H3Xf9kkcfeYTbbv9LWs5diuMEOSCzncAACQgIeOXJdDak/p42GRnSwLTMdG5HPBFn+/btdHW003Wom8OHDhHNjtHQ0MiS85ZTWVVFaWmJp5CiNUpplIJQOEZeXgF19Q1cfsUVHB0dp6uri/7+frbv3M4fH32YkGlSW11BRVU18+cvoLSs2j+GwnW9kC2d6RV5Ud3IgICAgIAXRqCRL/oqKSX9A0P8cc1aLrhwNddffz21dVUoR5FIximvqKG4pARpGRSVlXHb+/6SSy65hO9859u0tu5i0blLgyH7DEBo9QKOqsxnJPT0jbJldzeGFSad5fkqN7HILH2ZPr8ZvkKq2E1QDyBgBjUkPb3ba+F7QIL+8oqhvR9enSmBFALDNLFMC9dVDA310919iO7Dh9mycSPxsTFyigopLyqiqrae+ecsIBqLIqVEK+2HUXm5HZ5OvEh9BOn2Fnj5ItJAGhK0Jp4Yp7PjAPt2t3Gkt5fuQ4eQCKrqGmlpaaGsrIzS0lKsUAitFbbtoFzlfdaUSlepvJRpfUYEvv+AgIAAAKEyPBFCoIX00+4ElmHwzDNr+MUvf8wtb7+V5ResxnZdEAYCjasUbTu28MSaPxG3kyjlye6ODA1hhUNEozG0BmlYNDc1c+nlb8AKx5CGiVbKTzYHNW2d6s31wTh9yvhCL0oIhGtTGJWc21LvPXcSl/WM84BIKbEMw/vD71xC6IzdysmFgT4NBlLAiaO1JmknX+lPIVV3NfPOmLK77ZdUnb6ODHj5kEIgDIkhJZZlkUgkGRoaZGBwkB07dtDV2clEPI4hBCUlxVzx+tdTXlFBbm4u4VAI11U4jovruLi4CJHaRZtstKk2Zco4wJNoVA74wiiGNGlqambu/AVo12FkZJShoSFaW1t5et1TjI4dxTJNioqKmDN3LvUNdeRm55AVjSEQ2I7tG7AiiDN+DSJm0SbFMRspAcdlpnYLrt/sxN9KIjsnhy0bN/CHh+7lTddeh1IWAk0sFvM2hLTGlBZ79rTT3dnFqkuuIMsK4TrurLpPA2bmjDJApBT09/eze1cryWQiXXwGyLBmRYbh8eKuvoDTgUYISUFBAYsWteAq9eJvOUWEX0HVkBKt3QwzNWW8phauAmlIXKVRwZz0kkgN+8I3NgCSiSQTY2O0t7ezd+9eRo8epbenD6VdmhrruejiCykpKaO4qBTTlAihPDldIGnbaOUL6oqXfk97Ur2gEkk0EI1lE8vOprqmBqFhaGSIniOH6R/oZ8uWjTz15GNkZWVRUFhCcXEJ55xzDoWFRYQsgWlaKKVxHHdaYnvA2YjAM6ZfyTHrpAi62wmjMyMnBJiGgeu6wSWclQg0XkisY9tUVVbwgb/5EK4WKH9e0GikNohYUe679x7WrnkYECjt+uvBwACZ7Zw5BojWmKbF+meeZnfbTmrraiYn/Cmymn6MoR8ipoNOOPvQYDs2a//4B1paWia3rl+BHQshBGjFL37+/zh4sMv/WyOkl2cgpYFG4yooKirlbTfeRFY0OnsWGLMVPfUPIbxraZiG53VQisHBATo7O+nt7aO1dSe2nSQ7O5eyslKam5p43RVXkJefTzhkIQ2J1tLzcLguCDXtY15Ob2ZqbPDPfprhkJubS25eLnO05vzzl6FcxYGODjo7D9LdfYgdO3ZgJ5OUlpbS2NRAaWkJlRU1xLKjuI6X0O7lo6hgDjyLEMJb/Dz4wAN0Hzp0uk8n4BTxNgxs8vLyeNe7bvXu02k+8YDZwaQwjIsUBlqYICZXdVqBC7h++3mjb6o1g8F3tnOKBsjpa9j4xATLli3n8isuI2k7gELr6WFX3g53YHzMTgSCsbExvte+2x/8X9lPc12bZx5fw/yWFhYuXIBt256sq5/3IaRB96Fu1j66hquvuYZoLPYKn9NsJ9Umk96GtFCt1r5r21OpsiwvtyIRj9PX18vQ0BC7d++mvf0Atp0kFApTVlbKqlWrqK6uJhLJIisr4i/mvIW/0qBsfxrJzN84TaiUC0xrhLCwQpLm5rnMaZ6H67qMjY0xPDzM/v372bt3L+vXr8d1XYqLimlobKa6qpqCwkLy8/MxDAPHcbydVp2xyNEaKYICiWcWmmQyzvZtW3jrW2/AMAxOe+sFYSYnRWpZmpiIc/9vfjG5SRDchLMUgRSS8XiSHdu34ioTrTTCj3hRGizLoLu7k8lw62Dld6ZwCgaI5HQknwMILZAYmIaFVpLMsWNql0vtbgajyqxEgBT+L8Lb7Nav4ESqtbeknpgYY2ho0Nth1zpdX8IwDIaGBtPekrN3L+zYZPzpCCajGbUv+KDxZHFNwwup0hrG43GODh+lo+MAu3fvZnh4mIGBAaLRGI1NjVx2+WUUFRZRWFRIyAqh/HhdpRVKqcmk8VQ7IBBicmLRxyTkvLz9Q59AnJ32S6lrpbxroDUCQU4sl7ycPOrq6gHF8Mgwg4OD9PX1sbttL88+9yyWaZKdk01ZaTnzF5xDeWk5WVkRLCuEcj0lF6UUUgZhorMaDRI/x1BIQBEKGTQ2N2JZoemJRwGzFCG0P6ZIhAQ7HueRSCQj3HZSni9YvL7aZObxCbT2k9T9sVEais7ODv7n+98naauU4oj/ekU4bHGk5whF+bn+/HHs+jSwMWcnZ44HJKVm4Fe41Dol5za5kAyY/aQ3uKfX4Dj2oZcN4a+qk8kEw8NDOI7jq155C2tpGMQTcaTpGSDos1V19USvsEQIgWGAlJ7wg9bQ29vH/v172L+/nY7OTo6OHqWwuIw5c+bS3DyHuvo68vPykdIPcdJeHofjOr6hcZzaK5N/kLrqYtLl8iqt8aa3tk5frukfr5TyvCSOZ5hEs6JkZ2dTV1fP0qXnYzsOPT09HOo+SFdHF7+9+27iE+NUVVVRV11NRU0NTc3NRKJh3xjTuK5/zLOw153JTGkNoRFCgfbCBKVwCZY1ZwYpA0SjEEqgXOWPR3rqGBQsVU8DM495QgtwNdFYPsvOX84nPvkptDCnisVojWUaPLVuHZs3bkTKEN4m+dTIiqBFZydnTg6Ijwgm6IATxQ958XbfFbW1dSxdugTHcTPUVL0e1dnZxb62Nj90z9v9F/7zZz1aYxheKJUhDCwzRCIRp6enm76+XjY9/zwd+/cQyc4jFo1SWlrKlVddSUNDI+FwDMMw/QW0g1Ku55lMKdSlPsL/Sxy7OXV8RMZ7Xm1mUvb2/+mMMDSd+k8pHKXTnp2qqipqampYsVzjOjbDQ4Psbmujc/9edrS2cv9v7iKSncvCxYupr2+gqKiYgoICBBLbSfpFtHyVrYwdv4DTTabaYsCZhCDD057aBJsiq516ImA24ArNuB3nTddeyxve8DpieSWo6QFW2jM3Lr3k9Vy4YiWRSDauGyhgnSmccQZIQMDJYBgGAhMpYO3aNWzbthXXURn1I7xY/Il4HMdJYlompmV6YVpnqR8EfDUfQ6bDSMbGxhgbH2fv7j3sat3JyMgoY2Nj5Obm0NzczPIVF1JaWk5OTg6hkIXtuDiuwnUdXNdJH/UFB/4TvpTHWwS8mm1xrOEz1XZKm1SQKcbn15Lxihm66eT2vPxCVly8kgtXXkJ8YtwL2ervY8vmzWzfsp2kY5OdE6Ompoa5c+dQWlJGLDsby/Sq/rquM5mbcnZ2yYCAV5hUmnIQ9ngmoBEorTBCWYSsLGzXe3T6+Ke1JhwOEYmEUUoHGjFaVgAAIABJREFUm9RnEKdggJzOxk3V+9DpDYzUGWXWlDkmrDPgNYnWmiNHDmMnx3nTVVdTVFhAbkE+ynURUiKFxHG8kKuJ8Qm6uw8zONDP6NgEpWVlCCnPoP2wVLzQpBGQuluEv5g2zQhCaJRycRybI4eP0NbWRnf3YQYG+hkeHqaqqoo5zU3kFxRQWVlDXl6edyztJfdJaZBMOrgqFS2tfcUqMZnXk0IIX7I0ZczJjHPNvHunx1175+3VDjFwbWdGD0DqXYYhsAwTlMJxXdyMZO9j3uUlc2Q8K7BME9d10kn2KVE90zRxlUKnhBJS8YO+CssLSe6mAjlS/3e1QLsaKV2kaVFaVkFZaTkLFyzGtpP09vXQ03OY7u5D3Hff/WjtUlpaTllpJZWVVdTX1xOJRJCGgQYcx5k8r4zrN3138JiTCgh4zaIn/y/U1Js0YFaRyuEVaLQCpby5I7PygveAZ1T6Eb6pBwka9czg5AwQIfz47tOI0GjhLQIQAqUExjTlnFTozJmzeAx4uZFSMjo2xl133UX7/jailsYyBBOJBCiFqxWJZJJoNButJFJ4xS3/9OhaYrkFfPQTnyI7NxfOQDlerTVCSgzDRAqBlJKJiQkOHNhDT18vB/bvp6ujHdM0KSuvID8/n2XLllJRUUEkK8tLNE/lJiiH1EwtDejp7ycrEiMciaRHfOEbFpkLciFgYKAfx3UoKSnKUKpTqSA3b5oQMD1eN3XMkdFR4hMTlJaW+mFdZBhXAheJNAXJxDi7W3eQTCRpaKwnO7+IhO0i9FR5CqE9eQqNQiEQwkArzaGuTkrKyjBNM60xj4Cug13EYtnk5uQiBIRMA61cf7LTuK53rBm25DL+UN7nSsn42FG0dsiOeUaw91IvEb2qsprq6mrsZJLLL3sdR4+Osm/fPg4fPsJTTz7Bww8/RG5uLvUNDVRWVlJaVkZhQSFCCBzHzkiUz8izmnJewWj4spDOSwqu55mEN/74q1ThgHaZadwJOA1k7ln5IVVKeuo03igPQri+88OYOs/oyfkn4HRxrFfqRDkpA8QwvF3jQGM5YLajlCIWjXHdddcRnzjKke5ONjz7DDddeQ2RSIgtG5/l9w89yA1vexvFRaV+zrHAcTWGFSYrKzK5GD0DEBhIKbFMA4TLyMgoR0dG6ejsYseObYyOjuI4Nrk5OdTU1nHBBTeTk5NDfn4uIcuaEi5k23Z6EZ260w3DZHCwj29+8xu845ZbaW6eg+OHXgkh0opWGk/lyjItnlz7CF2HDvHXf/MRX27ZIW0QCHFcV7nSinA4xJNPPMGG557j05/5DKZhkgrxSp2nlJKJsTF+/IPvoewk2nUZ6Ovmk3/3z4SiMbS/yM9EI9BKohEIQzA+NsJ3vvlV3vsXH6ShsckLyZMS23H4jy9/iSveeDVvve46Eok49993H12dnUjD4MILV9DS0oKjXC/H6JjPyWwcgSENtm/bzgMP3svnPvt5rFBosv6Axgtjc72R1bIsCguLKCgsQmtNIpFgfGyMnp4j7NrVSvu+3STtJCErTF1dLQ0NzeTm51NYUIAVCuO6LnbSa5tgnRwQkMIXrQmM8VlO5rzgrTcnN6uCteesQ4OUxim99cQNEO3F0xuGgXOMRGZAwOxDo6msrCQcMtm+ZRMHu7qZv/BcwuEIgwP9jIyO8uijjxIyw6AFtutSWFjMdTfejBUKYTuzNJlNe4NwKnEcwE449A/1s2XLJvr6ehno72dsdJSSkhIamxopKS6lvLyc3NwckAKF9AwGpUgmE+D7JTKT89Mfh8Y0DTZu3IhyXaqqqtBaYfrjgRAS1/XCuryAL++xRPwouEkiloUywHESaaWnUMhCSgNXg20n0EohpMA0TBw//8ZxkoyNjWFIA9O0fK+D74FAIREc6upi3aNr+MZ/fwspTD7wF2+n98hhahrmoJhqgEgpkVIgpMTVeInzKMbHRrEdG+Un41uWhRCa+PgIQtlYhuZ/fvRDuru7ufrqa7Btmz179lJfX09Obg7CkGilsB0X5WqkIX2jzfCNGRutFY2NjfT39dPV2cncefNJJBPp5lQqdc11WgQhleyelZVFLBajtKyExYtaSCYT9Pb20NNzhEMHu3nooYeYiMcpyM+nsrKKmrpaamtqiUazsCxPactVblp8wVM1O3vFpgMCAs5OzpwtwbMffxmCkJLYKdZOOykPiKdZn4r8DjpCwEtjeu7Oy472FoMD/f08dP/9FJUUI5FYpuk9J01qqmvIzs5FKY3tOBTkFxEKhXBdJ2MN/kr19WMymWZYFHqfLYXAlCANA2mYOI5L+/69dHV0cfDQIfbv3YthWVRWVVFRXsaFKy6ioqIcKSSG4dXucV0XRylQGi38oTytNuv/FMcmkiulcZXL2kcfpba2jtycHBzHZWJ8nJ07tqNchwUtLUSzc/0ij/hF2iSGlLTu3MrR0VHmn9NCOBzCMEz27dlNX08PuQVFzJ03D2EYjI+NsXnHBrIiMc5beh6GFEhDsH/fXkaHh2lsnkNhYRGJpO2drVJkx7KxssJs2vg8Xe37yc0rp6SoBINU2AUgtB+KBju2bmF8bJSSymoam+YwdtRECBOBIByK0H2wi/b23eTl56c9Stu2bOaptX/iC1/8F6qqqrFtm0WLWrAsk+HhIXbu2I5pSurqmigtK6e/fwC0Ynh0hN7uQzQ2N1NSWk5JaQmVZeVseHY98+afg1YpIyOzrTOKP4rU9cf3lig/n8ekrLyS0rJKFi8+H0e5jAyP0L5/Hz29fTy29nGGhgaIRWPMmzeXyupq6usaKCws9CWEFY7jpOuxBEN5wAmTOUClFWtnkLCetX0qrWUHpOoOzdqTDQiYlaTvGA1aeZuRp8ILGyDT5LFDYRPLErgJnZEMNBtu3uluVTHt/yf6vpfCicQhnujnvVzHOrFkLOlLfc50tMzgEk/h54XO4UQ+L/M1KdlSPYMl8tITyQzTRAj41V13YZgWdsLmC5/7HLe//y9xXZf8ggLe/Ja3UFlRhasUaAHSJO44TCRspBB+wboXu86nEoM6/biTqkqpPCvDML1/UnJ0bJyevj72t+9nx5ZN9PcNIMNZFOfnUl3fyOpLVlFQUEBWVgzwwpRcv+ifl8ai/SQKw9ud98OG1AnkdElp4Dgu8fEEc+bOBQQD/b18+5vforqylP7+Xu7731/zic9+gUgkkv4epjRYv+4J8gpK2L97F2vXPsbHPv4x1q17iufWr6ekqIhHvvc9rnvb27jkkkv5xjf/k6L8XCbGE4Qsg5zsGO27t/PoIw+SjDvc/evf8Lef+yxZ0Riuq9CuS01lBRdeuIIv/O3HeNPV1/LPX/oS2bEsxsaOEopE/GR2ievY/L+f/pj+vl5qqsr51W9+zZVXvZnlKy5KK6Ed7Orky1/+EnPqq3CUS/ve3UQiWWza8ByGKSgqKmJiwisgaBiSifExfnv3r7EMSWfnAY7GHT772b9nw3Pr+cWP72TZiosRKsmv7voFH/nEZ6ira6C0rILW7dv97SOZUXiR43SzqfeXTiWo+IpYSmu00uTm5rHs/AsQUuLYNhMTE7S3t7Nz2xb27NnL78YeJBoKUdvUzDnnnENxcQn5eXlEwmGStj1ZqV256Gkje2YY10wOQT3DIlSnXpxxkGOLS86MmI0h3Z7bza9nQzq/6Oxn2vguNEJNfSwVSpkScZj6nIfKMEpSRUDFac0nzWy/yU2AILfn5UeLlLi9N8VmDhcZsgAZXcdfF/j9R0xaut6cPP34xxSXyux5xwvaCtr5peEP0lrjOE46EuNkL+sJGyAasExByJQkkq7XkfQxL5slnI5djVf7M0+kpU/wnHRGUuW0FcakqXCi53Si1yAjkWzG47+06ymEwHUcfv7LX/KHPzzCJz/+cWqqq/jv//4On/7Ep8jODtHTd4Rvfes7RKNR3/iQKCGYSCS57rrraW6ag8OxeQQzf5eX0vbaV6mSmIaXCJ1IxOnrO8LO7a20t+9ncGgYO+mQX1DAkiXLKCstI7+ggPz8PLTWfpiPxradyaOK47df2oOZ+aLjIKQgMeGFC2Vn5yINyeOPP4rjTPCe225jYmKMj3/8Y2zevImVK1f7krEK205S19DEO9/5Hg60t/Mf//5lOjs6WdSyiAULFpCbX0jf4CDr1z3JkiXnsX3zRt5563t4w59diZDQtruN8rJS3nXru3GUwXve9S7adrWybPkKXDeJZZr84aH72bRhPXMXziOeTFBVXcGPfvxTbFfwzne/x1PgEpLdu1p5dt0TfOkrX6OypprCu+9mzZo/0dLSgkBjGpq1jz5MVVkZH/jghzh85DBPP/EYyvW8BNFoDlprlABhSJTQCMvghhvfRk5OHrvbWvn0xz7K3n37Ma0QOdlRbn33reTk5vLpT36SPz7yCLff/n5KS8ro2LsH27G9TZyTHLAnx1xvwPcitwy0hmTSEwwQAiKRLM45ZyELWxbjOEkG+voYGhpi95493H/f/TiuQ25ODsVFhZy7eDFlFeVEwhGi0ShKudh2ykOSMpAyPXUzGSLHjhsn/tVm2EGfhYjMjf1ZcIqGXylaue7khqD2cjWFNHBsGwGome7vmYzBaQ8ZhoEUmqRtE/Llul3HRkiBZZl+H8lYBOjM/imwLAvXcdNevql9Xftjz2m6kCJlgKTG7lnQoGcrYuaImWPnpOO8Ga+5UlPVsfsd04wNEbTmK45vIGqhsEyDcOjUKnoc/10zNKIEssImo2M2YHg74q+Flk4VAjvOIj1FKhlXzaCc5MWDCxw7icqovmqapq9k47xsuy+GYUxZPKTOTfoJvK5Sk2E2OrX7MCl9OvU7gSG9403/VlIKTNPCcRy/boYXRGRaFgL/O83UQVJr3pTj4xWw24QQDA8Ps2/vXm59z20sWXY+Uhr87Wf/jtbWnXR0tDMyOkQyaad34jQSF01hUYji4pIZk4tfMv73lUJimgZCgtaKiYlx9u/fTfehg/T29NC+/wBaQ21tHY0N9VRUVlNd10goFMaQArSLqxSJRJK0d4OpE/o0B+bU0ziJ3JbJbi+QhkRrRV/vEQ7sb+Nb3/ovXEdRkFdIJBLxXiOlX5DQpbSk1OsPQuI4NmNjoyit+OZ/fp3ymgY2PPMUDbW1FBeWcPvtf8l9997DY4/+iTs++lEcJ0lOTg7RaJSRkQmkFL56lEAKSTKR5E8PP8yfXXUVb7jyKv7l7z7JP/zdpxkeiXPVm6/z7jdXY5qS7u4uaqpKicVijB0do7KiDDsxwcTEOJ6Mo2JwsI+y0nIkBkWFRRQWFiHQhMMRRob6UFohpIWQAsOUOEnFfffdx549e5EoRof7vQUagtLySnJzczAtk/yCfLq7D3l5M374n9dk4gTu+Zk3BFK3lR+gN0N7abR2cRwHIQRFxSUUFRczd948tIaBgT66D3bR3X2Ix594jMNHDpMdy6GhoZHS0lJqa2spLS3FMAw/98ZJj2up8z4VA+qYbzcbc6xmOQIQUtLf24tlmRQUFKCUm845GhgY4OjYGDXV1elcItv1+oFpeuGGWs8UMjHZmK5y6Tl8kInxMRqa59K6cyexaJj6mhq0hr272yguLiE7Ow/HVRjSRBpehxDCky/ft2cflZWVxLKjOK7yNy29HdMpH3nausBrYfHyGkDM+GvAK0VG3K4ATMPAMk/typ+02ZKTHaN3cOLsv3X9hFTTNAAvcTWlu6+UwnacScME/JoSLiMjw+Tl5U1OrP7Cv6+3l6GhISoqy8nLy/NkYkdHaW8/gGUZlFdUYr6EuhPC/ywhBH19feTn52MaJq6/Q6WVpn9wgKxoFrm5uemFotYa7aopRsSUy6A0A0P95OTmIeSkm00IGBocor+/j9zcPMrKSjFNk6Tt0NHRgWPblJdXkBXNmvG4rzRKKfLz8/nQRz5CdjQGUuK4LqFwiHOXLGHxkiWT33FK0IlOL+BSKkXH58TCxLywKuktPv3jjY6McrC7i97ew+ze1crw6AiGYVBU6CUSX3jRSgryi4hEsjyviBa42tvtVK5CTnavVyUfyzRN7KTN6PAIhjAoKiijvLyW993+PgwzTE/fAHmFxQwPDzM4OEh9Xa2fnD5Zr0IrhVIuv/31TykpKeLDH/4I//rPRxkd8gzB5RdcyMpVK/nMpz7K2kcfJpyVi9ceGiFF+mqn9j0MQyINT2K4oqKcT/zt53jfu2/GDGXR1PgxP5THa8/cvAJ2793HyPAwlTU1tO7ahWEYRCJhQGMYkmhWlM6uDqRh0n+4n56ew9hOkvOXr+Du3/yKzRs3ctHFnoenr7eX3sOHWPPw/fzDF7/GcH8vzzz+J7T2CjweOdTF0dFRYtk5DAz0s3r15WitGRkdRQjvNcp5pWRAUx7NyWKK2otp8EINgYLCQkqKimhpaSGRjBOfiNPZ2cmBA51s3bqVtWvXkpWVRUlJMY2NTVRWVlJSUkwsFkNrheO4aK28ULiUHPMxlRszPt974NhTfTmsmNcgEs3atWvYvbuNj374wyTtJD09R1Cuy7p1T/PUunXc/ud/TmFREZGsLKqqq7CTSboOHWR8Ig7az9EyBK6b4Q3QmnAkQmNTE/97913EExN86jNf4KEHHyBswic/8VGGho7yP9/9Fh+84yOUlpYxNjZOb283AwMD6dCXeDzO/3z/B1xz7dU0NDRhKxeE5xWpqanByBgLZxtCe2LdwWo2IOBYMvcMtNKYYQsrZJ3S7XzSBkg4ZIJWaLwdlFnvvMyIKzye52ImpJR0d3fzxBOPE48nEVojDInrKs477zwWL16cUQHa8zrs2bOHn/3sZ9xxxx0UFhZ6sXFC4LqKb3zjG8RiMW778/dyYH87R3p6WL78fNate4qn1z3Npz/9Kaqrq3FddcoDn2EYjI+N882vf5Vbbn0P8+bPxwvvkSSTSb79rW9w/vIVCENypOcI2lVesTchqK2tZdXKVVMaU0rJ8OgwX//a13nPe99L85w5OL67XwjBb397D21tbdx889uxLJOHH3qIq655Mzu2b+f+++7j7W+/hUsuvRTXmayUfWwOCVMWMNIwfI/QzEbLyQRrCCHIyc32Fu1KIaSXF4ErQHgTcMr74zFZ08FbsM109Mkg1ikOscxdGP+aGoaBIQ0SiThHjx6lt7eXvXv30tXVyfjEGK7rUFRUQGPzHBoaGsnNzSc3LycdI621QGlB3PEWB1JPaoC8mmogWmsvt0Nr2tsPIKTBiosu5pn1T/GjH91Jbm4O0ohw5bXX89STj/O/9/ya//zGd7CssH+dBYZpYlghXFfT1NzC2sfW8uMf/5COjgPUVlczMDDI/Q/cR1bEQgmLlsXLaGtrwzQs/1pr7ximlT4nwzC4+i3Xcd/9d/NfX/sK2nW5aPUbsF3Fr+/+Fe9417spKinDdWwWLmxh0bnLufOHPyK/qJAjh7q44YYbCEciCCOM1iaXXPJ6vvzlL/Ef//EVpDRQ2kQpl6amJt75zlu5957fsn3LdpTWFBTkcdHFF1JWWc+DDzxAf28PphX1+rDSDA708b3vfBdXaZTjsnLlShzXpWP/PrKys7FMk2QyftJtMWlQZD46vbpzZoecvMeEv9jXeBOH7R/DMrOI5McoKCxm8blLSMS9/jo4OMi2bVvZsGEDzz33HEq5FBcX09TU7CmA5eT46ica23ZR6uTqY0jpyRN7+Vd62r14GtHpH1N+zhaU1ggFV1xxBZuf38DaNX9keHCAzZu3cO6SpaBczlvcwt49u3jm6X72tm3n69/4Lvv27uWrX/03FixcRF5eAcq1SSSShCPhtFWvlKCwsIiSkhIOdexmzvxFDA70s+S8Jfzhwd+y/umnWfvYWtradvH73z9MKPyYZ8QmEmzZssUTyRCaRHyC7oN72bx5PUeOdOJob6Mklh2joqIYy4r6aUynN+En1dSpOc0yDG/DTOuMe+zFw1QDjo+YskqcQWhFpH8EnGEopTBNC9M0MvfjT5jjGyDTD+abPVlhg5AhiSsNMqWrPTvwFiWe4o+UBkIKHNsmVbfE2zH1QiCSdtIb+oQ3GRtS+ju23g6hFJLcnHxaWpYwODjAd//z37n+xptoaJ5LWVkZuBpTWp6kp3IRKFzbZuLoGIaQmFambKgmmUhy0003UlVRwebnN9LV1cXrrrict1x7Lds2b0H5EpmpNe+L5Wum4pFNy0R4cTzejr1WjB8dwY7HQWn/XMIoVzM2ehTlusyf20x5WSk//9nPKS8v441vfCOxaBQpSRev86Q7FVpoRkdHUK5NOGxhOMJTOkKTjE9w0QXLufiiC2nb1cb+vbtRbpKrrryKLRs3Yds2iszFkgaUv2B3ELho5SKkV2HbsiQjo8N0dR2ivq4Rwwr7C5LJPnZSu/0ClKNBSD/5LSOOXUMqxf64ix4tZ35OT55H6h4xpEx7y5Ryicfj7O3sZM/uPXR2djA2NobjuDQ2NjBv/nzKysqorKggGo1MJuBpcG01bdEztcr16TD4pfC8DctWrODgoUOMj49RVV3Nxz/9WQ60H0BrRW1tHdFoFssvWEFj0xykIbnsDdeQtJMkXUVhSSkf/tjfUlpWRvPchdQ0NhNPJLjootXEolGKi0p4/RuvpL+3hwtXXkLz3LkUllRy3pLzUZhkxbL5py/+K9XV1SRtGyFBaZeLVq2itr6W3p4eIuEQ8+bPx3ZdOg50kJUVATRaQCQ7h/d/8MPs3ruHZMKm6k3XUFFZRSKR4K/u+CRF5aXEojE++dm/o7enh5KSEq59y/VEs6KMjsV53evfRPPcBQwMDoEQNDc3U5Cfx/+54+McPHiQaDSLm29+FxVV1Ty2di1zFizjymveytGjo9TU1FBUWMrR0aOMjA7yxjddg/NSvB8Z66HJ7pkynkU6sT394gwyn9Fisjc5riKV7iRNi4LCIgoKi5kzZw6u6zI8PER392H6+/rYtm0rj675I1mRLMrKyqiuqaapsZnCokJvJ8zf9FCuX6wxtcHgf5YhIRzxDPO2tj2eB7W8As8OEamN+OlfeRqv4F2QsSBKmXIa4RVJ0yC0AvHqe3UzT09rTXlZGR//+MeRUnPPr+4iZBlUlJd5Cn54Xrb4+Dijw304rjcXRUImN954I3V19Rzs6uAH3/kGH7jjo+QWFqFcjdAaywrTvreNg52HyM0v5Sc/+SFzm+dy+EgPI2MTHDrYzcIF88ktyKOpoYmK8lJKSsq5YPnytNdr7Ogo+/fu44brbmD+wgUkHYUQ0svNcxXK9fvraV13CrSWCAGWNEE77G3dxsFDB1l58cWYZsirwo2YJqBwnJMOwglnZPpVmQz+02itQJsIQqRGCAWpOtOeQA4vvh4KePUQQqAlaOViSJeCvBDmqYlgvYgHZPoYryESsohFs0iMTCCkMatqiUopGR4ewbIsOv1Kz83NcxFCYoYsuru76TrYSX5+Pg2NzQz1D5BMJiktLcF1FYe7uygpLSMUCjM4OIjtuCxatJjR0RFCIZP58+axaOn5OLYNWrFnzx5Gj45QWV1DdWUVAkEoFGZocJCOzgMUFBZRU1tLIu4l8CqlcRyX5eefz7mLF2OYZjpGF9J7797vM8qhTl5tKSRKu7S1tjI+Nk5xaQl19fWeMeLXeIiEw/QPDHDgwE7CkSwsK0QoZDJv3jy0VvzxkUeorq5m2bJlTIyPEw6HadvVxvDQAOVl5VTW1iAkWGGLeCLBluefJ5wVpmnOXM8TgldHwgu3KuPPb38febm5k/kgx0ZkgMhcQmtCIQPLMhgYGmDrlk2sW/ckphXmAx/4EGHLQE2+1J+vZlqKzLwY8WSjT3TJPunZmHLkYwwQb0mi8drTNASGZTDQ309XRwddXV3saG1lZGSYSFYWdfX1LFzYwty5cykqKkLIVI6EQrkutu3Vv0ituGbO4Jh2iqcBreGii1fy1a9+hY7ODqqqqsnJzee8JcWA1zcdV5GfX0BBQSGu65BfUIiUEsd1MAyDmpo6lKeHw/xzFvrH9b6R67rU1NVS11CPUpBIuuQXFCMLinGUQiBpnjPPy21SnvWdSrqvqKymsqoWgcb1PSVNc+ahfBUwtHd8w7JYsGAh3v2hiCcSCCGoqatDa0XStqmqrqGquhZSeVK+IQ5QXddATb1If9/xeJKSklJKS8s8DwNebH4ymcC1bebOn+9VKFfeJsTOHdvo6+lhydKlx/XwnTBi8n9TDfwTDKpP35wzST/jyTVrcB2vJktOTg55efmYpsEll6zCdhw6Og6wb99+dre18cTjj6GUpqqqmnPmz6O8opLqmhpikQi2bWM7DsrVWJaB1klaW3fwzNNPs2vXLq6/4W3U19fg2Bq09M9pSuzWDPehyrgAJ3C9ThCV/tBjfa2GFCjH9PPkTt+KSAhBIh5n7+5WwqZJbV0NSrlYhkkkEsZVJgLPI55fkEtVbZO3OeJLUYdCIaLZUSzLoLeni3A4RCwWQzkKoRWJpMPvHryflsWLueFt16GNCI2Nc2lurCYrloNhWCxa1ML2zZu47s3XE8uKsqttN/fffy/xxARSQnJigj07t/CTO79PfkkpGo3jKFatupRVqy8j4SQnm+40XMrUaBuJeBuS+3e38vRTT7JzxzYqKsp4w+sv971zwjNApnkYZ4Oj7kxBpnZ6j0FjmiamaR6jpCe8p6e/3A+NC6yR0423blWEpKAgP+eUj3PSIViGAbEsk8ERz3OQklU73V0itVi/884fcPDgQZYuWsiefftYuvxCbrjhBrZt3cqdP/gBC+c3c6Czi1WXvo5IOMzdv7mbf/iHv2dsbII7/s8H+McvfomlS5fzk5/8hPz8fN793tu8xHHXy5FwHYdkMsnaNWs41NlOIj7Gxk3b+L//+mXC4TBdHR3ce+//kpcTZUfbHt7757dzzvxzwE/cNAzJmjVr2Lx5M5//xy9k5IpkfhkYO3oU27bTlecFEM3O9vMIvO/7m7t+RUdbKkuSAAAgAElEQVT7PkqL8tm9v5Nrrn0LS5cuBbxF2JEjR/ja1/+d4sJ8kCbtHQe4THqLL9t20nkfdtIG4Nn1z7D+6WewDE1r217e9Z730jinGaEU/3vPPTTW1bJ162au+LMrufKaqz1LWIBlhThwoJUv/d9/5Ev/9mXKyqonV0VTvldmWIi31zExPsqzO7fw1JNP0tfbjUZRUlzGnratGFbID+tIyclO9YacaL+YyYuhfY9RyuM1ebLimNdNO6KnipQVpbCogF1tu2jbvpWh0QlChkF5ZSWXX3Yp1bW1xLKzyYpE0p4wpbWfw+GmDcxU26auzawIQZmG1ppkMkFNTQ233HILViiEt8vteXs8vN3MtJHsfx/XddPSiW76u01NRE2HlSnN9ERn1/8dLdLvSf2d+hivX3jnkdopUzPlM/ntkFpmpu69zFwfL/zCX5ZPCwNXrnNM75ue3ySUonnOXPLyC9DK+54CjRQuhYUFvP+v/w+FBfkk7Jdp68Y3yl/pfpNKHp7cXJDU1zfR2DgHpVySSZvh4SG2bd3K9i1beeyxJxEqSVVtLfPPWUB1dTUhy6K9/RDPP/80O3Zux7bjSCE5sH8PpEIj8byImZiW5Xu2M09Ikcp5E8LPD5IiHUpzPFLPZW7wTL7f8LzkUk4bZnwjTRhMjI0QjyeR4hS3/F4GhJSMT4yzZdMmfv/Afbz39r/AcRTDwyPs2rkN5STSGz1KKRob6tP3qWGYPL7mUe77zS85OjrIwc52fvj9bxGJ5KKVgxWKcO11N7Fk2XI2P/cUX/j7z3DVW2/m6XXPIFSC0vJKknaS2toannl6Pd3dhykr9fIar7vuOrz7UDF+dJS+Qx1c+Wd/Rk1TI1poDNPClBEmxscnQylP1zVEoLXDrh2b2bxpE22tO0iMjxKyTMZGh/j1L3/qb+b5RVunGeqzcZyevRw/bsEwDHr7+zENhZ5Se+tYTof3P+A4CIHSCmnItAJWOsz3JDhpA0QA+XkxjvSOktQKPctE2ycmxpk7dy5/9TcfZs2aNdxzzz2sXr2a39xzDxdddBE3v/1m1j72OD//2c/40Ic/DGg6O7tIJOJUVFXz7HMbaW6ax0B/P5ddfvnkgYXnVVDaC4S5YPkF5FxxBQr4/Oc+y/Ytm6mqqSUSiXDllVdx7tKlfP2rX+WeX/+aBX/394D2KzEbhKyQv/g8ltTjf3rkj3QfOoRhmiityMrK4orXv56a6mqEELTt2sX69ev51Kc+RU1NDQ888AAPPHA/Cxac4+ceSJ5+eh05Odn8zUc+wUB/P7va2qZ8TsoF6v3TNDY2s7BlEdFYjK9++d9Y9/Q6Guc047iKi1eu5Lrrr+fBBx/g3nvv5eJVq5BSkkoNllIgDBP0zN9rOoaUTMTH+fFPf8SuXduJZoXIipgopRkcPMLPfnYntl/1Gkif4wxX7MQ6xjS09haeU8MMpxsgxxvyBErD4UMHKa+oZNWqS3jjVSuoqasjFo3hKk0yaaM0JJPJjMySDN9Pxnfx+lRGeNgsRPlJzKtWr/ZzajxjMDM4Dphy+qlEzhfrD5PT02TAy4mT8frjRUakr+4JHlfg94WTn+601syZM4d58+b5oYreZzvKpa6hgcamBmzbnrajOltbPcXUcEP8kBTX1WmDxLLCVFbW0NDQjNKavt4eWnduZ+1jj/HLX/yKpuZGFp+7kC1bNuI4SXJzswiHDJSjePbpdTz5+BN+n5L+v0kDbSZvsGcApwzVGU/3GEW/KY4iJidLpdMBlb6ErZzWHv4iVEvPQ5CwvVDe04RSiqKiYm648WZaW3eBgHjSpre/n1A4QvvhQ9TX1bNj+w4uu/xS/vD7+xgdGfWW0ULQcu65ZIXD7N/Xxqbnn2X1pW8gN7+YQwcP8oPvf49LXv8mLr3sMuzxoxw+3MO1b7mBdU+u47vf+ArvePdt5ObEuO/e++ho38PPfvZTVq9azc6dOxkcGsAwvNy3jc89x/5d24nm5lO0rRyFxpQhHEfzlrfeQHVtrW8UnZ6eL4QgHp9g3VNPsmPbFkKmQTTy/9s77yC7srvOf84NL/d7nXNUt1rSBGk0M57MBDwejPM4e2wDy4KNoXCxBUXhWrxL1f61BbXBsAvYrBds4/LaO2OgFuyywZMZj8cTLY2y1Elqdc7d770bzv5x7n2huyV1t1rqMOdTHkt64b4bzzm/9P1FMYUktzjHj//1efI5B2GYeMujhFKyPOq+0cVxcAdu9DB2BPIyUssCgWmZ2NEoFem0ErrxVj8fxRlScj2EVzSXJoxRV1SksGyzkAGwXtY9ikoByaSNbQtyOReBvW1uBiU9K2hsbMLzXExTKU0tLCwwPjbGy4tL9PX3M7+wQE1VhtqaGrq6uvjZz36GlD7vfNe7Ofraqxw5egSAzs6uoBhZqAhGMMqYpsmJEyd4+pmnlVdvYADXU96mTFUl9Q315LNZWtvbOHvuLGHzKiPwtFE2kZcs4YK/GobB3n37qG9sxDQNfAm2ZVGZUT0fDMNgcHCQdKqCqqoqHMehuaWFXC7P/MKi8twIwdjYOPV19di2TTqToTqdhsBKLU7qxb/PzM3y53/x50SiUd48epRDtxxSBeRC0N3djeM4tLa24TguiwvzFMyPghc6+E+uXEwvX0BIVK+Chx9+mJqaDG8efYPFpQUMA9IVVdx2+53BJG8EEbZLeTc3du+FmzGM5Qa0WOaFWW6QUEhvMw2DqWlVs/L4E4+TTmdo7+igsbGJtrYOamvrkEGUQ+U9e2WTlAhd7IFhq/ZrNYN+ezxfQLCo3mzK096uxEpPy3Lzrnzb0pdYlpIo9aVUCx9Z8uwtM5LKntFlnvAV+7LKq57n4QVpV6Xf9bywKWT5D649oecSE6+Qa1r9rLflQrnHl0IKpUAgDLMgIY6U5HM5Tp46yfCFYQYHBxkYGMAwDbq6urnzzrtpa28jk45z4MB+Xvrpi/T1ncEQEDFtDh26kfrGZpThIRCEUV91rI7j4Pte+SUxhOp2D0ouO0hl9aVfHH4u46WWyELRfCECF0TIPK/UZVD8vETguQ7Hjh4vcVZsjU/W9z08V9XiOU6emclxampqmJqaZmkhy9zcAtmcw9j4FPm8ixCSpaUlXNelubmZhoZmRkeGkUaUfTccJB5PI4Sl7i/D5P98+zs8/cN/4vxQH1/96lfp2bMX045w2+2386GPfpSf/vhFvvOd7/Cbv/1bJJMJbr3jNgQQi8d4/rnnOHHsTd79wU/Q0t7Ep375l5mYmOErX/4Kd999Lx179pDP5VQN0hYNbVJKEvEkH/rgRzh08BA/fv55xsZGyeZzNNQ38pF3PIIwbHULGeYKg2P5dV+Xg2PFN3e3AXI5wvVVLBalpbVLqYteipIBoOAj0lxnguwBJJZpkEknMYQKSG/kWd6QG8eyTKqr0ywMT26P/KsAIwjB+8Hk7/s+S0tLGIZBqqKCWw4f5r3veQ/ZbJaZmRkylRkOHjzEU089RSQS4bHHHuPYm8d48skf0dPTQyqVItS7LywQTYPZmWm+9vWv8eijH+C+e+9leGgIz3GwDIOpqSkmxidpamrmwtB5WptbsE1TWe1BnqMImyBJiguhkjW77/uMjo4xNj5aaDYVjcbo7OxQ+wRU1dQwMj7O7PwCrZVVnL8wjB2NkkxVqKJ4YWLZUYYGBjEMwcLCPBOTkwhhIGWYjqKiCsIw8KTkG3/9v2lrb+ejn3iML33pSypPXYLrOAwODXLw0EEuXLhARUWKiooUnuegMmR9DFQhPoSLAnWMKw2P8IYxMA2bnu4DwSLlHl5++UVeffVlrEiSu+95iGg0HhT/LZfzvHpWW0qGHdlF2Qp09QhfwVgUsJTNsriYZfjCBc6cPcdrr7zOU089SzyVoKW1hZ493WQqK6mrqSEajQQRBE8V6PrleT5yee+RTRxlV3ay3wrWvtwu+1ZwTVY2xgvfV2lZhpAFr7hEgvSDGp1RpmdmSKcrqK9rDsaIwHC+VFpx6HRYtvelrJYUWJgnA61kEXguSu8r9fcV8aMrs4ZTt1qkcCMC3yL4JoaSEjcMA9NUqUczs7NMTkwyMnKRIz87wtT0NLFYlOrqahqbGrn35+4jk8kQj8eVIIfnAR6Hb72Tfftv5MjRI7z68qv09/XR3Xsztx6+NajZUeODWpeIgoETRp5BnSsjkGVWRkewvyX1ZXJZlKN4blj2meK1L32v3HkC4CFMg8X5Oc4PDeNJH4utS8MC5dCyLJO+vj5cP0d9Qz1jY2MszC8yMT7JzMwsF0dGyefzmKbJzOwMeccNUiclJ44f48477yYeT+B6Lrlcjmwui2GYvPd9HyBmSp575ik+9pGPMtA/iOd7PPvM0/zj977H6IULnDpxjK98+S/oPXCAdzzyCCD4p+99j7/80n/m45/6NR74+Uf4m699hSeffIpnn3sBIQxuPnQQx3UDAQQRWLbX4WQFc6/6LUPNK8KmIl3D4VvvpnffIU6dOsXzzz2LZVvsu/l2NS8G6bLr+JF179ZuTysSKxLYioTORRn4LaUUlPrgCrOhrvvYVkgpiUciZCpigRNazb3r9cmsywCRIuy8C+lMHC6qxb7YwnB0OYF6UyFPWeC6DrFYjHe/+1088d3vks9lyecd6uvraWpqYv/+/XzrW9+is7ODpqYmunv28sQTT/CFL7yrMEMVCqQME+n7RGNR2tpaefWVVxi5eJHJqQn1kAXdZ//uu0/wzDNPc/bMGf7Nr/5qwWscNrwThhoIVWMzozDJqqJX9VMPPng/UPTQh40FvcCLfsOBG+jdt49vfP0bVNdUMzg4yPvf/37VhDBYbjzw4IP8yR//MX/6p19SBbuuWxjspfQJmyZKKbFMk7bOLs6cPcsT332C8+eH6O3dh0QSsSyefeYZBgYGOXbsGPfddy+pVHrZ3CEKC4TwhlTvixU2ajF1QuA4HpgmbW09NDV1cPDgHZwfuoAwYni+uXra1TUZjETxeq/RIx+udyw7QaYyRTpTy4EbbyHn5BifGGdubo6TJ07w1I9+RHZpiVRFgsbGBro6u2hrbyceixONRPGR5D03kN8VXEbE6LJcMS15B4/hquit+PeQcHEQRkVEEK1U63uJZQuGz/fx3//bf6Wto53R0TEefODtPPDA25XBEm6fzVsIrPCVCpap6LAszLK9CM+jZVkIw8DxXBYXF5manOT48eNcvHiR+fkF8k6eykwle/f10tLcTG1tHelMOohGUKjdUjVmgUPCl0SiSW5/2z0c2H8zR44eoaKyBhczUMxSKViFJrfhNV92Vv3C+Swxqi+hWHdJAhHH4iInPH4KY1nxpKhIsDAtpBAFh9RWoaJQBp6T46UXn+dd73o3Z/qG6Ok9wED/ADfecABPCu655z4mLg5gmQbDF4fZf+AGKtJpXnrpRf7lX57kC1/8D1i2jWEZOI6jHFemTSKRpCKdxvN8nn32WeLRGIY0uPmmm6mqqeXokSOMjYzwznf+IpmaGk6eOsHfPf44Z0+fxTQM7rz3bjr2dHLHHffwP770Jd7xyDv5t5/5LFIKclln2ywoPT9YTCWS3HL4Vto7O5mcnFRuNS80iK8h2+M0XFtWpDZrdi7BOI6kujJFIqZm0DBPZb2T6IYsBwkkEzFSqQTTs9ltcWuFkYpPferTpFIplpaW6Onp4fd///dJpVLcccedVFdXMzExgWXb7N+3HyGgsjLD5z//+aCLs8FDDz1Eb28ve/fuBZTKUzwe5w+++B9pbW1TzewiUX7ts5/hzOnTWKbF3ffdRzqTJh6L80f/6T/huA5jY2O8/eGHaW9vZ2lpidCsV5aiyjG2bRvTUEWPZZ2pJcXohPBXrN79wAj6zGc+y8mTJ1nKLnL/Aw/Q3tZOPp/nN37r8zQ2NZGuyPDvfvd3GRwcpK62lve9973EYpGg6zp88pOfJBKJkM8rNaBHP/gox4+fQErJ7bfdTiIRJx6L89u/8ztEo1H6+/u5/fbb2bt3L67rqEUhRc9oMpXEti3VZM1XtSUr86mDxUlJQbmUUsmAEqGzcz+dnb1B0faleqJs8qRQGCCXD5SXD++FaxAlH6oMQ+F5GMKgsaGe5oYGeru7kVIyOTHOxeHzTExO8Ozzz7Hw/QWi0SjdPXupa6inu6dbNbBEGV1+mMbjy+KC+gqT9jaZ068hl4o1lLwvw6okCYZKmfmrL3+Z3t79/OZv/TY/+tGTfOfb/5eDB2+jtra2vCvztWSbXpvQgDNKZKQ9T3VQP3fuHKdPn2ZkfIyLw8NB4Xkne3v3UldXT2trK5ZlYwaOFc/3lbMliCSUrdFleTDP9zySqRR33nU3nusppTFDgF+4esv3tOxf5cpfG+QSXy1EzwKCkbvEHpJBzsHWGSGGYfLcc89w8qQarw/f+jayjqS2ro577rmbRCJBz94e/ul7/0h9cyfZXJbXX3uND3/kw/z0Jy/yZ3/6Zzz26V+hu7uXH/7wB3i+zysvvcyNN95IVXU1Tj6Pk8/z+uuv8dA7fhHfcfCA4eERbn3bHfiex9DAEPt6e5ldXORvv/H/uPHmm/jEY5/ky3/2X1hcXOIHP/wBg4ODfOITn+Ds2T6eeeYp7rjjHoRhqeakWz1gBZkAEnXver5POp0mU5lRqZqFvEPNVaFP4a5C+j6mIUinoxgC1SNvg8/JhkMXlgU1NZXMzI1udBObjpTQ2dkJgOt6xOMJ9u3bryRCXZfu7m56enqQkmCSVZGSnp7uoKjSJZNJU1VVpRbAftgTRLBv3/4grUviSkllZSV33HWXmpTCTs9S0tbRHmyzR0l4BiHcWDTK49/+DtJzOXXyJPX1DczPzfO1r/8NU1OTRGz7EsckV118uq6LHbE5ePCgimRIH8d1EIaga083EknWydHU2kxrW2uJdKmH5yhvXmtLi0qX8jwQSp7x1ltVh3DPV5rwvpR0dHQA0NTURNj9GATxeIznnn2GquoaZqYnSSYTRKNRvv2tb9Hf389Db/95JUNKeaQEwmhQMR1FSJW25TheEE0KF0dXurHlqo7PUspTqlb7QHiu1fbWS7mMstqE78pAclad99qGBhpbmvF9n3vvf5BsNse5s2cYHBrktdde45//5Z+xTJvOzi729vSoCF1zM7YVIZ/P4wb9ZN5y6ivB4VqWiR2JqpekuqM8zwffw7IjAAghMRB4nkM+n8M0TGbn5hg4d4ZHP/QRHMdj374b8eXjDJ0foq6ubosOausRQUqVbdtYts3s7Cz9fX1cGB7m2JtvMjY6SiKVoq6+nubmZt7x8MNUVFQQidhYll0cH6VPKARWrKkJ8ilESRxBlEQYg/eKimmFD12no98ooXEktnRhapomFy9e5JVXX+MP/vCPuDA0wNe+/nWikQgXhgZ449WfFiKG2XwWyzL56l/9L1pb2jBNmycef5xf/8yvc9/PPcT8/CKLC0vk3Rw33HiAWw8dxrZtfN9ncHCI937gg/Tu3ctf/uX/5Atf+PecPHGCL/7hF4nH4viuy5/88Z/Q0NLMr3/mc1RmMly8OMz5wWG++fW/5abDt3H/Az9HR2srfX39PPnUM/zkhZ/wi+95H/t69+OuolR3zVD5elzpHlPOsetZk/FWSMJaCzpKsiOQKnMnGo2RTikD5Gqu27oMEEExI14AtZVRRhMRZhcdDNMOJp1L5/tdD0K5wYKMZ8kg5zihjKf6d+jgcF23sEgtyr2W44bbDYLz0pe4eecStQkCD1noaG3bNr/7e7+H6+Q5fuxNKiqSvOs97ycRj/Pxj32cTz72SZLJRNEbu+x6XsoRI32J65d4cIOUIM/3Cl/wXA9fesX8fykLRequHxg3QZqXBJyS/gTh73plA7IIykMFH/v4Y3zwQy7DF4Y5duQIn/r0r1JRUckjv/BOHnnkF0imUiq6snLXVxxfSNi6o7ikv/LNfWXr+8oTj9rQZt23xd8yCHuGgOv4KpddWCSTNoduOczhw7fiOA6LC4uMjY1x9OhRXnj2GRbzDraAuvoGbr7lVtra2ojF4yQTCfxQZavE8FUZK7tjIlNpe6GvWWIZBv19Z3n+6X/Gc1W0znMlnV17qapr5I1XXkJKpajjuR4HbrqZO++9DykES0tZ4qk01dU1+BIi0QimZZLP5dg+k/+1mXjDdFwpJb4A2zKJ2lE832NxaYm5qQneeON1zp04zsTMHNFolKqqKm45fAudnZ0kk0mSqSSuL/FdFx+ponLOpc5Z8NSqHMzyowrSWOXKT5fv8zZLTQtHIF+KoJbHgC1WfvQ8j5qaGj77uc8RjUQ4ePAW7vm5B8guLanRObzwgkDGHYRpEo8nkFJy4MBNJJJJcjklu/vOd71bfUEqZ1TecZGG4MMfe4xkIsHJU6d55BfezaHDb+OmQ7cxNR3UEvo+npRYUZtoNEku5yN9eP+HP8b9DzxMbUMDrpsjl/NpaevkU7/Uycz0HLFYQs1RcH0vtcrLpPDMh+IyJXV3q/WZ0mjesoTlB0FiupAGvgt1VSli9tWbjeuLgJTk/AsgFTGoq0kyvzSN76nOq4V2ulvE5ULzy9ep4b+vtIAtmzSFRJStW0TJ/6/+277vE4/FIBblrrvv4p5778F1PVzXobKyctM926XHI0pzpNWbJeleonh/XYKyvSqZ2HwJdjRJNAq9+6o4cOPNeL5PPu+SSCZVerWgYIRdCSmEkusr9Yau6aviyk/AGgu5NxpGvMTWKL03pC/DeAgAvifxvaKiVCKRoLOri+7ubiQwNTXF8PnzDA9f5LnnnmNsdJRkqoLW1lZaW1vYu3cflZUZ7MD7r3ox5Is/vauQ1NdVccedtyF9F1DOhXS6llgsQcx+G6CkEHzfp7q2Hl+CGdQyuHkPx/EwDJViJFGd3dXl3qB8x6azOfug6jfUGtkOegZ5nro3Tp0+y5kzZ5iamuTChWE8N097eweH77iT6uoamltaiMaieK6HDNSkstlscCsX9y+sH1vtEC41IalI4PJ0zJ1EeGRBj5AtVsEShoFlmLiBE8qOJrGjSVYr+C0VcBCAtAT5vCxI6OfzrqrbKXxeyYybkQRZR9LR1cOe7l7yngfCIFNVjBxKAsER9T9qapv44Ec+he97uI6LlAbSMArKqhXpTJD2JLfwsSs5P4IyB9happPNRXv+NduZ8twV6UsqEjHqazKbctduvHo8GHBqq1OMjM6xlPORGPhCYpQolmwvNrZPl5tm1mo4yEAVynV9lJEmC0ovl/hG8fcv9ZHVXl/PIV7ps5d73xBBDq1akPiOX9hjWZjM1nm+l398s26hbXIrXu5O8VVeIJ6rVGoy6TRVlZXccNNNPOj6LCwsMjQ0SP/AAEeO/Iynnn6SiG1TV1fHnu4eWltaaWlpJRaL4gZND2WQtuWHEiM7JJ85lGAtbdI4OjrBk08/Tz6XVREQz6O3dz/1DQ288MKL+L5ECBPH9Th0yy00NDUhgVg8yeLCItPT08RjUfqmJslml6iurg7qlLbDaVlPJGb1BUuYTmUYqjnkzMwMg0N9jFy8yKnTp5mZmSEWi9LY2ERnZzsPPHg/9XX1WKaFZVp4novreuSyOfUrYSRiHSdny0/jW4yyLjyFeejy99K6skxLUuZK06X8ZRsopt6FoiZO4fXlP7WtUkjl7okaazTXhJKsEN/3kX6OhsZGYrGV4kIb4arlq5IRg6a6NOcGJ2Eb9QTZ/lzee1Y+Tm+jcxouTEpUicJOzGGKraDoIFxjiwJNiBBlRZFh0l8yleTADQe48cYbyedzzM3PMTk5yfFjxzj25pu89upr+EERZW/vPjo62klnMmTSaaWA5jgFQ2QNqdBbS4lVIIIUiaaWVj704Y9TqpkfiUSxTIv2jq7CDedLQSweC2qeJKmKDG+75z7+/rvfpaWllR/84Ps0NzXQ0FB//QrQNxHVD0cpIKmGoyb5fJ7JyUnGxsY5feYUF84PkcvnMAyorq7m4MGD7OnaQzyhUvgMwwzSAiWu7+N5+YLXfHlfnOv+7BbSZLYJZRH17fzQbBFB9F4IVF2+UQwpbKOruCoSPTlpNGtC+niuSyoZoaYmtWlxu6syQISKqlNfW8HYxBzTi3mMiLnmlJe3EuEgXVKLubMp8Yz6RUuk+Ie8/G1QmionKBYWa0pRj7lEFUaqkg+VSpTJVJFJV9KzpwfP95ienmViYoLR0VFOnjjBj198gYgdoaqqmpaWZvbt209FJk0sEsG2bbxAmGFbeSQDSqMSoRCBZUWoqq5b9jkf8InGE8ErwfkqSWk0DItP/9Kv8Lff/Abf/OY3qaqu5Dc++zlisXggEHE9jmi14fpSha6lny3WVBjCwLRMBIJsNkd2YYHBwUFOnz7D8MVh8jmHfD5PV2cXd9xxF9XVVdTX15NIJJTIBBSaMPqFZ+0tKGqg2XTCOU2EKbfGThrH5S6alDWaa4BUarCGIWhtrsW2N6/Ke+MGSMkcGYtAW2sVsyfPg29gCKPwQJc1BdsElBO3uNAwCk39rv2gt9Z6htUo9itY+dqqn99Rg3gJ4XEW/r3yOJWBEiZpBc3ldujhXh0bK2aVspj+5vsqH7+yspKq6ir29u7l7nvuZmlxkQsXLjAyMsqFC+f56U+VMk5zcxPt7W00NTXT2tpKJBoBGRTKex6+5xfDrpe9JteuEFcYJUXopd7UFYuE4N9lbVhL01LA91wSFSk++9nfwPfcQmNPz5cgzGI6/7VGFo1sZVMtO38yTJ1RjgrTsjBNs2BMzc7OKknciyOcOXOGmZlZEokEXV1d3HLoEB0dXdTW1CgjpaAwJcmHsriFsq9QVFYgMRAiPL9hx55lCFh+I0hWuRRXZGc/4EZgCIfmoUD1NFHXqzjmbZXvrTBfSFh5vVbu1IrLJwRi2UWVhWr20s+t8j0oCA8UMsC20eUOSwv90KkhBQYGoaBMuIQo9J7ZRvuu0WwpwbPhex61VSmqqpKb+oxsSgdBAdRUxt8iPEUAABEpSURBVKmrTjI+tYgwje2QWL1N2T3npWhkFI9pzRNwsOAyRKAYtsn7tpspz/emaOCX6D/EYnF6evayf/9+XNclm80yOTXBiePHOXv2LC+/8gpLCwvU1tdzYP8BWttaqamuJZ2pQCBxHBcvaFK5lVz+19cSCFZqdJ4EQVgMq0bQ67ZYlOGCveiEKF/XC4QhsC0DOxIhl80yNjrCxNg4J06d5syp03jSJ5lKUV/fwEMPPVSo9wn7F3mej+97RXWhUlY5zpKS4+Jresy+PKXOI0BFsUplwMVKw/J6I9bonVztuV61pnAN90TpZ7b1LbQ86hikeSL1DKTRLCesHZU+yXiElsYqIiahFAcF10bJPLbex2hzWphLsAR0ttaysDDIQjaPGajzhI+3Zhey/vutgL4jroI1yAVLlGSql1OqUZFIhKbmZlpaWjANg4WFBWZnZ+nr7+fYG6/x8k9ewJWCqnSS9q5ubrr5ZqoqK4knEgghcPIOTpCyVRbR2ikew7J7dWt2ODx3hqE6fUciNqZpspRdYmF+nsHBAY797HVGRkdZyuWJWyate/by6Ic+SGVlJZWVlVh2sQeH7/vk86rgtyCzrblO7PARTN8rqyDXZnBpNG8RPN/HNqC1uZpMOgK+8rFsixqQMiRUxG262+s53jeJ4wULlU3rraDRaNZNaXqI5+EDLmBHItTW1lJfX8/dd91FNpdjoL+f6Ylxzg7087W/+WtM06ShsYGW5lba2ztobW3FtmxM08DzpGoEKLSSzJUQQmCaJpZpIgwlFTw/P89LL/2EkdERBgcGmJ6cJF2Z4YYDB+jZt5+29g6qa2oKiVF+IErg5XLl2zauwgugWR+X1w3R7Ci0oaHRXB4V4aiuzlBXk8RELSc2y/iAzTRAACTUVqWonXG4MDoNhoHAVO9t4vMulv15vQibG2o2jzLlrK3emV1P8SyHEpm+6+G6LoYw6Orag7W3l1vveBuu6zI+Ns6pUycZGx/n6NE3yeVyVFdX07N3Lw0NjTQ1NpGpzOD7UnnkPW9Z00rKK8p3IaVHVkhqEgLDMDFNVQvnOA4XL15kfHycvr4+Tp06pfqVVFfS2NTE/fc/QHt7G7F4jIgdKRgcruOtbZDbvad3+yHCBARR1tBWszNYpRpRo9GsQOJ7LhXJGE2NGUwRjnqUF/heJZtrgKDG586WDJ7nMDIxFzTGMlarjVs3Mmii5weVY+J6NBELPbxhOtz1mG126WpcVX3IQp2ipFgYqLkerOK7KKldlRLyjgtIDMOisamZ5qZmfCmZm5tjfmGBwYEBTp85y+uvvYHneWQylbS1tdLTs5d0Ok06ncYyTZX+5fn40tutt3NAkFZlGtiWhWGazM7OMj09zcT4OK+++ipTk1OYlkUkGqG1pZVHH30fyWSKyspKIpGI0ldHjS1eSb+FtRpuK8vvNZuNmr98ZFD3IfADMZSSOWEXG9o7GRkMQEbJZXLC1zWatzjL5w2Bj5AOMRtamjJUxFQDWVmyfBCrfXEDbLoBgoR4xKCzpZalpSwz8zlMM4ohjEsKT65z84WmW4WBX8pNi4pIWV5EqBR5ilO8lKxQC9l0dqoC1hqQItCMd/NBLYFeNm1HwsVwuBxOpVJUpNO0tbZy7733Mje3wPCFYWZmZzh3ro8nnngCz/doaGigvq6Ozs5O2ts7sCwL27bxAx1xfxe4i8M6DtM08D0Px8kzO7/IyeMnGDp/nsmJCWZmZlRPln37OHTLLbQ0N5NOZ1RUBGXseV55g7dg4+ven51/RncC5cVOlmViWUF0HxGkG4tCd3HN9kIpYakViBCqB87unWU1mrWx2twhfQfLkLQ211NVmSy0j7gWbL4BAiAhFTfo7Wrk1NkRZpccpLRVU7qCZt/GcF2Xs+fOUldXhxM2EgsMkPC/q5mQlxsgyhhQqVcCpaMh5DUevHaxJ80XEmHA0twsC4vz7Npwzy4j7NQe9pSIxWJ0dnVhmiaHDx8mn3cYHR2lv7+PkZERvv/977O4uEhdXR3d3d00NDTQ2dlJIpks9qXw/UIdyXb04hecGkFKVVh873kuIyMjDPT3MzQ0wNDQEI7r0tjQQG1tLd3d3fR0dxOLxTBMk7BZmx92lJYS0EqBOwEpytNEQTA7N8fRN48GBkgg5irUn1pJbPtiiOK8vbi4xMLCvE6r1mgChADfdTClQ0tzPfW1aawg9cqAa5JsJOQ1cUkWY52z8w5vnrrAwpKDaUeVHyksjF3nAVmWxRtvvM6PX/jXgj5+2EMoHESuukBmuQEiBBih11IWDJFrbYDs2iExiIAI6VNfW8sHHv0Ivu+q9Drtk9omrCVWudzTKzANA8M0kEGR9eLiIv0DA5w5fZrJyUmyS0vEYlFuuOlment6iCeTVFdVYdk2ruOqxoibcueXbmNj95QQgohtY9sRFhYWmJqaZHR0lCM/O8Lg4ACGaVFRkaK+vo6DB2+mpqaGVCqFERSZS0CGMsYFrcLSfdH3+s5CpdpJz+cf/uHvmRifCHrwGJTeb742QLYlAqDwPKr+Hw0NDTz6oQ/jOPliqZq+fprdRNkiO1yXr3gl+IeP7zl0NGVUw0FTpS0WWgwtV9vehKn62hoggdtocjbH8VPnybkCYViEZ2D5Wn8t2LaFF0Q+ijsuVzu3G2T5ForuWXWmwrSvq/6hy+zC7h0EpVBdNYWU2JaF50nA1wbItmIjBkhAwfeg6iIEKl0pl8syOTnJyMWLvHn8OCOD55hdzNFYX09TUxM33HQznR0dWLatpGZdt9ipXYggdWtltuqqP74WA6SkwaEhBIZpEYnYCAT5fJ65uTmOvfkmA2dPc350nNzCPIlEgptuuZU9e7rIVFZSlckgkcF+olKySnqnSClLGopec7eF5joghMAyVd+VQmNaWTSbdV3BNkUWnz7p+wjDIBqL4rguvudpA0Sz+1i18LrkQUAW11y+h+vmaK6vprujhqglCg08CTazYlbdvgbI8l+Bqbk8p84Os7jkIQwrKChnQw/8ig7i17QXgSyzp67PImLXxj/UDC2kSseTsqTbrh74dzxlz0k5QggMYQSStAaeLxkbHWWg7xwD/X2cPnsWN58nncnQ09NDS0sTHZ1d1FRXgTDxpY/jukGRdni/lC7qSw2UyxkqEsMQmKZV6IruuA4jI6OcPXOO4eELnDp1CsMwqampZU9XJ80trbR3dBCLxgJ/hMCXftBtfJXjvvoAjGabs6IXDuhrvZ1Z5ZnUqVeaXY0sphcWx6vQqvCV+SEEvudjCUlDXZr2lhpi1sqZdTk7xwAJLCdfwsxcjv7BMebmHSQm0jDKKus1Gs1bgGDIMYOog+c6LC4ssLS0yJkzZxka6mdqepLpqRls26Rnby8dnV1UVdfQ0NBIxLbxfB/fU0ZAMTqy0gBRKnwmpmkGvg7J3Ows4xPjDA0NcvLkSSbGJ4jYEaqqq2loaKBnby9Njc1YdgTLsiCo35C+1GOVRqPRaLY90qfQ/HY1A0Qp+UksE9qa66ivSRG1LpnbUMaOMkBA4vlKvDCb9xi6MM3FkVmkoRpzaSNEo3lrIghFHSTCMDAMNVhms/PMzMwyMTHB2bPnGBgcwnE91UCxpobefftobW0hHo+RTCQAlGqX72MgMCwDQxg4jsviYpaZmWmOHz/BwGA/s7PTGIYglUyyp7ubPXu6SKXSVFVVIUSYXoNOCdRoNBrNziNIvwprlllhgHjgu6QSMVqaqqnOxDFNVLPBNWx+5xggoKIg0scP1EJcD4YuzDB4fhopDAxTpWOtaUdK6zAK29cLBY1mJ1Iqj1kk6K0RKND5vgQDpqdnGBoaYmRkhFOnT5HLZYlFozQ1NdPa1kp7ezs1NdU4jsNA/wD9AwNMTExyfug8nu/T1NRET3c3NTU1NDU3kUymMIVSZvM9D98Li1QNBAZoSVWNRqPR7ERWLUiTIDyk51CRitPRVkd1RYRQSmOtM97OMkAKSHypPItSwuT0EoPD08wuZPENEwylq14qfxmWJhd2MlCiKkMbIBrNjkQouahLvh8KPxiGibBMTMPAlz65bI5sdom+vj4Gh4aYmprg4sURohGbfN4hkUxQVVVFa0srnZ2d1NbWEolEsGwb3ws6t/sSIVQ9iSwrcldRmLDS5JIjpFilHk2j0Wg0muvIqnUaJQaIms8k+C6m4VGdSdDRWkciZionYInUeKndspbytqsxRq6fAVIQjwqa+aEEhhdyLmcHp7g4PothWRiGak2i5A0FBuWNuqTcHKFOjUaz9SgDZG1PtDTKB1QAQ6iGgPm8w9zcLIuL89i2TTKZJJlMYgiB67lBv5ESRSopSgTuNt4LQDWg29BXNRqNRqO5ai5lgITVDVL6eJ5DIm7R3lpDTWWCqCkKpZNlale70gCBohEilfyXRGU55FwYnVpkbGyG2fksGBbCtAkNkLDfR/G7Go1mN7BRA0S9UFSyMQwDYQgMI4ho+D6e5xVkfMu/JxCGsep21r3/2gDRaDQazXYgnO4Keiw+npvDtk2qKlO0NldTkbAKzQVlGP2AojqcKGyq9OVLsnMMkBBZ1KwRgB9YXUtLPhOTCwyPzzK/5CEMA8uk2FvAEOszQK7UNkCj0WwpV2WArPwEaxsJteqFRqPRaHYHYSpzoe8tEqSHZfhkKlM0NlWTTtpYYeYAJYbHMjbSy2ijRsiWGSDhH6WFL37w31LeZ3RyidHxWRYXl4Jm5EbgbRShgnFhY0KdzlUWMkGIKfSAXuqMazSarUEqFaw1fGwNNsNaDZAtYFvWiugie41Go9kehAvjcL166Y8t70oufImUfqC9C6YhqalOUV+boSIVwTQFIui/ptoDX4a1CkKV/P7OioBchoKiv4Rc3mdkYoHp2Xnm5xfwPA/DslRVSKmsGKZKqwBCTd9ChOWK8/52XBhoNJr1I7WTYV0Y29Ze02iuOZdaOel29poto9SyUPfmZTRQEBI830X4PkJKolGTmqoMNdVJknGbiK3c88po8Uq+Fzjtt/hW33YGyHIcDxxPsriUY2Z2npm5BRayeRzXKfQMkMJGYgYntsQAEVdItdADjUajudaUyfhpNBqNRnMFLmWASIn0fZASUwhs06AiFaGqKkkyHqEiEcE2KaZjFSVkAT+Yj7QBsiZ8vxjJ8CVkHY+5hQXyTp7RsQkcx8WVUVxXpWgZQiACAwQMSqrXKa0eURfH0IsDjUZzTdFSvRqNRqNZC+E6tZjkU1y5qjwfj2jEIJ1WUY50Mk4ibmJbQtUwSDAK8lflWy5IXoU5zVs8N217AyRMawOlmCVFYLxJcFyXvOOyuOSxsJTDcz08FxaXsszPL1I8wQLfVxsJz70QRkHqd8vNQI1Go9FoNBrNWxgfpIcUEkMY2LZFLBolGrGxbINI1CYei5CMW8QiJka4xF0up7sqq9RIbnGz3W1vgCADA6T0zAoZ1IlIDKMYxfCkVAaL9Mk5DmGPM89beYhSlhbiaANEo9FoNBqNRrMVyMBnHkRADIFlGNimiWkaQckBq2dOla6Rl+vnypIXRekbW8/2N0A2wvY5vxqNRqPRaDQazca4YksJufqbcpXPbqMVv7XVO3BNWOsJvhr9MI1Go9nRaE+NRqPRbAvWtRS93IdL3isb4rffeL87IyBrZi19A7ZeKUCj0Wg0Go1Gs1tZZwMOWIfs/Aa2fR3YnRGQNbMWy2J7XjiNRrMMHdFcJ3ps02g0mh3LDm8l8RY3QECHNzSa3YR+nteMNj40Go1Gs0W8NQwQvSbRaDSacvS4qNFoNJotYmtFgDUajUaj0Wg0Gs1bCm2AaDQajUaj0Wg0muuGNkA0Go1Go9FoNBrNdUMbIBqNRqPRaDQajea6oQ0QjUaj0Wg0Go1Gc934/ynpiqUm5CoQAAAAAElFTkSuQmCC;" vertex="1" parent="1">
          <mxGeometry x="297" y="172" width="800" height="381" as="geometry" />
        </mxCell>
      </root>
    </mxGraphModel>
  </diagram>
</mxfile>
